<?xml version="1.0" standalone="no"?>
<!DOCTYPE svg PUBLIC "-//W3C//DTD SVG 1.1//EN" "http://www.w3.org/Graphics/SVG/1.1/DTD/svg11.dtd" >
<svg xmlns="http://www.w3.org/2000/svg">
<metadata>
This is a custom SVG webfont generated by Font Squirrel.
Copyright   : Copyright c Big Jack 2003 All rights reserved
</metadata>
<defs>
<font id="AcensRegular" horiz-adv-x="708" >
<font-face units-per-em="2048" ascent="1638" descent="-410" />
<missing-glyph horiz-adv-x="477" />
<glyph unicode=" "  horiz-adv-x="477" />
<glyph unicode="&#x09;" horiz-adv-x="477" />
<glyph unicode="&#xa0;" horiz-adv-x="477" />
<glyph unicode="!" horiz-adv-x="237" d="M68 18q0 -18 14 -18h96q4 0 10.5 5t6.5 13v138q0 8 -6.5 12t-10.5 4h-96q-14 0 -14 -16v-138zM68 311q0 -18 14 -18h96q4 0 10.5 5t6.5 13v914q0 10 -6.5 15t-10.5 5h-96q-14 0 -14 -20v-914z" />
<glyph unicode="&#x22;" horiz-adv-x="462" d="M82 1153l14 -281q0 -14 21 -14h51q16 0 16 14l19 281q0 16 -19 16h-88q-14 0 -14 -16zM293 1153l18 -281q0 -14 15 -14h53q16 0 16 14l19 281q0 16 -17 16h-88q-16 0 -16 -16z" />
<glyph unicode="#" horiz-adv-x="1052" d="M33 553q0 -16 20 -16h201l-49 -207v-4q0 -14 16 -15h92q8 0 19 15l51 211h217l-53 -215v-3q0 -14 18 -14h94q8 0 7.5 1t3.5 5l2 2l55 224h209q6 0 18 16l21 96v4q0 14 -14 15h-201l45 178h209q4 0 10 4t8 10l23 94v4q0 16 -19 17h-200l51 207v4q0 18 -17 18h-92 q-6 0 -11 -6t-7 -12l-51 -211h-220l54 207v4q0 18 -17 18h-92q-6 0 -11 -6t-5 -10l-53 -213h-211q-14 0 -23 -17l-25 -92v-6q0 -14 17 -14h209l-45 -178h-217q-12 0 -17 -13l-20 -98v-4zM416 668l47 178h213l-43 -178h-217z" />
<glyph unicode="$" horiz-adv-x="1503" d="M57 889q0 -96 33 -166t105 -109q96 -59 292 -59h43q29 0 68 2q31 2 51 2h35v-401h-252q-205 0 -209 198q0 16 -16 17h-125q-14 0 -14 -17q0 -113 35.5 -188.5t113.5 -114.5q104 -59 320 -59h86q20 2 34 2h27v-131q0 -20 21 -21h122q18 0 19 21v131h33q20 0 47 -2h94 q217 0 323 61q141 84 142 314q0 215 -133 297q-49 29 -123 44t-174 15h-49q-29 0 -68 -2q-31 -2 -53 -2h-39v373h196q63 0 114.5 -8.5t80.5 -24.5h-2q37 -23 57.5 -60.5t22.5 -99.5q0 -20 18 -20h125q14 0 15 20q0 217 -154 299q-53 31 -133 44t-187 13h-88q-23 -2 -39 -2 h-26v95q0 14 -19 14h-122q-20 0 -21 -14v-95q-119 0 -185.5 -1t-80.5 -1q-86 -6 -150.5 -28.5t-103.5 -57.5q-55 -45 -81 -115.5t-26 -162.5zM223 889q0 106 43 155.5t144 49.5h274v-373h-274q-187 0 -187 168zM846 158v401h260q66 0 106.5 -10t61.5 -27q41 -33 41 -153 q0 -211 -209 -211h-260z" />
<glyph unicode="%" horiz-adv-x="1927" d="M51 885q0 -252 58 -328q39 -45 122.5 -67.5t208.5 -22.5q129 0 211 9t125 38q111 70 111 309q0 254 -60 332q-80 92 -329 92q-252 0 -336 -51q-111 -67 -111 -311zM190 817v68q0 158 46 190q23 16 70.5 23.5t133.5 7.5h58q168 0 204 -31q20 -18 33 -64t13 -126v-62 q0 -158 -48 -192q-37 -25 -202 -25h-58q-86 0 -134 6t-68 19q-25 18 -36.5 66t-11.5 120zM735 -35v-4q0 -18 21 -18h100q8 0 16 18l353 1325v2q0 6 -5.5 10.5t-9.5 4.5h-104q-4 0 -10 -5.5t-9 -9.5zM1071 422q0 -258 66 -332q78 -90 323 -90q262 0 340 51q57 31 85 109 t28 196q0 127 -14.5 210t-49.5 124q-74 88 -321 88q-266 0 -338 -47q-119 -67 -119 -309zM1214 352v70q0 154 46 192q16 10 67 18.5t133 8.5h68q82 0 132 -9t71 -20q43 -39 43 -190v-66q0 -78 -12.5 -123t-32.5 -63q-20 -14 -70.5 -22.5t-132.5 -8.5h-66q-82 0 -132 8.5 t-66 20.5q-48 37 -48 184z" />
<glyph unicode="&#x26;" horiz-adv-x="1667" d="M72 436q0 -104 15 -181t52 -128q70 -88 213 -111q41 -8 122 -12t204 -4h158q434 0 524 72l137 -82q2 0 3 -1t3 -1q10 0 13 2l81 119v-3q2 4 2 15q0 6 -6 10h2l-102 62q143 162 143 335v9l-10 8q-2 2 -8 2h-125q-18 0 -18 -19q-6 -117 -123 -247l-783 477q-39 23 -63.5 39 t-34.5 26h-2q0 2 -2 2q-31 37 -31 99q0 102 123 139q76 18 234 18h188q348 0 348 -204q0 -16 19 -17h125q16 0 16 17q0 221 -162 307q-57 29 -143 45t-207 16h-182q-223 0 -338 -49q-182 -72 -183 -270q0 -96 39 -146q-241 -68 -241 -344zM229 389q0 131 35 189v-3 q20 37 60.5 58.5t95.5 25.5l772 -479q-86 -18 -358 -18h-154h-154q-51 0 -61 2q-57 4 -101.5 17.5t-70.5 33.5q-33 27 -48.5 71t-15.5 103z" />
<glyph unicode="'" horiz-adv-x="178" d="M55 1153l13 -281q0 -14 14 -14h41q12 0 12 14l19 281q0 16 -19 16h-67q-13 0 -13 -16z" />
<glyph unicode="(" horiz-adv-x="524" d="M66 236q0 -207 122 -324h-2q113 -117 308 -123q2 0 6 4l8 10v140q0 18 -14 18q-268 14 -269 275v675q0 264 269 277q14 0 14 18v137q0 18 -14 19q-96 -4 -173 -31.5t-135 -89.5h2q-61 -59 -91.5 -143t-30.5 -185v-677z" />
<glyph unicode=")" horiz-adv-x="526" d="M49 -57v-138q0 -16 17 -16q96 4 171.5 36t133.5 89q121 111 121 322v677q0 100 -31 184.5t-92 143.5q-57 59 -131 88t-172 33q-16 0 -17 -19v-137q0 -18 17 -18q266 -12 266 -277v-675q0 -260 -266 -275q-17 0 -17 -18z" />
<glyph unicode="*" horiz-adv-x="530" d="M37 836q0 -31 22.5 -52.5t55.5 -21.5q39 0 104 65q0 2 1 3t1 4q-16 -53 -16 -93q0 -78 71 -77q76 0 76 77q0 47 -20 101q0 2 -2 4q6 -6 18 -15v3q63 -70 107 -70q29 0 48 23.5t19 54.5q0 68 -102 92q-6 2 -27 6q16 4 23 6q51 14 75.5 37t24.5 55q0 31 -20.5 52.5 t-51.5 21.5q-43 0 -102 -63l-10 -11q20 45 20 92q0 39 -19.5 60.5t-55 21.5t-54 -21.5t-18.5 -60.5q0 -23 5 -46l11 -50v-2v4q0 2 -2 4l-4 7q-68 59 -104 59q-33 0 -53.5 -21.5t-20.5 -52.5q0 -68 102 -90q14 0 21 -2q4 -2 8 -3t6 -3q-6 -4 -16 -4q-8 0 -19 -4 q-102 -31 -102 -90z" />
<glyph unicode="+" horiz-adv-x="620" d="M18 459q0 -18 13 -19h227v-229q0 -16 16 -16h109q18 0 18 16v229h222q20 0 20 19v110q0 16 -20 17h-222v227q0 20 -18 21h-109q-16 0 -16 -21v-227h-227q-12 0 -13 -17v-110z" />
<glyph unicode="," horiz-adv-x="229" d="M47 18q0 -18 14 -18h39v-66q0 -23 -7 -42t-23 -31h2q-8 -4 -9.5 -7.5t-1.5 -7.5q0 -16 15 -16h55q27 20 39 45t12 59v209q0 10 -5 13.5t-9 3.5h-107q-14 0 -14 -17v-125z" />
<glyph unicode="-" d="M90 369q0 -14 16 -15h529q14 0 14 15v98q0 14 -14 14h-529q-16 0 -16 -14v-98z" />
<glyph unicode="." horiz-adv-x="266" d="M76 16q0 -16 14 -16h109q14 0 14 16v109q0 14 -14 14h-109q-14 0 -14 -14v-109z" />
<glyph unicode="/" horiz-adv-x="512" d="M14 -131v-4q0 -20 13 -21h129q4 0 9 6.5t7 14.5l365 1423v2q0 16 -19 17h-127q-4 0 -9 -5.5t-9 -11.5z" />
<glyph unicode="0" horiz-adv-x="1505" d="M84 678q0 -152 7 -254t24 -158q43 -154 176 -211q117 -55 414 -55h137q129 0 220 10t146 27q2 0 2 2q72 20 119 62t76 101.5t41 151.5t12 215q0 152 -7 254.5t-21 157.5q-43 156 -173.5 213t-414.5 57h-137q-258 0 -371 -39h2q-70 -20 -119 -63t-82 -102 q-27 -59 -39 -151.5t-12 -217.5zM242 569v109q0 205 34 287q35 84 130 102q80 20 299 20h135q219 0 297 -20q98 -16 127 -102q37 -82 36 -287v-109q0 -203 -36 -286q-31 -78 -127 -101q-78 -18 -297 -18h-135q-219 0 -297 18q-96 23 -129 101q-18 41 -27.5 113.5t-9.5 172.5 z" />
<glyph unicode="1" horiz-adv-x="612" d="M-2 862q0 -10 6 -12v2l82 -88q4 -2 10 -2q8 0 17 2l282 293v-1039q0 -18 19 -18h123q18 0 18 18v1207q0 20 -18 20h-181q-6 0 -14 -8l-338 -363v3q-6 -7 -6 -15z" />
<glyph unicode="2" horiz-adv-x="1439" d="M82 18q0 -18 14 -18h1293q16 0 16 18v125q0 18 -16 19h-1147v63q0 70 25.5 113t72.5 72v-2q80 37 266 36h37q20 0 49 -2h27q4 0 10 -1t14.5 -1t13.5 -1t11 -1h25h94q123 0 213 15.5t151 52.5h-2q82 45 122 126t40 193q0 139 -43 228.5t-127 134.5q-59 33 -163.5 48 t-252.5 15h-143q-268 0 -385 -49q-205 -78 -205 -305q0 -18 17 -18h133q20 0 20 18q2 63 36 109.5t107 60.5q39 10 106 16.5t171 6.5h143q227 0 303 -31q63 -25 94 -85.5t31 -148.5q0 -135 -112 -184q-90 -43 -279 -43h-51q-31 0 -74 2q-41 2 -71 2h-52q-244 0 -364 -61 q-168 -90 -168 -318v-205z" />
<glyph unicode="3" horiz-adv-x="1406" d="M74 358q4 -233 151 -303q98 -55 350 -55h236q270 0 379 51q162 72 162 320q0 64 -4.5 106.5t-18.5 71.5q-37 66 -106 102q66 29 94 78q23 33 29 76t6 102q0 233 -174 299q-51 18 -141.5 28.5t-225.5 10.5h-238q-238 0 -348 -63q-152 -86 -151 -305q0 -16 18 -17h123 q16 0 16 17q4 135 119 180q76 25 256 24h178q100 0 168 -3t103 -13q70 -14 108.5 -55t38.5 -103q0 -201 -327 -200q-29 0 -68 2t-92 4q-51 4 -84 6t-51 2q-12 0 -13 -19v-124q0 -18 13 -19q23 0 58.5 3t88.5 5l100 6q43 4 74 5q301 0 301 -207q0 -152 -133 -191 q-70 -20 -281 -20h-198q-180 0 -246 24q-57 16 -84 62.5t-29 111.5q0 16 -16 17h-123q-18 -1 -18 -17z" />
<glyph unicode="4" horiz-adv-x="1339" d="M4 410q2 0 2 -4v-127q0 -14 17 -15h970v-246q0 -18 17 -18h125q18 0 18 18v246h143q16 0 17 15v127q0 16 -17 16h-143v803q0 20 -18 20h-138zM252 422l741 622v-622h-741z" />
<glyph unicode="5" horiz-adv-x="1441" d="M82 360q0 -207 160 -297q61 -35 146 -49t194 -14h329q250 0 359 76q141 96 141 334q0 260 -125 366q-111 94 -383 94h-338q-227 0 -303 -59v270h1102q20 0 20 21v123q0 20 -20 20h-1243q-20 0 -21 -20v-574q0 -20 21 -20h123q10 0 12 2q51 78 281 78h411q305 0 305 -244 q0 -102 -19.5 -168t-64.5 -92q-33 -23 -105.5 -34t-189.5 -11h-268q-90 0 -149.5 5t-98.5 21q-61 23 -88.5 66t-29.5 106q0 16 -19 17h-125q-14 -1 -14 -17z" />
<glyph unicode="6" horiz-adv-x="1458" d="M86 446q0 -254 107 -354q92 -92 348 -92h417q106 0 185.5 13.5t130.5 47.5l2 5q137 82 137 270q0 238 -110 330q-94 86 -345 86h-426q-115 0 -174 -19q-35 -8 -61.5 -22.5t-46.5 -34.5v139q0 90 15.5 142.5t49.5 84.5q63 53 232 54h377q74 0 128 -9.5t91 -25.5 q53 -20 78.5 -63.5t25.5 -100.5q0 -18 17 -18h122q16 0 17 18q0 221 -178 303q-125 55 -363 55h-256q-133 0 -229 -21.5t-154 -59.5q-137 -106 -137 -361v-367zM250 348v53q0 186 246 187h501q250 0 250 -187v-53q0 -186 -254 -186h-501q-242 0 -242 186z" />
<glyph unicode="7" horiz-adv-x="1470" d="M37 1102q0 -20 18 -21h1188l-1030 -1050q-4 -4 -4 -6v-7q0 -18 14 -18h174q10 0 15 4l1077 1094q4 4 4 12v115q0 20 -20 20h-1418q-18 0 -18 -20v-123z" />
<glyph unicode="8" horiz-adv-x="1466" d="M84 389q0 -213 98 -301q88 -86 310 -86h509q205 0 310.5 82t105.5 244q0 78 -11 133t-34 94h-2q0 2 -2 2q-35 57 -102 82q74 27 112.5 90.5t38.5 155.5q0 205 -110 295q-98 76 -306 75h-509q-408 0 -408 -325q0 -72 10 -125t35 -92q23 -25 47.5 -44.5t54.5 -31.5 q-147 -58 -147 -248zM252 895q0 125 61 166q25 16 74 25.5t121 9.5h487q61 0 106.5 -8.5t74.5 -22.5q39 -16 57 -53t18 -88q0 -137 -75 -181q-27 -16 -79.5 -25t-129.5 -9h-437q-68 0 -119 7t-79 21q-80 41 -80 158zM252 334v45q0 117 80 158q59 29 198 28h437 q139 0 196 -28q2 -2 8 -2q80 -47 80 -156v-45q0 -109 -75 -144q-59 -27 -181 -26h-487q-61 0 -108.5 6t-73.5 20q-74 35 -74 144z" />
<glyph unicode="9" horiz-adv-x="1458" d="M78 915q0 -115 27.5 -196.5t87.5 -132.5q49 -39 134 -60.5t208 -21.5h426q111 0 169 14q72 18 115 60v-140q0 -166 -67 -223q-33 -27 -89.5 -41t-144.5 -14h-375q-147 0 -223 35q-51 23 -75.5 64.5t-26.5 98.5q0 16 -17 17h-125q-14 0 -14 -17q0 -221 182 -303 q111 -55 361 -55h254q272 0 381 82q139 104 139 358v367q0 256 -102 352q-98 94 -351 94h-417q-213 0 -318 -61l-4 -4q-135 -80 -135 -273zM246 854v53q0 186 252 187h501q246 0 246 -187v-53q0 -190 -248 -190h-501q-250 0 -250 190z" />
<glyph unicode=":" horiz-adv-x="196" d="M76 18q0 -18 14 -18h109q14 0 14 18v134q0 16 -14 16h-109q-14 0 -14 -16v-134zM76 641q0 -20 14 -20h109q14 0 14 20v129q0 20 -14 21h-109q-14 0 -14 -21v-129z" />
<glyph unicode=";" horiz-adv-x="204" d="M29 18q0 -20 18 -20h41v-72q0 -49 -39 -86v-8q0 -16 12 -16h58q27 20 37 45.5t10 64.5v224q0 16 -12 16h-107q-18 0 -18 -16v-132zM29 645q0 -18 18 -18h107q12 0 12 18v133q0 20 -12 21h-107q-18 0 -18 -21v-133z" />
<glyph unicode="&#x3c;" horiz-adv-x="534" d="M2 539q0 -12 10 -17h-2l467 -319h-2q4 -4 10 -4q18 0 19 18v131q0 4 -1 6t-1 4l-260 181l260 186l2 2v6v135q0 16 -19 17q-6 0 -10 -4h2l-467 -330h2q-10 -4 -10 -12z" />
<glyph unicode="=" horiz-adv-x="653" d="M90 301q0 -20 16 -20h529q14 0 14 20v117q0 16 -14 16h-529q-16 0 -16 -16v-117zM90 563q0 -16 16 -16h529q14 0 14 16v121q0 14 -14 14h-529q-16 0 -16 -14v-121z" />
<glyph unicode="&#x3e;" horiz-adv-x="559" d="M90 217q0 -18 16 -18q10 0 15 4h-2l471 323v2q2 2 2 11q0 2 -1 5t-1 5l-471 332h2q-4 4 -15 4q-16 0 -16 -17v-135q0 -8 2 -8l262 -186l-262 -181q-2 -2 -2 -10v-131z" />
<glyph unicode="?" horiz-adv-x="1384" d="M25 897q0 -18 18 -18h131q20 0 21 18q0 57 17 97t60 63v-2q31 12 82.5 20t118.5 8h463q156 0 213 -24q2 -2 6 -2q72 -43 72 -162q0 -72 -44 -115t-126 -55q-2 0 -2 -2q-88 -10 -171 -16.5t-169 -14.5q-199 -45 -199 -262v-119q0 -18 19 -18h135q14 0 14 18v103 q0 53 45 85.5t131 43.5l246 26q84 10 94 15q94 33 143.5 108.5t49.5 202.5q0 211 -129 295q-104 66 -328 65h-471q-440 0 -440 -358zM516 18q0 -18 19 -18h135q14 0 14 18v138q0 16 -14 16h-135q-18 0 -19 -16v-138z" />
<glyph unicode="@" horiz-adv-x="1097" d="M66 757q0 -222 139 -362q137 -139 360 -139q45 0 89 7t89 20q57 18 96.5 42.5t63.5 51.5q0 2 1 5t1 5t-1 4t-1 4l-45 60q0 -2 -6 -2h-8q-20 -29 -53 -47.5t-74 -32.5q-76 -18 -148 -19q-88 0 -161.5 28t-131.5 85q-115 119 -114 295q0 172 114 293q57 57 131 86.5 t162 29.5q182 0 293 -114q115 -104 115 -289q0 -35 -8 -66.5t-19 -56.5q-14 -31 -38.5 -47t-51.5 -16q-55 0 -55 73q0 29 3 70t11 90q2 10 3 20.5t3 19.5t3 18.5t3 19.5q2 43 13 84v4q0 18 -17 18h-61q-12 0 -12 -16v2l-13 -70q-31 45 -75.5 70t-110.5 25q-111 0 -197 -80 q-76 -80 -75 -201q0 -109 66.5 -176.5t170.5 -67.5q137 0 199 93q31 -92 133 -93q57 0 98 22.5t72 65.5q29 39 38 87.5t9 103.5q0 106 -32.5 196.5t-104.5 157.5q0 2 -1 3t-1 3q-143 137 -361 138q-111 0 -203 -33t-161 -107q-139 -143 -139 -365zM381 733q0 80 48 131 t124 51q68 0 102.5 -46t34.5 -111q0 -78 -46 -128t-122 -50q-61 0 -101 45t-40 108zM844 453q2 0 2 2z" />
<glyph unicode="A" horiz-adv-x="1499" d="M39 18q0 -18 18 -18h138h10v6v-2l145 289h828l147 -289l-2 2q2 -4 2 -6h12h144q16 0 16 18v2q0 4 -2 7v-2l-623 1216l-4 2q0 2 -6 2h-190q-8 0 -10 -4l-619 -1216v2q-4 -2 -4 -7v-2zM432 449l334 653l330 -653h-664z" />
<glyph unicode="B" horiz-adv-x="1503" d="M92 18q0 -18 19 -18h913q106 0 185 17.5t130 56.5q61 47 90 121.5t29 175.5q0 221 -149 293q92 76 92 262q0 319 -434 319h-856q-18 0 -19 -20v-1207zM252 729v352h764q113 0 170 -42t57 -134q0 -109 -65 -143q-43 -33 -160 -33h-766zM252 162v407h811q63 0 107 -9 t73 -28q59 -45 60 -161q0 -104 -56.5 -156.5t-177.5 -52.5h-817z" />
<glyph unicode="C" horiz-adv-x="1556" d="M84 684q0 -287 18 -383q16 -80 52 -136t92 -93q61 -39 154.5 -55.5t222.5 -16.5h446q213 0 317 70q125 90 125 288q0 6 -2 9l-10 6v2h-2h-125q-18 0 -18 -17v-6q0 -123 -80 -159q-68 -33 -207 -33h-457q-242 0 -311 78q-29 35 -43 118.5t-14 212.5q0 121 2 199t10 111 q20 123 96 168q41 20 113 34.5t180 14.5h424q285 0 285 -195v-4q0 -18 18 -18h125q14 0 14 18v4q0 178 -110.5 266t-331.5 88h-412q-332 0 -450 -116h2q-123 -121 -123 -455z" />
<glyph unicode="D" horiz-adv-x="1523" d="M92 18q0 -18 19 -18h825q168 0 277.5 31.5t162.5 91.5q51 55 74 166.5t23 279.5q0 139 -8.5 233.5t-16.5 151.5q-39 152 -168 222q-125 70 -379 69h-790q-18 0 -19 -20v-1207zM252 162v919h666q248 0 325 -75q72 -76 72 -334v-103q0 -94 -4 -160.5t-15 -99.5 q-20 -88 -92 -114q-70 -33 -254 -33h-698z" />
<glyph unicode="E" horiz-adv-x="1177" d="M94 18q0 -18 19 -18h1048q16 0 17 18v125q0 18 -17 19h-907v397h879q16 0 16 19v124q0 18 -16 19h-879v360h907q16 0 17 21v123q0 20 -17 20h-1048q-18 0 -19 -20v-1207z" />
<glyph unicode="F" horiz-adv-x="1140" d="M94 18q0 -18 19 -18h123q18 0 18 18v541h879q16 0 16 19v124q0 18 -16 19h-879v360h907q16 0 17 21v123q0 20 -17 20h-1048q-18 0 -19 -20v-1207z" />
<glyph unicode="G" horiz-adv-x="1564" d="M86 684q0 -145 4 -239.5t12 -143.5q16 -80 53.5 -136t92.5 -93q61 -39 154.5 -55.5t222.5 -16.5h442q106 0 183 15.5t126 50.5q96 68 121 204q6 41 10 121t4 197q0 6 -2 8l-10 10q0 2 -2 2h-715q-20 0 -20 -20v-121q0 -20 20 -21h566q0 -88 -14.5 -144t-37.5 -83 q-53 -59 -229 -59h-455q-244 0 -311 78q-59 76 -59 331q0 244 12 310q20 123 96 168q41 20 114 34.5t181 14.5h422q68 0 118 -10.5t83 -26.5q45 -23 64.5 -64t19.5 -98q0 -18 18 -18h125q14 0 14 18v4q0 178 -110.5 266t-331.5 88h-410q-334 0 -452 -116h2 q-121 -119 -121 -455z" />
<glyph unicode="H" horiz-adv-x="1495" d="M94 18q0 -18 19 -18h123q18 0 18 18v541h1020v-541q0 -18 16 -18h125q16 0 17 18v1207q0 20 -17 20h-125q-16 0 -16 -20v-504h-1020v504q0 20 -18 20h-123q-18 0 -19 -20v-1207z" />
<glyph unicode="I" horiz-adv-x="258" d="M76 18q0 -18 16 -18h96q14 0 15 18v1207q0 20 -15 20h-96q-16 0 -16 -20v-1207z" />
<glyph unicode="J" horiz-adv-x="1286" d="M6 422q0 -242 105 -336q100 -86 352 -86h321q121 0 206 25.5t136 72.5q53 51 81 139.5t28 206.5v781q0 20 -21 20h-124q-18 0 -19 -20v-838q0 -133 -78 -184q-35 -20 -87 -30.5t-122 -10.5h-321q-90 0 -146.5 11t-89.5 34q-63 55 -63 215q0 16 -19 16h-122q-17 0 -17 -16 z" />
<glyph unicode="K" horiz-adv-x="1443" d="M94 18q0 -18 19 -18h123q18 0 18 18v576h180l746 -594h206q16 0 17 18q0 6 2 7l-821 647l827 542v5q2 2 2 6q0 20 -18 20h-199l-766 -502h-176v482q0 20 -18 20h-123q-18 0 -19 -20v-1207z" />
<glyph unicode="L" horiz-adv-x="1101" d="M94 18q0 -18 19 -18h1007q18 0 19 18v125q0 18 -19 19h-866v1063q0 20 -18 20h-123q-18 0 -19 -20v-1207z" />
<glyph unicode="M" horiz-adv-x="1933" d="M94 18q0 -18 19 -18h127q18 0 18 18v1094h35l635 -1110l2 -2h6h84q10 0 14 4l641 1108h37v-1094q0 -18 19 -18h124q14 0 15 18v1207q0 20 -15 20h-266q-10 0 -14 -4l-594 -1016l-575 1018h-3q-2 2 -8 2h-282q-18 0 -19 -20v-1207z" />
<glyph unicode="N" horiz-adv-x="1503" d="M94 18q0 -18 19 -18h123q18 0 18 18v1094h39l942 -1106q2 -6 12 -6h176q18 0 19 18v1207q0 20 -19 20h-123q-20 0 -20 -20v-1037l-881 1049q-8 8 -14 8h-272q-18 0 -19 -20v-1207z" />
<glyph unicode="O" horiz-adv-x="1564" d="M86 678q0 -152 7 -254t24 -158q45 -154 174 -211q117 -55 416 -55h190q129 0 219 10t148 27v2q68 20 117 62t77 102q29 61 40 153.5t11 212.5q0 152 -7 254.5t-19 157.5q-23 78 -67 131t-107 82q-125 57 -412 57h-190q-262 0 -373 -39h-2q-70 -23 -118 -64.5t-79 -100.5 q-27 -59 -38 -151.5t-11 -217.5zM242 569v109q0 201 37 287q35 82 129 102q78 20 299 20h188q219 0 297 -20q96 -20 123 -102q23 -41 30 -114t7 -173v-109q0 -100 -7.5 -172.5t-29.5 -113.5q-29 -78 -125 -101q-78 -18 -295 -18h-188q-221 0 -297 18q-94 23 -131 101 q-37 85 -37 286z" />
<glyph unicode="P" horiz-adv-x="1329" d="M94 18q0 -18 19 -18h131q20 0 20 18v500h672q416 0 416 328q0 111 -26 187.5t-73 121.5q-47 47 -126.5 68.5t-190.5 21.5h-823q-18 0 -19 -20v-1207zM264 682v399h666q63 0 106 -7t72 -19q41 -20 58.5 -56t17.5 -88v-59q0 -51 -17.5 -89t-58.5 -56v2q-55 -27 -178 -27 h-666z" />
<glyph unicode="Q" horiz-adv-x="1611" d="M86 678q0 -152 7 -254t24 -158q39 -156 176 -211q59 -29 163.5 -42t250.5 -13h190q162 0 238 12q72 8 124 26.5t95 39.5l121 -76q2 0 4 -1t4 -1q10 0 10 2l72 111v-2q2 4 2 12q0 4 -1 5t-1 3l-107 70q55 127 55 368q0 152 -7 254.5t-23 157.5q-39 158 -172 213 q-123 57 -414 57h-190q-258 0 -371 -39h2q-72 -20 -120 -63t-81 -102q-27 -59 -39 -151.5t-12 -217.5zM242 569v109q0 201 37 287q35 82 129 102q80 20 299 20h188q219 0 297 -20q96 -20 123 -102q23 -41 31 -114t8 -173v-109q0 -100 -7.5 -170.5t-23.5 -109.5l-403 270h2 q-4 4 -13 4h-8l-2 -2l-72 -112q-4 -2 -4 -10.5t2 -8.5l373 -244q-51 -14 -125 -18t-178 -4h-188q-219 0 -297 18q-94 23 -131 101q-37 85 -37 286z" />
<glyph unicode="R" horiz-adv-x="1511" d="M94 18q0 -18 19 -18h125q18 0 18 18v541h799q76 0 128 -15.5t81 -47.5q20 -29 31.5 -73t11.5 -108q0 -20 -2 -56l-5 -87q-6 -102 -6 -154q0 -18 17 -18h135q12 0 12 18v353q0 55 -6 104t-25 88q-41 84 -112 115q45 31 66.5 90t21.5 143q0 334 -418 334h-872 q-18 0 -19 -20v-1207zM256 729v344h762q227 0 227 -168q0 -176 -235 -176h-754z" />
<glyph unicode="S" horiz-adv-x="1566" d="M82 905q0 -213 168 -291q123 -59 375 -59h51q33 0 74 2h24q8 0 14.5 1t10.5 1h35h30q37 2 62 2h47q94 0 164.5 -8t115.5 -29q106 -44 107 -162q0 -57 -15.5 -99t-54.5 -64q-31 -18 -76 -27.5t-110 -9.5h-565q-70 0 -120 9t-83 26q-45 23 -64.5 63.5t-21.5 99.5 q0 16 -19 17h-122q-16 0 -17 -17q0 -182 121 -276q102 -84 287 -84h608q104 0 180 16.5t123 55.5q106 88 107 286q0 213 -175 301q-68 29 -166 44.5t-231 15.5h-43q-29 0 -63 -2h-27q-6 0 -13 -1t-14 -1q-57 -2 -98 -2h-61q-186 0 -277 39q-109 43 -108.5 150.5t55.5 144.5 q23 14 63.5 24t102.5 10h600q135 0 201 -32q45 -23 65.5 -65t22.5 -99q0 -16 14 -17h129q12 0 12 17q0 360 -420 360h-620q-385 0 -385 -340z" />
<glyph unicode="T" horiz-adv-x="1325" d="M20 1102q0 -20 19 -21h561v-1063q0 -18 14 -18h125q18 0 19 18v1063h561q20 0 20 21v123q0 20 -20 20h-1280q-18 0 -19 -20v-123z" />
<glyph unicode="U" horiz-adv-x="1570" d="M90 569q0 -123 13.5 -215t39.5 -151q29 -59 77 -100.5t118 -63.5q2 -2 4 -2q57 -16 148.5 -26.5t222.5 -10.5h184q129 0 220 10t147 27q2 0 2 2q137 41 192 164q53 117 53 366v656q0 20 -16 20h-123q-20 0 -20 -20v-656q0 -102 -6.5 -173.5t-28.5 -112.5 q-29 -78 -123 -101q-78 -18 -297 -18h-184q-221 0 -297 18q-96 20 -131 101q-37 86 -37 286v656q0 20 -19 20h-123q-16 0 -16 -20v-656z" />
<glyph unicode="V" horiz-adv-x="1480" d="M37 1227q0 -8 4 -13v5l618 -1215q4 -4 11 -4h176q8 0 12 4l619 1215v-5q4 4 4 13q0 6 -5.5 12t-15.5 6h-141q-8 0 -8 -4l-549 -1069h-10l-545 1067q-2 2 -1 4t-9 2h-142q-8 0 -13 -6t-5 -12zM207 1239h2l-2 2v-2z" />
<glyph unicode="W" horiz-adv-x="2301" d="M63 1219l490 -1207q2 -12 16 -12h195q10 0 24 25l379 1009l387 -1009q14 -25 23 -25h184q12 0 17 12l495 1207v6q0 20 -16 20h-146q-10 0 -22 -31l-420 -1050l-407 1053q-12 29 -23 28h-145q-10 0 -25 -28l-405 -1053l-414 1050q-14 31 -25 31h-143q-18 0 -19 -20v-6z " />
<glyph unicode="X" horiz-adv-x="1611" d="M74 18q0 -18 14 -18h172q8 0 12 6l551 561l563 -563q0 -4 5 -4h8h164q16 0 16 18v7q0 2 -4 6l-617 626l543 555q4 2 4 7v6q0 20 -14 20h-168q-10 0 -12 -4l-486 -500l-493 500q-2 4 -6 4h-7h-172q-20 0 -20 -20v-6q0 -4 4 -7l551 -555l-606 -626q-2 -4 -2 -6v-7z" />
<glyph unicode="Y" horiz-adv-x="1425" d="M27 1219q0 -4 4 -7l616 -628v-566q0 -18 17 -18h133q16 0 16 18v566l617 628q4 2 4 7v6q0 20 -17 20h-174q-10 0 -14 -4l-500 -512l-500 512q-2 4 -6 4h-6h-170q-20 0 -20 -20v-6z" />
<glyph unicode="Z" horiz-adv-x="1294" d="M59 18q0 -18 15 -18h1181q18 0 19 18v125q0 18 -19 19h-915l930 954q4 2 4 6v8v95q0 20 -19 20h-1181q-14 0 -15 -20v-123q0 -20 15 -21h925l-938 -952q-2 -4 -2 -12v-99z" />
<glyph unicode="[" horiz-adv-x="315" d="M88 -174q0 -20 12 -21l222 -2q16 0 16 21v61q0 20 -16 21l-101 2v1358h94q16 0 17 20v66q0 14 -17 14h-215q-12 0 -12 -14v-1526z" />
<glyph unicode="\" horiz-adv-x="516" d="M14 1288l363 -1423q8 -20 18 -21h125q18 0 19 21v4l-365 1421q-2 6 -7 11.5t-9 5.5h-131q-12 0 -13 -17v-2z" />
<glyph unicode="]" horiz-adv-x="317" d="M14 -115v-61q0 -20 11 -21l221 2q18 0 18 21v1526q0 14 -18 14h-215q-14 0 -15 -14v-66q0 -20 15 -20h96v-1358l-102 -2q-11 -1 -11 -21z" />
<glyph unicode="^" horiz-adv-x="626" d="M37 698q0 -14 18 -14h51q10 0 13 2l209 309l215 -309q0 -2 8 -2h57q12 0 13 14q0 8 -5 13v-4l-245 436l-2 2h-4h-68h-6l-2 -2l-248 -436v4q-4 -5 -4 -13z" />
<glyph unicode="_" horiz-adv-x="835" d="M94 14v-45q0 -14 15 -14h649q18 0 18 14v45q0 10 -18 11h-649q-15 -1 -15 -11z" />
<glyph unicode="`" horiz-adv-x="342" d="M16 1096q0 -10 2 -11l271 -178h-2q4 -2 10 -2q8 0 12 2h-2l43 37q6 6 6 14.5t-6 12.5l-246 217h2q-4 2 -12 2q-4 0 -4 2l-72 -86v2q0 -2 -1 -5t-1 -7zM90 1192l2 4z" />
<glyph unicode="a" horiz-adv-x="1116" d="M74 274q0 -274 243 -274h480q84 0 136 16.5t80.5 63.5t40 131t17.5 217v180v33q0 18 -2 37l2 27q0 188 -82 272t-229 86h-352q-57 0 -111.5 -15.5t-93.5 -48.5q-94 -80 -94 -227v-22q0 -20 16 -21h115q16 0 16 21q0 152 170 151h322q70 0 114 -45q4 -4 6 -4 q41 -47 45 -147l2 -27h-469q-111 0 -183.5 -13.5t-114.5 -47t-58 -93t-16 -151.5v-99zM213 293v78q0 90 51 110q23 20 94 21h560q0 -18 -1.5 -58.5t-5.5 -109.5q0 -172 -149 -172h-404q-145 0 -145 131z" />
<glyph unicode="b" horiz-adv-x="1054" d="M84 356q4 -51 12 -88t17.5 -65.5t24 -50t30.5 -39.5q47 -63 117.5 -88t144.5 -25h295q338 0 338 422v231q0 207 -91 315.5t-247 108.5h-295q-68 0 -119 -20.5t-84 -57.5v476q0 18 -18 18h-111q-14 0 -14 -18v-1119zM225 422v231q0 61 15.5 110.5t48.5 82.5q29 31 67.5 48 t83.5 17h244q233 0 234 -258v-231q0 -147 -64 -205q-27 -29 -70 -42t-100 -13h-244q-96 0 -151 61q-33 33 -48.5 84.5t-15.5 114.5z" />
<glyph unicode="c" horiz-adv-x="1103" d="M74 397q0 -397 321 -397h340q334 0 334 379v8l-10 8l-2 2h-2h-111q-16 0 -16 -18v-4q0 -213 -193 -213h-340q-78 0 -126 64.5t-48 170.5v258q0 123 44 186.5t141 63.5h329q193 0 193 -215v-2q0 -20 16 -20h111q14 0 14 20q0 188 -94 289q-86 88 -240 88h-329 q-139 0 -240 -109q-47 -55 -69.5 -128.5t-22.5 -172.5v-258z" />
<glyph unicode="d" horiz-adv-x="1052" d="M25 422v231q0 207 91 315.5t246 108.5h297q135 0 203 -78v476q0 18 15 18h112q18 0 19 -18v-1119q-6 -51 -15.5 -88t-19.5 -65.5t-22.5 -50t-30.5 -39.5q-43 -63 -115 -88t-146 -25h-297q-337 0 -337 422zM168 422q0 -150 65 -205q51 -55 170 -55h244q51 0 86 15.5 t68 45.5q63 66 63 199v231q0 127 -63 193q-33 31 -70 48t-84 17h-244q-236 0 -235 -258v-231z" />
<glyph unicode="e" horiz-adv-x="1110" d="M74 401q0 -401 342 -401h368q123 0 199 82q45 45 65.5 105.5t20.5 136.5v125q0 18 -33 18h-30h-29q-16 0 -41 -4v-86q0 -117 -40 -166t-128 -49h-356q-190 0 -191 258v100h832q16 0 16 21v149q0 86 -26.5 160t-79.5 125q-47 43 -104.5 66.5t-131.5 23.5h-315 q-141 0 -242 -111q-96 -119 -96 -305v-248zM221 684q2 94 50 157.5t122 63.5h348q76 0 128.5 -60.5t58.5 -160.5h-707z" />
<glyph unicode="f" horiz-adv-x="593" d="M82 18q0 -18 12 -18h107q18 0 18 18v877h393q16 0 17 16v146q0 18 -17 18h-393q0 76 12.5 124t34.5 71q16 23 44 31t75 8h25q14 0 35.5 -2t37.5 -2h31h6l92 159v-4q2 4 2 13q0 18 -16 18h-240q-276 0 -276 -428v-1045z" />
<glyph unicode="g" horiz-adv-x="1103" d="M72 403q0 -403 338 -403h309q137 0 194 72v-127q0 -223 -200 -224h-285q-33 0 -61.5 7.5t-49.5 19.5h2q-57 31 -57 105q0 18 -16 18h-121q-16 0 -16 -18q0 -74 26.5 -132.5t77.5 -97.5q84 -63 205 -63h301q158 0 244 75q49 45 71.5 122t22.5 184v772q-2 100 -31 169.5 t-75 111.5t-106.5 60.5t-129.5 18.5h-318q-326 0 -325 -428v-242zM217 422v209q0 82 16.5 137t42.5 90q49 53 170 53h252q219 0 220 -290v-199q0 -129 -60.5 -194.5t-159.5 -65.5h-252q-229 0 -229 260z" />
<glyph unicode="h" horiz-adv-x="1064" d="M86 18q0 -18 14 -18h119q16 0 17 18v633q0 123 54 193.5t148 70.5h287q88 0 144.5 -71.5t56.5 -192.5v-633q0 -18 16 -18h113q14 0 14 18v633q0 104 -24.5 181t-69.5 135q-90 106 -250 106h-319q-72 0 -105 -11t-63 -52v465q0 18 -17 18h-121q-14 0 -14 -18v-1457z" />
<glyph unicode="i" horiz-adv-x="198" d="M55 18q0 -18 15 -18h86q12 0 12 18v1039q0 16 -12 16h-86q-14 0 -15 -16v-1039zM55 1325q0 -20 15 -20h86q12 0 12 20v150q0 18 -12 18h-86q-14 0 -15 -18v-150z" />
<glyph unicode="j" horiz-adv-x="290" d="M4 -276v-154q0 -16 14 -16q246 0 246 321v1188q0 14 -18 14h-101q-16 0 -16 -14v-1159q0 -164 -111 -164q-14 0 -14 -16zM129 1329q0 -16 16 -16h101q18 0 18 16v152q0 18 -18 18h-101q-16 0 -16 -18v-152z" />
<glyph unicode="k" horiz-adv-x="892" d="M86 25q0 -16 14 -17h105q16 0 16 17v526h148l383 -547q0 -2 8 -2h145q16 0 17 16q0 8 -4 13v-2l-431 614l381 404v-3q2 2 2 13q0 4 -4 10t-10 6h-156h-8q-4 0 -8 -4l-319 -336h-144v742q0 20 -14 20h-107q-14 0 -14 -20v-1450z" />
<glyph unicode="l" horiz-adv-x="225" d="M66 18q0 -18 16 -18h84q12 0 12 18v1457q0 18 -12 18h-84q-16 0 -16 -18v-1457z" />
<glyph unicode="m" horiz-adv-x="2004" d="M86 27q0 -14 12 -15h129q16 0 17 15q0 31 -2 85t-6.5 129.5t-5.5 133t-1 96.5q0 104 11.5 180t38.5 133q29 66 82 95.5t126 29.5h232q16 0 37.5 -4t50.5 -14q51 -18 106 -92q31 -39 36 -90.5t5 -130.5v-551q0 -14 17 -15h110q18 0 19 15q-2 16 -2 131v329q0 113 4 185.5 t26 120.5q63 117 222 116h225q72 0 122 -28.5t79 -89.5q53 -104 53 -310q0 -37 -4 -94l-6 -135q-6 -80 -8.5 -136.5t-2.5 -88.5q0 -14 19 -15h115q14 0 14 15v663q0 88 -30 161t-83 128q-102 94 -244 94h-284q-57 0 -102.5 -9t-79.5 -36q-66 -35 -103 -123q-23 39 -48.5 70 t-59.5 51q-4 0 -4 2q-35 27 -80 36t-105 9h-262q-88 0 -159.5 -32.5t-122 -92t-77 -139.5t-26.5 -174v-608z" />
<glyph unicode="n" horiz-adv-x="1112" d="M80 18q0 -18 16 -18h111q18 0 18 18v619q0 123 59.5 193.5t145.5 70.5h289q90 0 146.5 -69.5t56.5 -194.5v-619q0 -18 16 -18h111q16 0 16 18v596q0 219 -91 334t-255 115h-289q-164 0 -257 -117t-93 -330v-598z" />
<glyph unicode="o" horiz-adv-x="1110" d="M74 418q0 -418 348 -418h303q162 0 253 105.5t91 312.5v227q0 104 -21.5 183t-70.5 133q-92 104 -252 104h-303q-82 0 -144.5 -26.5t-111.5 -75.5q-92 -106 -92 -318v-227zM221 418v227q0 260 213 260h281q213 0 213 -258v-229q0 -258 -213 -258h-281q-213 0 -213 258z " />
<glyph unicode="p" horiz-adv-x="1056" d="M84 -401q0 -16 14 -17h111q18 0 18 17v467q72 -66 197 -66h295q160 0 253 106.5t93 315.5v231q0 207 -92 320q-92 104 -254 104h-295q-74 0 -140.5 -25.5t-111.5 -78.5q-51 -59 -67.5 -127t-20.5 -174v-1073zM223 422v231q0 129 51.5 193.5t161.5 64.5h277 q209 0 209 -258v-231q0 -260 -209 -260h-277q-111 0 -162 63.5t-51 196.5z" />
<glyph unicode="q" horiz-adv-x="1056" d="M25 422q0 -205 94 -320q45 -49 107.5 -75.5t142.5 -26.5h297q59 0 109 15.5t87 50.5v-467q0 -16 17 -17h112q16 0 17 17v1044q-2 35 -4 66q-2 43 -5.5 77.5t-11.5 65.5t-21.5 60.5t-37.5 62.5q-43 55 -115 78.5t-147 23.5h-297q-158 0 -250 -104q-94 -115 -94 -320v-231z M166 422v231q0 258 213 258h276q213 0 213 -258v-231q0 -260 -213 -260h-276q-213 0 -213 260z" />
<glyph unicode="r" horiz-adv-x="1032" d="M82 18q0 -18 14 -18h111q18 0 18 18v627q0 129 51.5 194.5t161.5 65.5h273q209 0 209 -260q0 -20 16 -20h111q16 0 16 20q0 207 -94 316q-92 104 -250 104h-363q-63 0 -127.5 -46t-105.5 -132v-6q-2 -2 -2 -4q-10 -20 -24.5 -79t-14.5 -151v-629z" />
<glyph unicode="s" horiz-adv-x="1103" d="M76 348q0 -190 53 -268q31 -39 85 -57.5t124 -18.5h416q281 0 280 266q0 104 -26.5 181t-83.5 122q-41 35 -101.5 58.5t-144.5 23.5q-35 2 -65.5 2t-61.5 2q-102 4 -156.5 4.5t-54.5 4.5q-10 4 -21 4q-29 2 -48 3t-31.5 7t-16.5 18.5t-4 38.5q0 96 25.5 131t93.5 35h418 q86 0 116 -33q12 -14 20.5 -53t8.5 -96q0 -18 14 -18h107q16 0 16 18q0 188 -73 274q-68 68 -226 68h-391q-104 0 -184 -57q-86 -80 -86 -215q0 -100 21.5 -174t82.5 -97q45 -16 105.5 -20t126.5 -4h63q70 0 143.5 -5.5t135 -22.5t101.5 -51t40 -91q0 -98 -35 -131t-110 -33 h-402q-41 0 -68.5 6t-37.5 27q-25 33 -25 151q0 18 -18 19h-109q-16 -1 -16 -19z" />
<glyph unicode="t" horiz-adv-x="917" d="M55 901q0 -20 17 -20h75q0 -27 -1 -65t-5 -95q-6 -123 -6 -193q0 -240 55 -360q33 -84 92.5 -126t151.5 -42h219q55 0 102.5 15.5t84.5 50.5q51 45 73.5 100t22.5 129q0 6 -2 6l-6 10q-2 2 -8 2h-119q-16 0 -17 -18q0 -74 -47 -105q-39 -27 -90 -26h-213q-74 0 -107.5 53 t-33.5 166v498h547q20 0 20 20v152q0 16 -20 16h-547v182q0 14 -17 15h-110q-18 0 -19 -15v-182h-75q-16 0 -17 -16v-152z" />
<glyph unicode="u" horiz-adv-x="1110" d="M80 446v601q0 16 16 16h113q18 0 18 -16v-619q0 -123 58.5 -192.5t144.5 -69.5h289q90 0 146.5 69.5t56.5 192.5v619q0 16 16 16h111q16 0 16 -16v-596q0 -221 -91 -335t-255 -114h-289q-164 0 -257 116.5t-93 327.5z" />
<glyph unicode="v" horiz-adv-x="1015" d="M35 1038l393 -1013q14 -25 25 -25h145q10 0 23 27l395 1011v9q0 16 -15 16h-127q-8 0 -20 -29l-330 -833l-327 833q-14 29 -25 29h-119q-18 0 -18 -16v-9z" />
<glyph unicode="w" horiz-adv-x="1921" d="M57 1038l406 -1011q10 -27 20 -27h148q12 0 22 27l328 821l326 -821q12 -27 24 -27h148q10 0 22 27l404 1011v9q0 16 -19 16h-127q-8 0 -20 -29l-338 -837l-332 837q-12 29 -22 29h-138q-8 0 -22 -29l-332 -833l-334 833q-14 29 -24 29h-123q-16 0 -17 -16v-9z" />
<glyph unicode="x" horiz-adv-x="1069" d="M59 18q0 -18 19 -18h141l330 449l330 -449h147q16 0 16 18q0 6 -4 11v-2l-395 548l338 459v-2q2 4 2 15q0 16 -18 16h-140l-274 -373l-275 373h-143q-14 0 -14 -16q0 -10 4 -15v2l340 -459l-400 -548v2q-4 -5 -4 -11z" />
<glyph unicode="y" horiz-adv-x="1017" d="M55 1049l402 -1031q-20 -57 -49 -101t-60 -85q-74 -84 -151 -84q-18 0 -19 -18v-152q0 -18 19 -18q254 0 436 452l403 1037v8q0 16 -16 16h-123q-8 0 -25 -26l-329 -844l-324 844q-12 27 -24 26h-123q-16 0 -17 -16v-8z" />
<glyph unicode="z" horiz-adv-x="940" d="M66 18q0 -18 18 -18h805q18 0 18 18v127q0 16 -18 17h-598l616 760v125q0 16 -18 16h-801q-16 0 -16 -16v-132q0 -14 16 -14h594l-616 -760v-123z" />
<glyph unicode="{" horiz-adv-x="403" d="M18 549q109 -84 109 -313v-78v-76q0 -76 9 -129t34 -86q59 -98 215 -98q2 0 6 4l10 10v100q0 20 -16 21q-47 0 -73.5 11t-41.5 32q-12 23 -19 54.5t-7 78.5v22q0 14 2 33v21q0 4 1 9t1 9q2 39 3 63.5t1 41.5q0 92 -23.5 162.5t-68.5 111.5q94 82 94 268q0 20 -1 47t-5 66 q-2 39 -3 64.5t-1 41.5q0 88 26 134q29 47 113 47q18 0 18 18v98q0 14 -18 15q-158 0 -213 -95q-25 -33 -34 -88t-9 -129v-79v-80q0 -229 -109 -316v-16z" />
<glyph unicode="|" horiz-adv-x="219" d="M72 -215q0 -16 14 -16h68q12 0 12 16v1528q0 14 -12 14h-68q-14 0 -14 -14v-1528z" />
<glyph unicode="}" horiz-adv-x="403" d="M37 -117v-96q0 -18 18 -18q152 0 213 96q43 66 43 215v31q0 18 -2 45.5t-2 48.5v33q0 227 105 307q4 4 4 6v12q0 2 -4 6q-104 82 -105 312v32q0 20 2 48t2 47v32q0 152 -43 217q-55 94 -211 95q-18 0 -18 -15v-98q0 -18 18 -18q80 0 111 -47q27 -43 27 -134v-41 q0 -27 -4.5 -65.5t-5.5 -65t-1 -47.5q0 -188 92 -268q-45 -41 -67.5 -112.5t-22.5 -161.5v-29q0 -16 2 -37v-16q0 -4 1 -10.5t1 -12.5q4 -33 5 -57v-37q0 -47 -7.5 -79t-19.5 -54q-31 -43 -113 -43q-18 -1 -18 -21z" />
<glyph unicode="~" horiz-adv-x="849" d="M74 530q0 -16 16 -16h111q4 0 10 2t8 10q14 63 82 64q53 0 121 -37h-2q41 -23 78 -32t75 -9q45 0 82 9t70 34q39 20 60.5 53t25.5 70q0 8 -2 10l-10 4q-2 2 -6 2h-111q-4 0 -10 -4t-6 -8v2q-16 -61 -93 -61q-41 0 -102 34q-39 23 -77 32t-77 9q-94 0 -159.5 -43 t-83.5 -120v-5z" />
<glyph unicode="&#xad;" d="M90 369q0 -14 16 -15h529q14 0 14 15v98q0 14 -14 14h-529q-16 0 -16 -14v-98z" />
<glyph unicode="&#x178;" horiz-adv-x="1394" d="M14 1231q0 -8 4 -12l613 -633v-568q0 -18 16 -18h133q16 0 17 18v568l618 633q4 4 4 12q0 4 -5 11t-13 7h-174h-8q-4 0 -9 -4l-495 -512l-498 512q-4 4 -12 4h-176q-8 0 -11.5 -7t-3.5 -11zM510 1317q0 -18 18 -19h113q16 0 16 19v115q0 16 -16 16h-113q-18 0 -18 -16 v-115zM774 1317q0 -18 19 -19h112q12 0 13 19v115q0 16 -13 16h-112q-18 0 -19 -16v-115z" />
<glyph unicode="&#x2c6;" horiz-adv-x="628" d="M39 883q0 -6 12 -13h-2q6 -4 22.5 -4t54.5 12.5t89 41.5q6 4 13.5 7t13.5 7l18 12l16 8l23 13l20 10q4 0 13 4l221 -113h57q12 0 13 15q0 8 -9 16l-243 219h-80l-246 -219q-6 -6 -6 -16z" />
<glyph unicode="&#x2dc;" horiz-adv-x="847" d="M72 895q0 -16 16 -16h111q14 0 18 14q14 61 82 61q25 0 56.5 -9t62.5 -27q78 -41 153 -41q43 0 85 12t74 33.5t53.5 53.5t25.5 71l-2 2q0 2 -2 4l-10 8h-113q-4 0 -10 -5t-8 -9v2q-8 -31 -30 -46.5t-63 -15.5q-18 0 -43.5 10.5t-54.5 26.5q-37 23 -77 31t-81 8 q-92 0 -157.5 -44t-85.5 -120v-4z" />
<glyph unicode="&#x2000;" horiz-adv-x="749" />
<glyph unicode="&#x2001;" horiz-adv-x="1499" />
<glyph unicode="&#x2002;" horiz-adv-x="749" />
<glyph unicode="&#x2003;" horiz-adv-x="1499" />
<glyph unicode="&#x2004;" horiz-adv-x="499" />
<glyph unicode="&#x2005;" horiz-adv-x="374" />
<glyph unicode="&#x2006;" horiz-adv-x="249" />
<glyph unicode="&#x2007;" horiz-adv-x="249" />
<glyph unicode="&#x2008;" horiz-adv-x="186" />
<glyph unicode="&#x2009;" horiz-adv-x="299" />
<glyph unicode="&#x200a;" horiz-adv-x="81" />
<glyph unicode="&#x2010;" d="M90 369q0 -14 16 -15h529q14 0 14 15v98q0 14 -14 14h-529q-16 0 -16 -14v-98z" />
<glyph unicode="&#x2011;" d="M90 369q0 -14 16 -15h529q14 0 14 15v98q0 14 -14 14h-529q-16 0 -16 -14v-98z" />
<glyph unicode="&#x2012;" d="M90 369q0 -14 16 -15h529q14 0 14 15v98q0 14 -14 14h-529q-16 0 -16 -14v-98z" />
<glyph unicode="&#x2013;" horiz-adv-x="960" d="M94 369q0 -14 19 -15h768q18 0 18 15v98q0 14 -18 14h-768q-18 0 -19 -14v-98z" />
<glyph unicode="&#x2014;" horiz-adv-x="1499" d="M94 369q0 -14 19 -15h1308q16 0 17 15v98q0 14 -17 14h-1308q-18 0 -19 -14v-98z" />
<glyph unicode="&#x2018;" horiz-adv-x="229" d="M74 897q0 -18 14 -18h107q14 0 14 18v123q0 16 -14 16h-43v68q0 41 41 80v8q0 4 -5.5 10t-13.5 6h-53q-47 -41 -47 -104v-207z" />
<glyph unicode="&#x2019;" horiz-adv-x="231" d="M49 1010q0 -16 12 -17h39v-65q0 -20 -9 -42t-30 -42q4 2 5 -4q0 -4 3 -10.5t11 -6.5h55q49 37 49 105v207q0 8 -6 13t-8 5h-109q-12 0 -12 -18v-125z" />
<glyph unicode="&#x201a;" horiz-adv-x="231" d="M49 147q0 -18 12 -18h39v-68q0 -23 -8 -40t-29 -39q2 0 3 -5q0 -18 14 -18h55q49 37 49 102v209q0 4 -6 9.5t-8 5.5h-109q-12 0 -12 -15v-123z" />
<glyph unicode="&#x201c;" horiz-adv-x="555" d="M90 897q0 -18 14 -18h125q18 0 19 18v123q0 16 -19 16h-49v68q0 45 49 80v8q0 16 -18 16h-66q-31 -18 -43 -44.5t-12 -59.5v-207zM350 897q0 -18 17 -18h125q16 0 16 18v123q0 16 -16 16h-52v68q0 45 41 74h-2q6 4 6 14q0 4 -4 10t-8 6h-67q-55 -37 -56 -104v-207z" />
<glyph unicode="&#x201d;" horiz-adv-x="552" d="M78 1010q0 -16 16 -17h49v-65q0 -45 -47 -82q2 0 2 -6q0 -4 3 -10.5t14 -6.5h65q57 35 58 105v207q0 18 -17 18h-127q-16 0 -16 -18v-125zM338 1010q0 -16 16 -17h52v-65q0 -45 -48 -82v-8q0 -14 17 -15h65q57 35 58 105v207q0 18 -17 18h-127q-16 0 -16 -18v-125z" />
<glyph unicode="&#x201e;" horiz-adv-x="552" d="M78 147q0 -18 16 -18h49v-68q0 -37 -47 -79q2 0 2 -5q0 -18 17 -18h67q55 35 56 102v209q0 14 -17 15h-127q-16 0 -16 -15v-123zM338 147q0 -18 16 -18h52v-68q0 -23 -12.5 -40t-35.5 -39v-5q0 -18 17 -18h65q57 33 58 102v209q0 14 -17 15h-127q-16 0 -16 -15v-123z" />
<glyph unicode="&#x2020;" horiz-adv-x="266" d="M8 958q0 -8 4 -12t8 -4h93v-711q0 -18 14 -18h41q16 0 16 18v711h90q16 0 17 16v50q0 18 -17 18h-90v268q0 16 -16 17h-41q-14 0 -14 -17v-268h-93q-4 0 -8 -5t-4 -13v-50z" />
<glyph unicode="&#x2021;" horiz-adv-x="270" d="M10 676q0 -18 13 -19h92v-489q0 -16 12 -16h43q16 0 16 16v489h90q16 0 17 19v49q0 16 -17 16h-90v193h90q16 0 17 18v45q0 16 -17 17h-90v282q0 18 -16 19h-43q-12 0 -12 -19v-282h-92q-12 0 -13 -17v-45q0 -18 13 -18h92v-193h-92q-12 0 -13 -16v-49z" />
<glyph unicode="&#x2022;" horiz-adv-x="675" d="M66 486.5q0 -117.5 79 -210.5q84 -86 209 -86q117 0 197 80q4 0 8 2q88 94 88 213t-88 207q-2 2 -8 2q-82 86 -197 86q-123 0 -209 -90q-79 -86 -79 -203.5z" />
<glyph unicode="&#x2026;" horiz-adv-x="1230" d="M94 16q0 -16 19 -16h133q18 0 18 16v109q0 14 -18 14h-133q-18 0 -19 -14v-109zM549 16q0 -16 18 -16h129q18 0 19 16v109q0 14 -19 14h-129q-18 0 -18 -14v-109zM1004 16q0 -16 14 -16h133q16 0 16 16v109q0 14 -16 14h-133q-14 0 -14 -14v-109z" />
<glyph unicode="&#x202f;" horiz-adv-x="299" />
<glyph unicode="&#x2030;" horiz-adv-x="2816" d="M63 885q0 -248 62 -328q37 -45 119 -67.5t211 -22.5q131 0 215 9t125 38q113 68 112 309q0 127 -14 209t-47 123q-82 92 -330 92q-256 0 -342 -51q-111 -67 -111 -311zM205 817v68q0 158 45 190q41 31 205 31h61q86 0 134 -7t69 -24q43 -35 43 -190v-62q0 -76 -9.5 -125 t-33.5 -67q-20 -12 -68.5 -18.5t-136.5 -6.5h-59q-162 0 -203 25q-27 18 -37 66t-10 120zM756 -35v-4q0 -18 14 -18h105q10 0 20 18l352 1325q0 6 -4 11.5t-10 5.5h-107q-4 0 -10 -5l-10 -10zM1094 422q0 -258 63 -332q41 -45 121 -67.5t211 -22.5q258 0 338 51 q57 31 86 109t29 196q0 252 -66 334q-76 88 -328 88q-131 0 -214 -10t-124 -37q-116 -67 -116 -309zM1239 352v70q0 80 8 126t33 66q20 10 70.5 18.5t138.5 8.5h59q84 0 135.5 -9t71.5 -20q39 -35 39 -190v-66q0 -152 -41 -186q-45 -31 -207 -31h-57q-86 0 -136 8.5 t-73 20.5q-41 34 -41 184zM1970 422q0 -129 14.5 -211t49.5 -121q35 -45 118.5 -67.5t206.5 -22.5q131 0 215 12.5t125 38.5q57 31 87 109t30 196q0 250 -63 334q-80 88 -330 88q-131 0 -216 -10t-124 -37q-53 -33 -83 -109.5t-30 -199.5zM2109 352v70q0 152 48 192 q18 10 68 18.5t134 8.5h64q84 0 136 -9t69 -20q43 -39 43 -190v-66q0 -78 -12.5 -123t-32.5 -63q-37 -31 -203 -31h-64q-82 0 -132 8.5t-68 20.5q-50 37 -50 184z" />
<glyph unicode="&#x2039;" horiz-adv-x="462" d="M4 492q0 -14 6 -15l326 -346q4 -4 14 -4q8 0 12 4l56 57q2 4 2 14.5t-2 14.5v-2l-262 277l266 280v-2q4 4 4 16v9q0 4 -4 6l-53 55q-4 4 -14.5 4t-14.5 -6l-330 -348q-6 -4 -6 -14z" />
<glyph unicode="&#x203a;" horiz-adv-x="462" d="M68 786q0 -10 4 -14v2l266 -282l-260 -275v2q-4 -4 -4 -12q0 -14 6 -17l55 -55h-2q2 -6 14 -6q6 0 11 6l327 342v15v14v-2l-333 350q-4 6 -14.5 6t-12.5 -4h2l-53 -53q-6 -5 -6 -17z" />
<glyph unicode="&#x205f;" horiz-adv-x="374" />
<glyph unicode="&#x2122;" horiz-adv-x="626" d="M47 1239q0 -18 16 -18h72v-246q0 -16 21 -17h20q18 0 19 17v246h73q16 0 17 18v18q0 18 -17 19h-205q-16 0 -16 -19v-18zM242 979q0 -18 18 -18h21q4 0 10 4t6 10l33 151l67 -168q6 -10 16.5 -10t16.5 10l68 168l30 -151q4 -14 17 -14h22q16 0 17 18v4l-64 287 q-4 10 -12 10q-10 0 -23 -27l-71 -182l-68 182q-14 27 -24.5 27t-14.5 -10l-65 -287v-4z" />
<glyph unicode="&#xe000;" horiz-adv-x="1065" d="M0 1065h1065v-1065h-1065v1065z" />
<glyph unicode="&#xe001;" horiz-adv-x="178" />
<glyph unicode="&#xe002;" horiz-adv-x="178" />
<glyph horiz-adv-x="1552" d="M137 659q0 168 103.5 275.5t273.5 107.5q96 0 180 -50t117 -50q49 0 126 51t169 51q76 0 154 -32q96 -39 112 -103q-158 -117 -158 -266q0 -96 55.5 -175t145.5 -103q-162 -389 -389 -390q-70 0 -124 48.5t-95 48.5q-45 0 -95 -47.5t-114 -47.5q-168 0 -324 265 q-137 237 -137 417zM780 1053q0 86 79 174t163 88q20 0 20 -17q0 -90 -75 -182q-76 -98 -162 -98q-25 0 -25 35z" />
</font>
</defs>
</svg>
