<?xml version="1.0" standalone="no"?>
<!DOCTYPE svg PUBLIC "-//W3C//DTD SVG 1.1//EN" "http://www.w3.org/Graphics/SVG/1.1/DTD/svg11.dtd" >
<svg xmlns="http://www.w3.org/2000/svg">
<metadata>
This is a custom SVG webfont generated by Font Squirrel.
Copyright   :  1987 1990 1994 2001 2002 Adobe Systems Incorporated All rights reserved
Designer    : Robert E Smith
Foundry     : Adobe Systems Incorporated
Foundry URL : httpwwwadobecomtype
</metadata>
<defs>
<font id="BrushScriptStdMedium" horiz-adv-x="1538" >
<font-face units-per-em="2048" ascent="1399" descent="-649" />
<missing-glyph horiz-adv-x="925" />
<glyph unicode="fi" horiz-adv-x="1572" d="M-233 -354q0 43 9 94t21.5 90t37.5 100l38 90q12 29 44 94.5t40 78.5q-80 86 -80 155q0 20 3 34.5t8 28.5l10 23q4 10 17 20.5t17.5 17.5t22.5 16.5t23.5 13.5t26.5 15l26 13q111 61 184.5 149.5t146.5 221.5l103 186l147 251q92 153 177 249t135 96q66 0 65 -120 q0 -76 -46 -195t-95 -186l-510 -711q23 -14 41 -31.5t33.5 -43t23.5 -41t24.5 -53.5t18.5 -46l338 209q59 186 211 330.5t258 144.5q119 0 119 -76q0 -90 -133 -234.5t-250 -223.5q-5 -27 -5 -50q0 -122 148 -123q53 0 111.5 27t97.5 53.5t101.5 76.5t85.5 67l24 -103 q-125 -154 -277.5 -274.5t-291.5 -120.5q-111 0 -172.5 102.5t-61.5 221.5q0 14 2 16l-6 6q-133 -123 -252 -180q5 -23 5 -69q0 -34 -3 -81q-16 -223 -223 -425.5t-379 -227.5q-6 -1 -12 -1q-49 0 -84 58q-39 66 -51 138t-12 129zM6 -213q-3 -19 -2 -39q0 -94 55 -203 q131 86 209 233q63 118 63 239q0 29 -3 57q-25 -2 -49 -2q-87 0 -148 24q-113 -188 -125 -309zM1323 1112q0 82 78 145.5t160 63.5q39 0 64.5 -24.5t25.5 -59.5q0 -84 -66.5 -164t-150.5 -80q-49 0 -80 35t-31 84z" />
<glyph unicode="fl" horiz-adv-x="1601" d="M-233 -354q0 43 9 94t21.5 90t37.5 100l38 90q12 29 44 94.5t40 78.5q-80 86 -80 155q0 20 3 34.5t8 28.5l10 23q4 10 17 20.5t17.5 17.5t22.5 16.5t23.5 13.5t26.5 15l26 13q111 61 184.5 149.5t146.5 221.5l103 186l147 251q92 153 177 249t135 96q66 0 65 -120 q0 -76 -46 -195t-95 -186l-510 -711q23 -14 41 -31.5t33.5 -43t23.5 -41t24.5 -53.5t18.5 -46l266 168q23 188 104 377.5t198 337.5q184 231 353 391t232 160q29 0 43 -33q11 -25 11 -54v-16q-8 -111 -33 -200t-91.5 -214.5t-203.5 -286.5t-352 -368q-27 -53 -28 -119 q0 -33 7 -69q47 -117 137 -117q166 0 469 272l37 -82q-92 -96 -137 -139t-144.5 -128t-187.5 -124t-170 -39q-221 0 -244 301q-111 -98 -219 -149q5 -23 5 -69q0 -34 -3 -81q-16 -223 -223 -425.5t-379 -227.5q-6 -1 -12 -1q-49 0 -84 58q-39 66 -51 138t-12 129zM6 -213 q-3 -19 -2 -39q0 -94 55 -203q131 86 209 233q63 118 63 239q0 29 -3 57q-25 -2 -49 -2q-87 0 -148 24q-113 -188 -125 -309zM1063 774l4 -6q137 129 254 299t162 295l-4 -2l-4 4q-222 -178 -412 -590z" />
<glyph unicode=" "  horiz-adv-x="925" />
<glyph unicode="&#x09;" horiz-adv-x="925" />
<glyph unicode="&#xa0;" horiz-adv-x="925" />
<glyph unicode="!" horiz-adv-x="1067" d="M193 100q0 92 47 212t112 120q70 0 119 -51t49 -123q0 -92 -48 -190.5t-132 -98.5q-53 0 -100 40t-47 91zM352 624q0 46 80 236l385 879l14 30q12 33 18.5 41.5t21 31t31 28.5t36.5 6q12 0 33.5 -4t46 -10.5t33.5 -10.5q4 0 21.5 -4t29.5 -8t25.5 -10t21.5 -16.5t8 -22.5 q0 -39 -78 -197l-487 -950q12 -27 12 -47q0 -41 -25.5 -80t-64.5 -39q-49 0 -105.5 50.5t-56.5 96.5z" />
<glyph unicode="&#x22;" horiz-adv-x="905" d="M104 1778q0 162 117 161.5t117 -161.5q0 -59 -51 -615q-8 -84 -65.5 -84t-65.5 84q-52 556 -52 615zM569 1778q0 162 117 161.5t117 -161.5q0 -59 -51 -615q-8 -84 -65.5 -84t-65.5 84q-52 556 -52 615z" />
<glyph unicode="#" horiz-adv-x="1531" d="M143 512l41 172h293l160 379h-281l45 170h304l217 506h174l-215 -506h331l213 506h177l-213 -506h260l-45 -170h-285l-162 -379h277l-45 -172h-302l-219 -512h-174l215 512h-331l-216 -512h-174l215 512h-260zM649 684h332l164 379h-334z" />
<glyph unicode="$" d="M-92 205q0 47 59 129q63 88 139 88l523 6l100 408q-80 16 -155.5 27t-112.5 19.5t-92 30.5q-88 33 -88 146q0 53 33.5 161.5t62.5 155.5q96 170 614 309q0 4 20.5 58.5l27.5 72.5l29 71q22 54 37 81l40 71q25 44 47 67l51 52q29 28 60.5 38t64.5 10t54.5 -27t21.5 -63 q0 -59 -51 -119q-66 -82 -93.5 -127t-60.5 -144l254 17q32 3 62 2q112 0 208 -35q18 -4 27.5 -8t14.5 -14q4 -7 4 -19q0 -5 -1 -10q-16 -147 -58 -200.5t-167 -96.5q-139 -49 -213 -105q-55 -39 -90 -38q-33 0 -33 28q2 8 8.5 16.5t16.5 19.5t20.5 20.5t30.5 24.5l34 26 q13 10 41.5 29.5t45.5 33.5l-6 4l-330 -43l-117 -411q23 -8 84.5 -26.5t104.5 -34t100 -43t94 -54.5t62.5 -67t25.5 -85q0 -102 -63.5 -194t-159.5 -156q-176 -117 -453 -186l-61 -361q-12 2 -56 12.5t-72 19.5t-52.5 30.5t-24.5 54.5q0 39 15.5 104.5t15.5 84.5 q-66 -5 -161 -5q-72 0 -161 2q-158 2 -239.5 37.5t-81.5 104.5zM520 1122q0 -66 254 -106l94 313q-68 -14 -208 -87t-140 -120zM860 457q8 4 43 14t61.5 20.5t67.5 24.5t73 28.5t60.5 32t43 35t14.5 37.5q0 35 -50.5 61.5t-133.5 50t-91 25.5z" />
<glyph unicode="%" horiz-adv-x="1751" d="M238 1262q0 233 194.5 419.5t360.5 206.5q4 1 8 1l57 -25q33 -29 33 -62q0 -18 -27 -45q137 -2 137 -164q0 -201 -163.5 -422t-358.5 -221q-109 0 -175 98.5t-66 213.5zM279 72q0 143 280 483l553 666q297 356 651 589q7 -31 7 -61q0 -74 -38 -150q-54 -106 -278 -342 q-221 -231 -461.5 -534t-400.5 -559q-86 -131 -96 -164q-8 -25 -11.5 -33t-13.5 -27.5t-24.5 -25.5t-32.5 -6q-53 0 -94 53.5t-41 110.5zM436 1262q0 -23 8.5 -52.5t12.5 -29.5q10 -2 21 -2q112 0 244 179q144 196 144 277q0 33 -47 33q-20 0 -52 -28.5t-50 -28.5 q-23 0 -51 24q-90 -57 -160 -165.5t-70 -206.5zM999 291q0 236 195 422t360 205q6 1 12 1l54 -24q33 -29 33 -61q0 -18 -27 -48q139 -2 139 -161q0 -203 -164.5 -423t-359.5 -220q-109 0 -175.5 97t-66.5 212zM1198 291q0 -20 8 -51t15 -31q10 -2 20 -2q111 0 243 180 q144 197 144 279q0 31 -45 30q-23 0 -53.5 -27.5t-51 -27.5t-51.5 25q-90 -57 -159.5 -167t-69.5 -208z" />
<glyph unicode="&#x26;" horiz-adv-x="1585" d="M-14 381q12 121 50 217t87 161.5t124 126t142 98.5l164 89q23 10 33 17q-7 43 -7 85q0 113 48 220q66 147 181.5 246.5t258.5 161t276 65.5h16q93 0 170 -70q83 -76 83 -180q0 -209 -244 -356l-407 -238q29 -176 135 -338l434 346q53 -156 53 -209q0 -57 -37 -121.5 t-68.5 -95.5t-111.5 -99.5t-88 -76.5q18 -74 84 -74q16 0 42 11.5t38 11.5q16 0 29.5 -16.5t13.5 -32.5q0 -66 -94.5 -199t-159.5 -133q-25 0 -61.5 25.5t-63.5 54.5l-66 69l-47 50q-2 -4 -82 -53l-99 -59q-19 -11 -89 -47t-108 -46l-94 -25q-56 -14 -107 -14 q-188 0 -318 124q-113 108 -113 260q1 21 3 44zM262 409q0 -46 127 -47q170 0 410 132l-154 346q-102 -45 -242 -191q-141 -147 -141 -240zM926 1266q446 272 446 434q0 34 -33 33h-12q-86 -16 -150.5 -54.5t-101.5 -75t-69.5 -107.5t-44.5 -109.5t-35 -120.5z" />
<glyph unicode="'" horiz-adv-x="604" d="M184 1778q0 162 118 161.5t118 -161.5q0 -59 -51 -615q-8 -84 -65.5 -84t-65.5 84q-54 556 -54 615z" />
<glyph unicode="(" horiz-adv-x="886" d="M133 117q0 420 256 989q41 96 99.5 208.5t145.5 262t181 248t168 98.5q98 0 98 -104q0 -49 -59 -129q-221 -311 -401.5 -778.5t-180.5 -805.5q0 -80 23 -237q10 6 26 6q41 0 41 -108q0 -78 -49 -138.5t-121 -60.5q-227 0 -227 549z" />
<glyph unicode=")" horiz-adv-x="886" d="M47 -330q0 49 59 131q221 311 400.5 778.5t179.5 804.5q0 78 -20 236q-12 -4 -29 -4q-41 0 -41 108q0 76 49 137.5t123 61.5q225 0 225 -551q0 -418 -256 -987q-41 -96 -99 -209t-145 -263.5t-181.5 -247.5t-168.5 -97q-96 0 -96 102z" />
<glyph unicode="*" horiz-adv-x="1490" d="M313 965q0 68 66.5 128t180.5 119.5t134 75.5q-90 84 -184 139q-47 25 -63.5 37.5t-30 41t-13.5 73.5q0 106 70 106q20 0 37.5 -4t35 -17t26 -20.5t28.5 -28.5l27 -28q25 -25 78 -68.5t77 -68.5l4 195v29q0 17 2.5 28.5t4.5 25t8 25.5t16 23q80 88 125 88 q27 0 46.5 -19.5t19.5 -50.5q0 -25 -17 -72q-2 -6 -18 -137l-17 -147q254 150 347 149q29 0 45 -16.5t39.5 -51t54.5 -61.5l-426 -196l241 -191q6 -6 21.5 -19.5t25 -23.5t17.5 -23.5t8 -27.5q0 -20 -29.5 -86t-35.5 -82l-334 291l-25 -457q-23 8 -73 20.5t-65 21.5 t-31.5 38t-16.5 78q0 41 35 303l-258 -178q-8 -4 -30 -22.5t-39 -28t-34 -9.5q-37 0 -58.5 30t-21.5 69z" />
<glyph unicode="+" horiz-adv-x="1746" d="M377 627v164h536v546h170v-546h535v-164h-535v-596h-170v596h-536z" />
<glyph unicode="," horiz-adv-x="819" d="M133 -164q90 121 123 187q-35 10 -51.5 17t-34.5 27.5t-18 49.5q0 84 81.5 174t169.5 90q139 0 140 -62q0 -53 -45 -156.5t-84 -146.5q-29 -39 -56.5 -67.5t-47 -47t-42 -30.5t-34 -19.5t-31 -11.5t-24.5 -4h-24h-22z" />
<glyph unicode="-" horiz-adv-x="870" d="M0 633v239h817v-239h-817z" />
<glyph unicode="." horiz-adv-x="819" d="M150 100q0 90 84 202q72 94 158 94q16 0 32 -3q6 0 29.5 -4t37 -8t31 -12.5t27.5 -24.5t10 -39q0 -16 -22.5 -89t-80.5 -156q-53 -75 -121 -75q-7 0 -13 1q-49 6 -79 13t-61.5 32.5t-31.5 68.5z" />
<glyph unicode="/" horiz-adv-x="1257" d="M92 -68q0 78 53.5 216.5t172.5 355.5l178 315l196 330q25 41 35 61q365 612 694 881q25 -86 25 -149q0 -68 -98 -232l-539 -876q-209 -344 -299 -540t-188 -487q-18 -61 -52 -61q-78 0 -128 55t-50 131z" />
<glyph unicode="0" d="M123 424q0 217 114.5 450.5t282.5 419.5q172 190 432 332.5t402 142.5q80 0 162.5 -70.5t82.5 -119.5q0 -16 -39.5 -29.5t-46.5 -19.5q137 -43 138 -283q0 -197 -86 -414t-231.5 -405t-360.5 -317t-453 -146q-16 -1 -31 -1q-155 0 -256 130q-110 144 -110 330zM430 414 v-13q0 -56 16 -122q18 -74 68 -74q57 0 160.5 55t159.5 105l266 245q119 131 235.5 324.5t116.5 312.5q0 55 -25.5 108.5t-78.5 53.5q-41 0 -100.5 -51t-67.5 -51q-27 0 -27 49q-344 -193 -526.5 -452t-196.5 -490z" />
<glyph unicode="1" d="M412 150q0 96 65.5 278t124.5 283q205 340 498 725l-4 6l-260 -99q-53 -29 -74 -28q-24 0 -24 33q0 13 3 30q0 14 2 24.5t9 21.5l10 19q4 7 13 15t13.5 13.5t17.5 13.5t17 11t22.5 12.5t20.5 11.5q406 236 473 235q47 0 87 -73.5t40 -114.5q0 -57 -47 -143.5t-381 -655.5 q-319 -537 -319 -727q0 -16 4 -48t4 -48q0 -37 -39 -37q-14 0 -55 24q-16 10 -73.5 36t-80 41.5t-45 53.5t-22.5 87z" />
<glyph unicode="2" d="M104 299q0 41 26 87t76 97.5t106.5 98.5t134.5 100l143 94q63 41 150 91l137 78l122 67q74 39 88 47q383 211 383 358q0 35 -32.5 52.5t-69.5 17.5q-47 0 -98 -8.5t-112.5 -26.5t-106.5 -33.5t-118 -47.5l-104 -46l-107 -51l-89 -43v-6l160 -19q6 0 16 -1t18.5 -2 t19.5 -4t19 -7t15.5 -9t11.5 -13.5t4 -20.5q0 -43 -70 -49l-292 -58q-6 0 -28 -4t-40 -6t-27 -2q-61 0 -61 107q0 74 49 187.5t102 174.5q111 121 368 192.5t466 71.5q86 0 136 -15t92 -59t59.5 -131.5t17.5 -226.5q0 -57 -5 -88t-38 -92t-100.5 -117.5t-199.5 -143.5 t-327 -190q-440 -236 -667 -411l6 -6l1059 186q-76 -215 -119 -285q-84 -121 -244 -151q-315 -59 -537 -70q-44 -2 -82 -2q-150 0 -192 33q-57 47 -88 135t-31 170z" />
<glyph unicode="3" d="M-84 193q0 53 94 158.5t142 105.5q41 0 41 -33q0 -18 -62 -80q158 -63 264 -63q184 0 381 62.5t312.5 139t115.5 125.5q0 51 -62.5 86t-157.5 50.5t-160.5 19.5t-127.5 4q-121 0 -241 -23q-43 -10 -78 -10q-42 0 -42 42q0 7 1 16q18 133 84.5 202.5t212.5 79.5 q104 8 302 47t400.5 116t202.5 163q0 111 -281 110q-283 0 -583 -114v-4l55 -13q102 -16 102 -45q0 -25 -49 -32q-88 -20 -254 -21q-66 0 -102.5 40t-36.5 108q0 49 23.5 89t69.5 68.5t80 45t89 36.5q207 82 535 82q113 0 192.5 -9t170.5 -41t140.5 -105.5t49.5 -184.5 q0 -74 -48 -153.5t-116 -124.5q-109 -68 -326 -111l-409 -90v-6q10 -2 82 -15l94 -16q23 -4 88 -20.5t92 -31.5l73 -42q46 -27 68.5 -58.5t43 -78t22.5 -101.5q1 -7 0 -14q0 -69 -54 -156q-60 -96 -176 -192.5t-319 -162t-448 -65.5q-168 0 -287 41t-161 88.5t-42 90.5z" />
<glyph unicode="4" d="M100 670q0 92 105.5 228t214.5 230q248 215 647 419t535 204q41 0 72.5 -18.5t31.5 -57.5q0 -35 -57 -84q58 -29 57 -88q0 -16 -4 -35q-8 -80 -70 -157q-186 -229 -387 -549q35 0 103.5 7t103.5 7q100 0 100 -67q0 -29 -24.5 -77t-58 -101.5t-39.5 -65.5l-381 -45 q-47 -162 -48 -205q0 -51 56 -133q-18 -8 -95 -49t-143.5 -73t-89.5 -32q-63 0 -63 138q0 47 9 101t23.5 121.5t20.5 108.5q-59 -2 -161.5 -9t-147.5 -8q-23 -1 -48.5 -1t-54.5 1q-57 1 -85.5 13.5t-39.5 34.5q-82 152 -82 242zM420 745q0 -25 100 -26q25 -2 57 -2 q116 0 312 24l653 789l-6 6q-250 -115 -354 -174q-260 -152 -439.5 -290t-241 -208t-81.5 -119z" />
<glyph unicode="5" d="M-2 207q0 90 101.5 164.5t197.5 106.5t127 32q45 0 45 -31q0 -23 -57 -59l-166 -115l4 -6q446 49 730 212t284 292q0 49 -65.5 76.5t-123.5 27.5q-129 0 -338 -43q-41 -8 -92 -20l-83 -20q-32 -7 -44 -7q-49 0 -87 57.5t-53.5 121t-15.5 112.5q0 106 134 246l280 299 q18 23 34.5 38t36 25t31 18.5t33 14.5t30.5 8t34.5 4t36.5 2h45h49h657q-137 -246 -172 -286q-63 -72 -188 -80h-72l-463 6q-139 -113 -231 -279q219 57 379 58q188 0 317 -95.5t129 -275.5q0 -170 -98 -334q-133 -223 -413.5 -363.5t-671.5 -140.5q-102 0 -157.5 10.5 t-83.5 43t-34 68.5t-6 112z" />
<glyph unicode="6" d="M201 520q0 168 85 344t225 324.5t284.5 264.5t300.5 212q102 61 151 77.5t158 16.5h20q16 0 34 2q9 1 19.5 1t22.5 -1q25 -2 45.5 -3t38 -5t28.5 -11t11 -18q0 -33 -57 -57q-219 -100 -428 -283l-373 -325l4 -4q20 8 65.5 29.5t71 32.5t64.5 24.5t74.5 20.5t70.5 7 q147 0 237.5 -106.5t90.5 -255.5q0 -156 -94.5 -316.5t-222.5 -272.5t-255 -182.5t-196 -70.5q-139 0 -307 162t-168 393zM510 412q0 -173 61 -173q3 0 7 1q176 31 380.5 217t210.5 409q0 35 -4 54.5t-22.5 34t-52.5 14.5q-121 0 -422 -264q-72 -61 -97.5 -89t-43 -78 t-17.5 -126z" />
<glyph unicode="7" d="M338 1305q0 39 78 144t129 161q72 74 268.5 113.5t656.5 39.5q115 0 150 -49q23 -31 46.5 -105.5t23.5 -109.5q0 -53 -138 -162q-289 -246 -483.5 -524t-290.5 -647q37 14 65.5 14t30.5 -28q6 -31 -153.5 -132.5t-241.5 -103.5h-11q-65 0 -95 45q-33 49 -33 127 q0 217 387 707l578 606q-57 4 -113 4q-49 0 -98 -3q-73 -5 -126 -5q-22 0 -40 1q-11 1 -22 0q-51 0 -105 -12q-66 -14 -94.5 -16t-70.5 -18.5t-54.5 -22.5t-44 -23.5t-41.5 -23.5q-76 -37 -86 -37q-25 0 -48.5 17.5t-23.5 42.5z" />
<glyph unicode="8" d="M188 182q0 63 33 133t104 147l117 124q47 47 139.5 126t104.5 91l-34 44l-36 47q-8 11 -32.5 42t-32.5 47t-26.5 45t-27 50.5t-17.5 50t-12 56t-3 56.5q0 160 113.5 271.5t279.5 168.5q240 78 520 97q39 1 76 1q171 0 270 -32q43 -12 43 -53q0 -61 -81 -189 q-45 -70 -73 -90q-18 -14 -47 -13q-14 0 -30 3q4 -21 4 -38q0 -22 -7 -37q-13 -26 -83 -91l-453 -403q131 -160 136 -396q0 -68 -26 -138.5t-89.5 -146t-197.5 -129t-316 -65.5q-13 -1 -26 -1q-95 0 -186 54q-104 62 -104 168zM428 217q0 -41 21.5 -49t70.5 -8 q137 0 255 73.5t118 198.5q0 90 -90 221l-228 -209q-147 -133 -147 -227zM741 1214q0 -41 49.5 -119.5t100.5 -129.5l526 452l-211 17q-41 3 -78 3q-159 0 -261 -57q-126 -70 -126 -166z" />
<glyph unicode="9" d="M279 1001q0 164 179 345.5t445 300.5q262 117 486 116h8q74 -4 171 -112.5t97 -163.5q0 -12 -6 -24.5t-18.5 -27t-22.5 -23.5t-28.5 -21.5t-29 -17.5t-30 -16t-21.5 -14l-100 -63q-55 -35 -88 -35q-31 0 -31 33q0 20 144 141l-7 6q-451 -115 -662.5 -278.5t-211.5 -315.5 q0 -45 43 -45q145 0 365.5 114t359.5 230q145 115 192 115q37 0 92.5 -19.5t55.5 -47.5q0 -49 -90 -148l-715 -842q-119 -137 -198.5 -192t-168.5 -64q-6 -1 -11 0q-48 0 -48 50q0 20 72 139q4 10 19.5 32.5t20.5 31t17 23.5t24.5 20t31 8.5t42.5 3.5l514 612l-6 6 q-123 -88 -293 -179t-256 -91t-211.5 129.5t-125.5 283.5z" />
<glyph unicode=":" horiz-adv-x="819" d="M131 100q0 90 84 202q71 94 158 94q16 0 33 -3q6 0 28.5 -4t36.5 -8t31.5 -12.5t27 -24.5t9.5 -39q0 -16 -21.5 -89t-80.5 -156q-53 -75 -120 -75q-7 0 -14 1q-49 6 -79.5 13t-61.5 32.5t-31 68.5zM455 745q0 90 85 202q72 94 157 95q16 0 32 -4q6 0 29.5 -4t37 -8 t31 -12t27.5 -24.5t10 -39.5q0 -16 -22.5 -87.5t-80.5 -154.5q-53 -75 -121 -76q-7 0 -13 1q-49 4 -79 11t-61.5 32.5t-31.5 68.5z" />
<glyph unicode=";" horiz-adv-x="819" d="M131 -164q90 121 123 187q-37 10 -53.5 17t-33.5 27.5t-17 49.5q0 84 81.5 174t169.5 90q137 0 138 -62q0 -53 -45 -156.5t-82 -146.5q-31 -39 -57.5 -67.5t-46 -47t-43 -30.5t-34 -19.5t-30 -11.5t-24.5 -4h-24h-22zM457 750q0 90 85 201q71 93 156 93q17 0 35 -4 q4 0 27.5 -4t37 -8t32 -12t27.5 -24.5t9 -37.5q0 -16 -21.5 -88.5t-80.5 -155.5q-54 -75 -122 -76q-7 0 -13 1q-49 6 -79 12t-61.5 32t-31.5 71z" />
<glyph unicode="&#x3c;" horiz-adv-x="1763" d="M403 625v166l1225 610v-182l-1057 -508v-6l1057 -512v-183z" />
<glyph unicode="=" horiz-adv-x="1679" d="M311 352v162h1239v-162h-1239zM311 905v162h1239v-162h-1239z" />
<glyph unicode="&#x3e;" horiz-adv-x="1763" d="M403 1219v182l1225 -610v-170l-1222 -611v183l1054 509v7z" />
<glyph unicode="?" horiz-adv-x="1271" d="M328 100q0 92 46 212t111 120q70 0 119 -51t49 -123q0 -92 -47 -190.5t-133 -98.5q-53 0 -99 40t-46 91zM377 1460q0 39 23.5 110.5t45.5 110.5q51 84 244 134.5t332 50.5q164 0 248 -65.5t84 -223.5q0 -248 -191 -473l-354 -420q-8 -10 -25.5 -28.5t-24.5 -28 t-14.5 -28.5t-7.5 -38q0 -10 8.5 -34.5t8.5 -39.5q0 -63 -60 -63q-61 0 -108 65.5t-47 131.5q0 154 196 337l314 289q2 2 38.5 35l49 45t37 41t35 55.5t10.5 51.5q0 39 -16.5 65.5t-49.5 35.5t-59.5 12t-67.5 3q-72 0 -151.5 -16t-121.5 -32l-143 -52l27 -12q82 -29 82 -66 q0 -49 -57 -49q-8 0 -50 8l-106 17h-27q-23 0 -32 2t-25 6t-24.5 10t-14.5 20.5t-6 32.5z" />
<glyph unicode="@" horiz-adv-x="2162" d="M168 545q104 416 466.5 710.5t827.5 294.5q410 0 585 -226q119 -154 119 -356q0 -95 -26 -200q-70 -287 -270.5 -454t-409.5 -167q-96 0 -143 63q-31 41 -31 105q0 33 8 72h-8q-207 -240 -446 -240q-131 0 -196 96q-39 58 -39 140q0 52 16 115q63 262 290.5 442 t501.5 180q195 0 313 -63l-213 -477q-57 -131 -56 -203q0 -80 73 -82q115 0 253 117.5t195 345.5q22 92 22 174q0 176 -102 303q-150 186 -495 186q-322 0 -647.5 -244.5t-417.5 -615.5q-29 -115 -29 -214q0 -191 108 -321q163 -198 488 -198q244 0 447 100l12 -121 q-242 -113 -520 -112q-406 0 -587 236q-120 157 -120 376q0 111 31 238zM842 539q-10 -38 -10 -71q0 -44 18 -78q31 -58 119 -58q98 0 216 107.5t175 230.5l125 276q-66 20 -142 21q-158 0 -308 -127t-193 -301z" />
<glyph unicode="A" horiz-adv-x="2121" d="M-199 -96q0 80 144.5 229.5t320.5 212.5l213 234q-69 -5 -120 -6q-46 0 -77 5q-67 9 -67 55t123 171t221 156q86 31 165 38q19 2 33 2q48 0 54 -20q0 -25 -99.5 -37t-99.5 -36.5t39 -24.5q131 8 166 8l610 506q567 469 717 469q41 0 67.5 -38t26.5 -79q0 -47 -84 -199 l-337 -592q51 0 85.5 3.5t40 5.5t21.5 1t31.5 -4t70.5 -16q-94 -113 -202 -311l-219 -10l-170 -336q0 -43 47 -43q8 0 18 1t18.5 4t20.5 11t21.5 13.5t28.5 20.5l34 27q14 11 45 32l55 40l47 -69q-350 -352 -555 -353q-68 0 -103.5 46.5t-35.5 117.5q0 2 -1 7.5t-1 11.5 t3 20.5t9.5 33.5t21.5 53l36 78q20 44 54 111l77 146l-594 -20l-557 -555q-4 -2 -27 -26l-29 -31l-30 -28q-23 -22 -35 -30t-34.5 -24.5t-39 -22.5l-35 -12.5t-38.5 -6.5q-95 1 -95 60zM1096 924l4 -6l418 30l370 621l-6 6z" />
<glyph unicode="B" horiz-adv-x="1933" d="M147 1231q0 18 34 86.5t91 142.5q133 180 230 215q203 80 526.5 143.5t530.5 63.5q317 0 448 -98t131 -234q0 -72 -27.5 -135t-83 -114.5t-112.5 -93.5t-152 -77l-159 -58q-66 -24 -174 -48l-160 -37q-51 -12 -153.5 -30.5l-123.5 -22.5l-53 -49l157 -23 q142 -20 235 -41.5t215 -58.5t187.5 -95.5t65.5 -131.5q0 -63 -66.5 -149.5t-189.5 -175.5t-338 -157.5t-473 -83.5q-19 -1 -37 -1q-61 0 -121 11q-78 13 -149.5 44.5t-116.5 96t-45 152.5q0 55 8.5 85t74 129.5t220.5 304.5q-53 2 -75.5 5t-74.5 13t-77 32.5t-25 55.5 q0 51 93.5 81t223.5 45t146 19l103 105q88 90 123 117l110 83q76 56 145.5 76.5t149.5 20.5q-31 -72 -264 -346q174 25 312 61.5t220 74.5t134.5 79t71 72.5t16.5 56.5q-2 35 -31 65.5t-123 54.5q-66 16 -157 16q-40 0 -85 -3q-313 -29 -766 -191q39 -20 39 -41 q0 -47 -98 -63q-123 -18 -379 -102q-57 -20 -84 -21q-68 0 -68 74zM571 428q0 -76 103.5 -112.5t200.5 -36.5q182 2 400 104t218 184q0 90 -252 136.5t-422 46.5l-151 -166q-97 -105 -97 -156z" />
<glyph unicode="C" horiz-adv-x="1945" d="M-25 143q0 272 182.5 565t434.5 531q227 219 568 438t558 219q125 0 199 -66.5t80 -193.5q1 -9 0 -18q0 -126 -104 -303q-112 -190 -272.5 -356t-342.5 -293t-309 -146q-11 -1 -21 -1q-47 0 -85 31q-46 38 -46 101q0 100 131 213l201 176q106 106 139 106.5t33 -30.5 q0 -13 -6 -33l6 -4q188 162 312 327t124 237q0 59 -47 58q-12 0 -27 -3q-2 0 -25 -6l-47 -13q-24 -6 -65 -20t-87 -40l-105.5 -62.5t-129 -92t-147.5 -125t-172 -168t-192 -213.5q-143 -168 -235.5 -372.5t-92.5 -360.5q0 -307 289 -307q227 0 581.5 221t618.5 455v-15 q0 -58 -14 -100q-16 -47 -39 -73.5t-86 -86.5q-365 -354 -690.5 -514.5t-548.5 -160.5q-231 0 -376 134t-145 365z" />
<glyph unicode="D" horiz-adv-x="2189" d="M147 1264q0 27 37 188q25 100 86.5 156.5t173.5 107.5q193 84 453 137.5t473 53.5q424 0 651 -144q141 -94 214 -257t73 -345q0 -272 -185.5 -501.5t-461.5 -385.5q-223 -125 -549 -215t-575 -90q-180 0 -234 31q-63 33 -63 143q0 94 46 200t90 169t126 164l651 811 q-336 -33 -586 -127v-6h74q145 0 145 -31q0 -41 -84 -49q-49 -8 -213.5 -56.5t-238.5 -48.5q-103 1 -103 95zM555 328q31 -47 156 -49q9 0 18 -1q266 0 608 117q401 141 585.5 336t184.5 393q0 117 -72.5 195t-217 112.5t-230.5 45t-239 18.5q-29 4 -43 4q-33 -127 -91 -203 l-602 -784q-66 -86 -66 -145q0 -21 9 -39z" />
<glyph unicode="E" horiz-adv-x="1910" d="M57 139q0 76 53.5 165t165 192.5t326.5 203t498 168.5v9q-223 8 -376 35.5t-230.5 72.5t-108.5 94t-31 111q0 84 46 174t151.5 181t252 165t366 119t479.5 45q346 0 383 -82l6 -115q1 -27 1 -49q0 -75 -16 -98q-20 -31 -135 -68q-78 -25 -163 -67.5t-142 -74.5t-78 -34 q-6 -4 -17 6.5t-11 20.5q0 47 188 192q-24 1 -47 1q-157 0 -304 -24q-169 -28 -287 -70t-205 -92t-126 -94q-35 -40 -35 -67q0 -43 50 -63q115 -50 580 -50q109 0 237 3q182 0 182 -60q0 -35 -35 -94t-65 -84q-43 -37 -258 -70q-246 -41 -446.5 -114.5t-312.5 -152.5 t-170 -145.5t-58 -107.5q0 -80 229 -88q36 -2 73 -2q255 0 570 98q86 27 175 72t208 119t164 98q3 -44 3 -82q0 -104 -21 -171q-28 -91 -140 -183q-47 -41 -121.5 -86t-200.5 -102.5t-307 -91.5q-170 -32 -354 -31h-22q-166 4 -373 61q-82 20 -136.5 118.5t-54.5 188.5z" />
<glyph unicode="F" horiz-adv-x="1892" d="M129 1081q0 55 80 208t129 210q49 61 125 103.5t127 56.5t160 39q750 170 1077 170q281 0 280 -144q0 -133 -150.5 -432t-275.5 -483l183 -31l-109 -174q-47 -74 -74 -86q-29 -12 -66.5 -21.5t-88.5 -18.5t-68 -13l-467 -490q-106 -111 -287.5 -255t-263.5 -144 q-27 0 -45 18.5t-18 49.5q0 51 55 133t111 139q109 125 282 172l320 336l-408 -31q-10 -1 -23 -1q-23 0 -58 4q-54 7 -56 32q-4 24 -4 46q0 96 74 142q137 86 368 129l416 80q88 115 199.5 327t111.5 302q0 25 -15 37t-27.5 13t-45.5 1q-86 0 -225 -20q-526 -88 -915 -256 l6 -6l141 2q51 0 51 -23.5t-82 -46.5l-315 -98q-88 -27 -137 -29t-60.5 12t-11.5 41z" />
<glyph unicode="G" horiz-adv-x="1898" d="M84 510q0 164 101.5 356.5t234.5 329.5q193 213 563.5 416t867.5 260q9 1 18 1q59 0 95 -48q49 -68 49 -174q0 -74 -112 -148q-381 -248 -455 -248q-35 0 -35 39q0 27 74 78l114 94l-6 4q-287 -84 -543.5 -243.5t-410.5 -317t-240 -291.5q-77 -119 -77 -175q0 -7 2 -13 q25 -102 96 -102q74 0 184 84l998 757q35 35 62.5 35t100.5 -47q68 -37 68 -74q0 -18 -39 -94q-51 -106 -121 -219l-193 -302l-184 -284l7 -4l598 387q-4 -94 -27 -129q-49 -74 -330 -264l-438 -297q-121 -164 -353.5 -381t-355.5 -217q-94 0 -100 113v10q0 131 144 286 q151 161 358 261q301 387 434 672l-4 6l-303 -222q-8 -4 -47 -34.5t-58 -43.5l-59 -42l-65 -44l-63.5 -38t-67 -34l-61.5 -23.5t-62.5 -16.5t-53.5 0q-152 14 -228.5 120.5t-76.5 260.5z" />
<glyph unicode="H" horiz-adv-x="2453" d="M174 1133q0 63 28.5 158.5t63.5 142.5q106 119 709 309q178 57 406.5 98t396.5 41q156 0 225.5 -75.5t69.5 -190.5q0 -74 -43 -157t-92.5 -142.5t-114.5 -128.5q-16 -14 -23 -23l-307 -325l420 49l491 616q147 197 205 197q47 0 47 -62q0 -72 -38 -141t-185 -250 l-295 -360h37q31 0 39 -2t36.5 -3t40 -2t37 -3t39 -6.5t36 -9.5t37 -10t33.5 -13.5t36 -20.5q-199 -154 -328 -364q-91 22 -193 22q-41 0 -83 -4q-6 -10 -51.5 -77.5t-68 -117t-22.5 -85.5q0 -20 29 -162q-7 2 -15 1q-45 0 -138 -47q-90 -46 -129 -47q-9 0 -15 3 q-53 19 -53 91q0 20 4 44q25 145 158 397l-500 -63l-285 -334q-2 -4 -21.5 -32t-29.5 -44t-29.5 -36.5t-39 -32t-37.5 -11.5q-45 0 -89.5 36t-44.5 83q0 43 111 180t121 158q-43 -4 -79 -4q-199 0 -200 114q0 51 51.5 129t102.5 78q8 0 29.5 -9t31.5 -9q8 0 31 6t130.5 30.5 t287.5 61.5q166 164 538 586q115 123 115 186q0 61 -96 62q-244 0 -934 -287q39 -16 39 -41q0 -43 -70 -66l-122 -44q-46 -17 -66 -28l-78 -41l-106 -54q-76 -39 -109 -39q-43 0 -62.5 40t-19.5 85z" />
<glyph unicode="I" horiz-adv-x="1341" d="M351 1397q191 215 447.5 353t463.5 138q131 0 199.5 -86t68.5 -219q0 -162 -130 -447.5t-260 -495.5t-268 -411q9 -24 10 -49q0 -65 -58 -146q-81 -114 -148 -118q-6 -1 -13 -1q-43 0 -90 37q-53 42 -53 91q0 45 47 107q334 483 528.5 844.5t194.5 473.5q0 41 -17.5 76 t-53.5 35q-127 -16 -372 -195.5t-345 -369.5l67 12q90 16 105 16q23 0 22 -26q0 -10 -5 -22.5t-15 -22.5t-19 -17l-22 -17q-14 -11 -19.5 -13t-33.5 -25l-51 -39l-52 -36.5t-54 -31t-38 -10.5q-47 0 -149 75q-97 71 -97 120q0 184 210 420z" />
<glyph unicode="J" horiz-adv-x="1480" d="M-90 -551q0 352 833 842l390 655q211 352 256 703q-301 -104 -534.5 -385t-293.5 -598q176 109 184 108q25 0 25 -22q0 -10 -18.5 -37t-37.5 -48l-46 -51q-27 -29 -30 -30.5t-25 -26.5l-28 -33q-7 -8 -31 -32.5l-36 -36t-34.5 -29.5t-38 -28.5t-36 -22.5t-39 -16.5 t-38.5 -4.5q-106 0 -107 205q0 250 191 608q102 190 250.5 337t295 225.5t268.5 117.5t204 39q70 0 132 -62.5t62 -111.5q0 -156 -113.5 -434.5t-449.5 -841.5l6 -6l315 139l35 -86l-481 -229l-553 -641q-254 -293 -371 -293q-47 0 -76.5 41t-29.5 86z" />
<glyph unicode="K" horiz-adv-x="2287" d="M193 1186q0 61 69 256q8 27 17.5 45t14.5 30.5t23.5 28t22.5 20.5t32.5 25.5l39.5 28.5l149 113q59 41 84 41q29 0 29 -31v-2q0 -14 -16.5 -31.5t-110.5 -97.5l6 -4q18 4 146 56t234.5 90t272.5 78t312 48q8 0 14 1q25 0 42 -6q22 -7 33 -17.5t38 -42.5q80 -100 79 -154 q0 -43 -67 -143l-139 -203l4 -4l870 411q139 61 164 62q51 0 51 -51q0 -25 -46 -98.5t-134 -137.5q-63 -46 -125 -46q-24 0 -47 7l-1000 -500q-61 -43 -61 -100q0 -18 15.5 -38.5t29.5 -31t45 -27t35 -18.5l688 -399q76 -45 123 -80t88 -96.5t41 -134.5q0 -133 -70 -133 q-35 0 -135 59l-1077 592l-217 -262q2 -92 -122 -204t-210 -112q-74 0 -74 60q0 49 58 123l405 522q-47 66 -47 115q0 123 172 213l289 149l264 414q-217 -51 -399.5 -117t-280.5 -112l-383 -185q-102 -51 -153 -51q-86 0 -86 82z" />
<glyph unicode="L" horiz-adv-x="1906" d="M-152 43q0 20 11.5 47t35.5 61l43 60l46 61q27 35 32 41q49 68 84 76q63 14 183 28.5t170 22.5l792 944q115 135 331 329t312 194q66 0 100.5 -54.5t34.5 -121.5q0 -61 -38.5 -157.5t-81.5 -171.5l-108 -182q-65 -108 -81 -139q49 -6 49 -39q0 -49 -153 -157 q-6 -4 -36 -27l-52 -39q-23 -16 -54.5 -34.5t-56.5 -30t-39 -11.5q-61 0 -61 82q0 238 364 650q33 37 15 47q-4 4 -9 4q-57 0 -456 -455l-545 -625q664 -127 1096 -231l-144 -143q-57 -57 -73.5 -76t-66.5 -44.5t-72.5 -25.5t-106.5 7.5t-153 21.5l-226 47q-361 79 -659 79 q-35 0 -68 -1l-60 -29q-18 -4 -63 -23.5t-82 -30.5t-70 -11q-84 0 -84 57z" />
<glyph unicode="M" horiz-adv-x="3112" d="M123 1223q57 305 70 321q4 2 9 10.5t6 10.5t11 11t20 16l26 21l41 31l58 42l80 57q45 39 68 39q33 0 33 -27q0 -33 -144 -160l5 -4l307 142q4 0 57 24l113 50l130 55q71 29 130 46q53 16 80 15h6q16 0 28.5 -4t20.5 -8t17.5 -15.5t12.5 -16.5l12 -21q9 -16 11 -23 l66 -113q33 -61 33 -104q0 -51 -82 -252t-86 -221l4 -6l434 420q315 299 444 301h10q55 0 119 -44q70 -48 70 -143q0 -57 -28.5 -136t-86.5 -180l-97 -167q-40 -66 -113 -173l-81 -120l5 -6l312 275l366 323l327 270q6 6 23.5 20.5t28.5 22.5l28 21q16 12 30.5 18t28.5 6 q51 0 120 -93t69 -142q0 -43 -119 -191l-422 -514q-313 -381 -313 -618q0 -49 26.5 -91t69.5 -42q66 0 234.5 116.5t420.5 362.5l13 -105q-51 -145 -384 -398t-501 -253q-127 0 -184.5 97.5t-57.5 232.5q0 70 16.5 141.5t60.5 158.5l73 143q29 56 100 157l94 133 q23 33 107 140.5t86 111.5l-4 4l-305 -261q-84 -73 -220.5 -204t-245.5 -260l-270 -332q-164 -207 -239 -207q-72 0 -109 95.5t-37 179.5q0 74 109 215l186 244q303 397 441 663q23 41 29.5 68.5t-0.5 39t-23 11.5q-35 0 -84 -57l-654 -709l-409 -551q-2 -2 -16.5 -21.5 t-18.5 -24.5t-18.5 -24.5t-21.5 -25.5t-21.5 -20.5t-24.5 -20.5l-25 -14q-14 -8 -28.5 -11.5t-26.5 -3.5q-29 0 -54.5 17.5t-42 40t-34.5 63.5l-29 64q-10 23 -23.5 64.5t-15.5 49.5l570 719q226 406 226 522q0 46 -36 45q-20 0 -86 -32l-341 -165q-151 -75 -221 -113 l-120 -66q-49 -29 -71.5 -38.5t-39 -12.5t-53 -3t-56.5 28q-13 18 -13 44q0 13 4 29z" />
<glyph unicode="N" horiz-adv-x="2275" d="M131 1128q0 113 75 242t171 221t185 153.5t122 61.5q29 0 29 -22q0 -33 -146 -174l4 -6l244 133q86 45 248 104.5t266 59.5q76 0 128 -41q47 -37 47 -97q0 -7 -1 -14q-10 -154 -93 -325t-380 -691l4 -6q655 786 824 901q16 12 78 55l105 72q42 29 93 56.5t72 27.5 q47 0 135 -86t88 -174q0 -74 -92 -216l-252 -378q-160 -236 -266 -446q-84 -168 -84 -224q0 -111 70.5 -110.5t263 177.5t282.5 288q2 -25 5 -53.5t4 -43t1 -26.5q0 -25 -30 -62q-264 -344 -475 -498.5t-320 -154.5q-94 0 -139 68.5t-45 167.5q0 180 147 452l463 852l-6 6 q-426 -403 -649 -657q-51 -59 -512 -674q-53 -78 -86 -78q-49 0 -132 64.5t-83 107.5q0 14 26 60q129 201 382 668.5t253 566.5q0 57 -43 57q-170 0 -850 -451q-47 -35 -82 -34q-49 -1 -49 120z" />
<glyph unicode="O" horiz-adv-x="1738" d="M96 543q-1 16 -1 33q0 194 132 410q143 234 359.5 415.5t464 311.5t444.5 159q10 1 20 1q75 0 154 -81q90 -92 90 -139q0 -51 -133 -94q-43 -16 -121 -60l4 -4q61 17 112 17q80 0 134 -42q78 -66 84 -215v-11q0 -261 -176 -553q-180 -298 -481 -503q-298 -203 -596 -202 h-6q-86 0 -164 28.5t-148.5 90t-117 173t-54.5 265.5zM371 362q0 -80 34.5 -129t108.5 -49q111 0 261.5 67.5t242.5 145.5q264 227 420 457q162 239 162 392q0 47 -27 85q-29 41 -80 41q-172 0 -384 -133t-314 -285q-53 -74 -84 -73.5t-37 75.5q-303 -303 -303 -594z" />
<glyph unicode="P" horiz-adv-x="2019" d="M125 -33q0 41 34 123t66.5 140.5t92.5 157.5l67 110q-123 78 -123 176q0 31 16.5 61.5t50 55t66.5 43t84 37t80 27.5l79 25q50 15 58 17l434 571q-209 -2 -425 -48t-352 -90t-160 -44q-43 0 -43 27q0 57 202 336q45 66 207 110q332 96 731 96q248 0 420 -37.5 t267.5 -114.5t136 -173t40.5 -230q0 -287 -210.5 -509t-574.5 -326q-247 -71 -524 -71q-130 0 -267 16l-113 -187q53 -10 53 -49q0 -33 -139 -219q-92 -129 -162 -129q-92 0 -92 98zM819 774q111 -30 228 -30q26 0 53 1q188 12 361 82t280.5 162t166.5 188q50 81 49 140 q0 10 -1 20q-14 76 -162.5 124t-279 61.5t-226.5 13.5q-2 -86 -59 -166l-287 -395q33 0 95 8q45 6 73 6q10 0 17 -1q28 -3 28 -26.5t-58.5 -42t-129 -32t-86.5 -23.5z" />
<glyph unicode="Q" horiz-adv-x="1859" d="M51 8q0 104 56.5 224t121.5 165q20 16 53 23.5t58 7.5t78 -3t84 -3q582 307 915.5 626.5t333.5 460.5q0 59 -115 60q-106 0 -409 -111.5t-531 -275.5v-4q31 0 64 1t53.5 1t42 1t35.5 1t26.5 -1t18.5 -4t13 -8.5t8 -13.5t1 -18q0 -37 -53 -47q-213 -41 -432 -152 q-40 -19 -65 -19q-23 0 -35 16q-25 34 -25 198q-3 52 -3 94q0 21 1 40q2 56 27 89q109 145 564.5 332.5t715.5 187.5q145 0 241.5 -96.5t96.5 -245.5q0 -63 -24.5 -133t-62.5 -132.5t-101.5 -134t-123 -128t-147.5 -126.5l-150 -119q-61 -48 -156 -113l-146 -97l-137 -89 l-112 -73q621 -123 756 -123q49 0 138.5 16.5t105.5 20.5q-55 -174 -150 -344q-31 -55 -130 -61q-16 -1 -33 -1q-96 0 -261 27l-909 142q-8 -6 -49 -35t-62.5 -42.5t-57.5 -26.5t-62 -13q-66 0 -66 59z" />
<glyph unicode="R" horiz-adv-x="2191" d="M129 -74q0 59 45 133l254 418q-27 8 -55.5 18.5t-55 34t-20.5 48.5q18 115 129 194.5t291 85.5l403 584q-391 -66 -585 -144v-4q25 -4 51 -5t45.5 -2t37 -3t29.5 -3l24 -2q11 -1 17 -4t12.5 -7t7.5 -8.5t1 -12.5q0 -29 -51 -28l-213 -23q-25 -2 -78 -10t-96 -12.5 t-80 -4.5q-98 0 -98.5 63.5t48 168t91.5 162.5q98 119 478 208t789 89q780 0 781 -373q0 -106 -58.5 -239.5t-136.5 -196.5q-45 -35 -85 -59.5t-79 -45t-104 -39.5l-116 -33q-50 -14 -163 -35l-198 -38l-269 -49l-327 -60v-6l735 -233q96 -31 172 -59.5t124 -51.5t81.5 -41 t52 -34.5t25 -25t12.5 -18.5l6 -14q39 -64 39 -165v-19q-4 -115 -70 -115q-33 0 -97.5 23.5t-142.5 57.5l-98 42l-1007 372l-234 -339q4 -14 4 -28q0 -52 -62 -104q-79 -66 -145 -65q-25 0 -43 16t-18 41zM977 922l680 176q125 33 300 132t175 187q0 53 -134 71 q-99 13 -172 13q-26 0 -48 -2l-504 -37q0 -18 -1 -37.5t-8.5 -38t-11.5 -31t-16 -35t-15 -28.5t-21.5 -32.5t-20.5 -30.5z" />
<glyph unicode="S" horiz-adv-x="1937" d="M16 117q0 41 50.5 124t89.5 119q25 18 112.5 48t120.5 30q23 0 23 -18q0 -25 -47 -51q-16 -12 -46 -41v-6q86 -3 167 -4q178 0 334 16q226 23 356.5 60.5t222.5 84.5t126 81t34 50q0 23 -25 45.5t-74 43t-102 38t-128 35.5l-133 32q-58 13 -137 26.5t-122 21.5l-102 18 q-58 10 -62 11q-61 8 -103.5 21t-86.5 38t-66.5 68t-22.5 100q0 72 27 190.5t59 171.5q78 125 423 261.5t753 136.5q166 0 342 -37q45 -12 58.5 -29.5t13.5 -60.5q0 -141 -49.5 -199.5t-180.5 -111.5q-84 -33 -124 -53.5t-122 -80.5q-49 -27 -67 -26q-43 0 -43 41 q0 4 17.5 27.5t66.5 69.5t114 93l-6 4q-199 -6 -373 -37.5t-285.5 -73.5t-193.5 -89.5t-118.5 -82t-36.5 -57.5q0 -16 2 -21t33.5 -24.5t104.5 -40l218 -58.5t367 -89q197 -47 300 -142.5t103 -201.5q0 -156 -103.5 -273.5t-254 -183t-346 -106.5t-348 -53.5t-291.5 -12.5 q-439 0 -439 158z" />
<glyph unicode="T" horiz-adv-x="1843" d="M158 1237q0 18 24 158q2 14 8.5 49t8.5 45t8 35.5t10 34l13.5 29t17.5 26.5t21.5 21.5t31.5 24.5t38.5 21.5t47.5 24.5q395 178 1018 178q254 0 412 -35q49 -10 80.5 -25.5t53 -48t31 -55t29 -83t33.5 -99.5q2 -8 2 -18q0 -15 -5 -36q-9 -34 -22.5 -57.5t-42 -64.5 t-34.5 -49l-639 -969l4 -6q23 10 43 0t20 -39q0 -49 -115 -193q-6 -6 -28.5 -36.5l-37.5 -49.5l-41 -48q-26 -30 -46.5 -46t-45 -29.5t-42.5 -13.5q-57 0 -102.5 30t-45.5 85q0 264 678 1130l273 349q-745 -14 -1379 -211v-4q6 0 37 -7l57 -11q27 -5 58 -14t49 -21.5 t18 -28.5q0 -25 -27 -28q-8 -1 -18 -1q-27 0 -72 6q-62 8 -102 8l-157 -2q-41 0 -61.5 3t-41 19.5t-20.5 51.5z" />
<glyph unicode="U" horiz-adv-x="2379" d="M131 1092q16 94 69.5 197.5t144.5 206.5t233.5 182t312.5 106q43 6 269 59t317 53q111 0 147 -106q20 -56 20 -113q0 -51 -16 -102q-12 -47 -38.5 -92t-45 -71t-63.5 -83l-68 -84q-125 -133 -376 -441t-251 -368q0 -49 56 -49q74 0 334 216t391 347l235 233l189 189 l141 141l113 108q39 36 76.5 66.5t59 42t38.5 11.5q55 0 83.5 -58.5t28.5 -115.5q2 -6 2 -13q0 -33 -40 -95q-48 -75 -255 -367l-225 -316q-246 -344 -246 -481q0 -47 30 -79t75 -32q41 0 96 24.5t129 77t116 85.5l123 99q81 67 83 67q14 -76 14 -91q0 -41 -142.5 -161.5 t-332 -230t-297.5 -109.5q-94 0 -154.5 60.5t-60.5 154.5q0 168 141 403l223 379l-4 6q-985 -959 -1146 -959q-5 0 -9 1q-256 43 -256 280q0 59 33 135t103 173l101 134q30 38 105 124l191 219l147 165l95 105q42 47 58.5 71.5t16.5 37.5q0 27 -26 26q-4 0 -80 -31 q-246 -102 -660 -307q-174 -88 -278 -88q-41 0 -59 13q-13 9 -13 29q0 7 2 16z" />
<glyph unicode="V" horiz-adv-x="1902" d="M139 975q0 221 140 348q117 111 568 334t591 225h3q64 0 121 -85q58 -87 58 -128q0 -45 -102 -207q-571 -911 -586 -1097q-2 -15 -2 -31q0 -43 13 -85q14 -45 43 -45q7 0 15 3q49 16 105.5 64t230.5 280.5t437 650.5q-3 15 -3 32q0 71 49 168q60 120 140 201 q68 69 108 68q7 0 13 -2q39 -12 49 -60q3 -12 3 -28q0 -46 -23 -121q-30 -100 -101.5 -242.5t-214.5 -358.5t-342 -478q-2 -2 -46 -59l-66 -86l-69.5 -87.5t-81.5 -92l-78 -73.5t-81 -57.5t-65 -17.5q-92 0 -202 117q-106 113 -106 247q0 145 139 440.5t425 770.5l-7 4 l-252 -123q-89 -45 -221.5 -128t-230.5 -169l4 -4l154 8q2 0 18 1t28.5 1t29 -3t24.5 -9t8 -17.5t-9 -20.5t-25.5 -15.5t-32 -10.5t-33 -6t-19.5 -2q-106 -23 -212.5 -61.5t-168 -67.5t-77.5 -29q-60 1 -60 144z" />
<glyph unicode="W" horiz-adv-x="2662" d="M142 1230q0 36 17 99q17 68 58 158l23 44q10 19 30.5 39.5t28.5 27l41 33t41 30.5l188 147q31 31 60 31q8 0 14 -4t6 -18.5t-14 -32.5l-76 -86l4 -6l110 39l118 41l109 35q73 24 120 33t112.5 18.5t124.5 9.5q162 0 220 -74q33 -43 58.5 -130t25.5 -144q0 -59 -29 -128 t-207 -309.5t-518 -636.5q-36 -40 -36 -65q0 -24 32 -35q1 -1 3 0q26 0 158 113q140 121 412.5 395t571.5 614q10 10 53 64.5t73.5 89.5t83 67.5t101.5 32.5q51 0 85 -65.5t34 -112.5q0 -41 -92 -168q-162 -223 -385.5 -588.5t-219.5 -472.5q-4 -18 10.5 -31.5t26.5 -9.5 q199 94 463 387t436 662q-14 41 -14 102q0 66 85 173.5t121 107.5t54 -52q17 -47 17 -85q0 -4 -1 -8q-12 -283 -227 -661t-480 -646t-433 -293q-9 -1 -18 -1q-76 0 -172 77q-108 86 -107 194q0 59 20.5 145.5t34.5 136.5t56 164t46 124l-6 6l-381 -412q-223 -240 -351 -341 t-218 -101q-80 0 -165 128q-74 112 -74 182q0 10 1 20q0 4 4.5 28.5t8.5 33.5t23.5 50t50.5 80l90 117q59 78 140 172l203 233l277 308q2 2 23.5 26.5t30 35.5t19.5 32.5t11 38.5q0 68 -96 67q-106 0 -389 -113.5t-414 -193.5q-106 -66 -182 -65q-12 0 -24.5 6t-24.5 28 q-14 25 -14 63z" />
<glyph unicode="X" horiz-adv-x="1873" d="M125 1141q0 55 66.5 194.5t113.5 175.5q156 137 487.5 245t553.5 108q133 0 164 -63q22 -43 22 -124q0 -37 -4 -82l-33 -338l444 418q92 84 132 84q49 0 49 -57q0 -78 -78 -190q-73 -104 -147 -104q-5 0 -11 1l-409 -395l-56 -635q-9 -33 -9 -66q0 -19 3 -39 q8 -53 72 -53q43 0 99 29t135 83t87 60l49 -71q-104 -131 -289.5 -270.5t-308.5 -139.5q-76 0 -112 60q-35 57 -35 129q0 27 1 78t1 75v18l21 414l-517 -487q-279 -264 -366 -265q-74 0 -74 80q0 117 163 263.5t290 175.5l524 495l27 615q-43 -16 -149.5 -50t-164.5 -55 l-144 -53q-87 -33 -161 -65.5t-141 -69.5v-6q43 -2 102 -7q96 -2 96 -26q0 -10 -9 -17.5t-39.5 -16.5t-67.5 -18.5t-107.5 -30t-144.5 -44.5q-43 -14 -71 -14q-54 0 -54 51z" />
<glyph unicode="Y" horiz-adv-x="2019" d="M131 1018q-2 7 -2 18q0 31 18 92l41 146q20 72 56.5 111.5t111.5 89.5q219 133 543 273t498 140q80 0 135 -36.5t55 -112.5q0 -25 -10 -57.5t-34 -73.5l-41 -73q-17 -32 -55 -81t-52.5 -69.5t-55.5 -69.5l-36 -49l-164 -207l-130 -161l-95 -118l-68 -89 q-23 -30 -42.5 -58.5t-26.5 -46t-7 -35.5q-2 -20 15.5 -32.5t53.5 -5.5t76 42l212 171q97 75 224 186l523 474q121 109 154 109q45 0 85.5 -57.5t40.5 -106.5q0 -20 -13 -49t-55 -87l-91 -126l-149 -204l-204 -281q-289 -412 -323 -492q-15 -32 -15 -48q0 -18 17 -19 q16 0 36 11l107 63q88 52 222 122q53 27 97 43.5t74.5 21.5t51 3t30 -10.5t9.5 -22.5q0 -31 -64.5 -89t-101.5 -79q-453 -342 -641 -561q-45 -55 -72 -83t-79 -64.5t-97 -36.5q-53 0 -86 38.5t-33 96.5q0 176 310.5 650t549.5 771l-6 6l-721 -624q-264 -229 -370 -230 q-72 0 -136 59q-55 50 -54 105q0 9 1 18q0 4 3 26t6 33t16.5 46t32 66.5t55.5 89.5t85 124l122 160l166 203q297 354 335 424q25 41 25 65q2 14 -9.5 21.5t-27.5 9.5l-570 -298q-321 -173 -323 -177q-47 -33 -88 -33q-37 0 -45 25z" />
<glyph unicode="Z" horiz-adv-x="1753" d="M147 -446q0 143 315.5 418.5t864.5 521.5q0 29 -10 56.5t-39 52t-71 35.5q-18 5 -43 5q-32 0 -73 -8q-75 -14 -169 -55l-285 -125q-82 -35 -140.5 -65t-72.5 -40t-28.5 -15t-32.5 -5q-43 0 -43.5 38t69.5 220q31 86 72 114q66 51 223.5 131t313 151t167.5 79 q279 152 354.5 208t75.5 122q0 33 -32.5 53t-63.5 20q-201 0 -483.5 -122.5t-851.5 -450.5q10 293 85 442.5t310 284.5q176 102 444.5 178t466.5 76q434 0 435 -328q0 -86 -35 -163.5t-83 -131t-126 -106.5t-142 -87l-155 -80l-139 -73q164 -31 245.5 -99.5t104.5 -219.5 q92 31 141 35t53.5 -4.5t4.5 -22.5v-2q0 -31 -33 -52.5t-166 -70.5q-70 -360 -447 -694q-131 -119 -385 -255t-366 -136q-53 0 -141.5 59.5t-88.5 110.5zM449 -348q0 -29 32 -29q139 0 438.5 249t368.5 456q-221 -111 -425 -263.5t-309 -264t-105 -148.5z" />
<glyph unicode="[" horiz-adv-x="1034" d="M150 -356l591 2279h795l-74 -240h-436l-465 -1800h471l-76 -239h-806z" />
<glyph unicode="\" horiz-adv-x="909" d="M385 1833h184l207 -1939h-188z" />
<glyph unicode="]" horiz-adv-x="1034" d="M-131 -356l74 239h436l465 1800h-471l76 240h806l-589 -2279h-797z" />
<glyph unicode="^" horiz-adv-x="1759" d="M455 651l512 1082h166l512 -1082h-185l-413 910l-414 -910h-178z" />
<glyph unicode="_" horiz-adv-x="1361" d="M0 -205h1362v-135h-1362v135z" />
<glyph unicode="`" horiz-adv-x="952" d="M123 1307q0 8 1 32.5t4 34.5t8 24.5t17.5 20.5t30.5 6q31 0 86 -16l160 -49q274 -82 330 -119q76 -51 76 -111q0 -25 -37 -24.5t-90 22.5q-84 33 -260 58q-91 12 -172 12q-30 0 -60 -2q-23 -2 -41 -2q-44 0 -50 11q-6 9 -6 44q1 24 3 58z" />
<glyph unicode="a" horiz-adv-x="1325" d="M-84 334q0 153 183 315q189 168 428 267.5t403 105.5h6q75 0 122 -47q48 -49 48 -84t-96 -68q80 -33 80 -112q0 -37 -119 -187.5t-119 -218.5q0 -66 86 -65q39 0 94 24.5t96 52t104.5 75.5t90.5 65l23 -101q-104 -117 -313.5 -270.5t-303.5 -153.5q-63 0 -96 41t-33 103 q0 96 100 305l-6 6l-250 -203q-231 -182 -288 -182q-59 0 -149 111q-91 114 -91 221zM115 256q2 -14 6 -23.5t16 -21.5q11 -11 26 -11q3 0 5 1q82 16 188 96q172 131 492 453l-6 4q-231 -70 -385 -139.5t-223.5 -135t-94 -116t-24.5 -107.5z" />
<glyph unicode="b" horiz-adv-x="1089" d="M0 371q0 444 377 891q162 197 418 396.5t344 199.5q80 0 80 -101q0 -266 -578 -825l-426 -418q-17 -60 -17 -112q0 -57 20 -105q34 -83 102 -83q8 0 16 1q20 2 40.5 12.5t34 18.5t32 25.5t26.5 26.5t25.5 31.5t23.5 26.5q-39 63 -39 107q0 123 131 274.5t248 151.5 q82 0 82 -121q0 -51 -19.5 -105.5t-62.5 -138.5l-49 -96q26 -5 50 -5q47 0 90 18q65 28 149 87l26 -90q-164 -168 -436 -174q-274 -289 -487 -289q-61 0 -105.5 41t-63 109t-25.5 127.5t-7 118.5zM313 803l6 -4q260 258 417 446.5t188.5 239.5t68.5 133l-4 6 q-455 -387 -676 -821z" />
<glyph unicode="c" horiz-adv-x="976" d="M-8 362q0 160 56 249t202 198q113 84 273.5 162t262.5 78q123 0 123 -125q0 -104 -112.5 -232.5t-175.5 -128.5q-43 0 -67 37t-26 84l-229 -172q-109 -80 -109 -160q0 -55 54.5 -101t152.5 -46q96 0 222 61.5t191 108.5l189 143l33 -106q-164 -174 -361.5 -310.5 t-367.5 -136.5q-152 0 -231.5 116.5t-79.5 280.5z" />
<glyph unicode="d" horiz-adv-x="1363" d="M-18 387q0 150 146 294t323.5 224t302.5 88q16 0 28.5 -2t27.5 -13l19 -14q4 -3 20.5 -22.5t18.5 -23.5l69 133l101 190q49 88 111.5 184.5t126 153.5t121.5 57q39 0 63.5 -30.5t24.5 -71.5q0 -80 -117 -262l-278 -430l-46 -72l-53 -83q-14 -22 -43.5 -78t-42 -90 t-25 -82t-12.5 -89q0 -135 64 -135q41 0 125 54.5t183 132t122 89.5l18 -88q-387 -428 -606 -428q-72 0 -108.5 59.5t-36.5 135.5q0 72 22 209q-16 -14 -94 -87l-133 -121q-55 -48 -128 -93t-116 -45q-82 0 -140 130t-58 226zM220 320q0 -34 42 -41q1 0 3 -1q41 0 256 183 q224 190 255 297q-233 -78 -353 -144.5t-157 -125.5q-46 -72 -46 -168z" />
<glyph unicode="e" horiz-adv-x="970" d="M-23 313v18q0 254 231 475q236 226 504 226h5q197 0 196 -131q0 -119 -150.5 -254t-506.5 -252l-6 -59v-11q0 -64 46 -95q50 -34 124 -33q35 0 75 9t73.5 21.5t79.5 39.5l72 42q26 14 75 51l67 51q18 13 68.5 53t54.5 46l25 -104q-152 -176 -352.5 -312.5t-383.5 -136.5 q-139 0 -215 104.5t-82 251.5zM272 528q160 55 282 164q120 107 120 150q0 34 -23 34q-5 0 -10 -2q-106 -27 -210 -121t-159 -225z" />
<glyph unicode="f" horiz-adv-x="843" d="M-233 -354q0 43 9 94t21.5 90t37.5 100l38 90q12 29 44 94.5t40 78.5q-80 86 -80 155q0 20 3 34.5t8 28.5l10 23q4 10 17 20.5t17.5 17.5t22.5 16.5t23.5 13.5t26.5 15l26 13q111 61 184.5 149.5t146.5 221.5l103 186l147 251q92 153 177 249t135 96q66 0 65 -120 q0 -76 -46 -195t-95 -186l-510 -711q23 -14 41 -31.5t33.5 -43t23.5 -41t24.5 -53.5t18.5 -46l369 229l29 -100q-211 -193 -351 -260q5 -23 5 -69q0 -34 -3 -81q-16 -223 -223 -425.5t-379 -227.5q-6 -1 -12 -1q-49 0 -84 58q-39 66 -51 138t-12 129zM6 -213q-3 -19 -2 -39 q0 -94 55 -203q131 86 209 233q63 118 63 239q0 29 -3 57q-25 -2 -49 -2q-87 0 -148 24q-113 -188 -125 -309z" />
<glyph unicode="g" horiz-adv-x="1206" d="M-27 -627q0 129 191.5 323.5t372.5 326.5l190 372l-6 6q-96 -111 -264 -234.5t-269 -123.5q-104 0 -154 102.5t-50 216.5q0 125 95 250t228 210t264 140.5t215 63.5q9 1 19 1q37 0 77 -13q50 -16 50 -56q0 -49 -90 -110l-312 -170q-16 -10 -71.5 -39l-77 -41t-65.5 -40 t-63.5 -49.5t-41 -54t-28.5 -67.5q-4 -19 -4 -39q0 -18 3 -37q2 -29 43 -28q5 0 11 -1q61 0 157 44q104 47 178 127l293 321q68 76 103 76q39 0 71.5 -50t32.5 -89q0 -33 -57 -140l-205 -381l6 -6l414 297l12 -112l-573 -432q-197 -313 -368 -471t-265 -158q-27 0 -44.5 19 t-17.5 46z" />
<glyph unicode="h" horiz-adv-x="1202" d="M-27 297q0 127 41 231.5t125 241.5q217 360 544 684t413 324q41 0 78.5 -18.5t37.5 -53.5q0 -86 -235.5 -375t-452.5 -518l-352 -364v-105q18 16 114 95l177 145q82 66 184.5 140.5t181 117.5t121.5 43q49 0 90 -42t41 -89q0 -43 -141 -209q-80 -98 -117 -148.5 t-41 -61.5t-4 -30q0 -57 62 -57q25 0 62.5 15.5t83.5 42t80 48.5l82 55q48 32 58 37l15 -110q-6 -4 -65 -49l-87 -67l-90 -66q-61 -45 -103 -70l-95 -54q-52 -30 -94 -43.5t-71 -13.5q-57 0 -92 42t-35 102q0 49 18.5 102t57.5 117.5t66 99.5l82 106q55 71 63 83l-6 4 q-154 -106 -288 -227t-200.5 -199t-119.5 -129t-80 -51q-63 0 -86 93t-23 181z" />
<glyph unicode="i" horiz-adv-x="755" d="M-35 283q0 156 92.5 313.5t210 250.5t201.5 93q119 0 119 -76q0 -90 -133 -234.5t-250 -223.5q-5 -27 -5 -50q0 -122 148 -123q53 0 111.5 27t97.5 53.5t101.5 76.5l84.5 67l25 -103q-125 -154 -277.5 -274.5t-291.5 -120.5q-111 0 -172.5 102.5t-61.5 221.5zM506 1112 q0 82 78 145.5t159 63.5q39 0 65 -24.5t26 -59.5q0 -84 -67 -164t-151 -80q-49 0 -79.5 35t-30.5 84z" />
<glyph unicode="j" horiz-adv-x="976" d="M-166 -496q0 131 136 289t286 266l348 676q-78 -23 -276.5 -101.5t-313.5 -98.5q27 66 46.5 125t28.5 90.5t20 50.5q27 43 235 117l87 32l120 45q49 18 109.5 32.5t97.5 14.5q119 -4 119 -100q0 -49 -62 -166l-285 -547l7 -6l444 262l16 -120l-581 -342q-2 -6 -121 -201 t-216 -310.5t-169 -115.5q-76 -1 -76 108zM684 1237q0 82 78 145.5t160 63.5q37 0 62.5 -24.5t25.5 -59.5q0 -84 -66.5 -163t-150.5 -79q-49 0 -79 34t-30 83z" />
<glyph unicode="k" horiz-adv-x="1320" d="M-39 340q0 41 10.5 86t20.5 77t38 82l39 69q11 19 50 78t45 69q135 215 373.5 453.5t435.5 383.5q189 140 253 140h5q31 -2 49 -22.5t18 -47.5q0 -84 -235.5 -347t-555 -579.5t-343.5 -343.5l-6 -73l264 229q150 125 355.5 264t289.5 139q63 0 103 -64.5t40 -131.5 q0 -72 -36.5 -136.5t-108.5 -120t-131.5 -92t-150.5 -85t-124 -68.5q33 -45 49.5 -63.5t49.5 -36t78 -19.5h4q110 0 491 305l29 -112q-12 -8 -70 -60l-89 -80q-32 -29 -93 -79t-107.5 -81.5l-101.5 -65.5t-101 -50t-85 -16q-61 0 -118.5 28.5t-115 95t-80.5 100.5l-75 114 q-74 -66 -144 -187q-45 -82 -98 -82q-63 0 -92 120t-29 210zM479 438q63 -23 105 -59l256 176q2 4 18 14.5t24.5 17.5t25 19.5t24.5 23.5t18.5 23.5t14.5 23.5t4 23q0 20 -35 21q-74 0 -237 -104.5t-218 -178.5z" />
<glyph unicode="l" horiz-adv-x="817" d="M-16 328q0 209 81.5 427t217.5 384q186 231 355 391t230 160q31 0 44 -33q12 -28 12 -60q0 -90 -33 -209q-25 -89 -91.5 -215t-204.5 -287t-353 -368q-26 -52 -27 -115q0 -35 8 -73q47 -117 137 -117q166 0 467 272l39 -82q-92 -96 -137 -139t-144.5 -128t-188.5 -124 t-171 -39q-241 1 -241 355zM297 774l6 -6q137 131 255 302t155 294q-191 -92 -416 -590z" />
<glyph unicode="m" horiz-adv-x="1933" d="M-31 313q4 197 167 412q151 200 270 200q9 0 18 -1q4 0 22.5 -3l28.5 -4.5t26.5 -5.5t25 -9t14.5 -16.5t6 -25.5q0 -45 -109 -174q-14 -16 -69.5 -73.5t-79.5 -92.5q-6 -8 -23.5 -29.5t-27 -36t-19.5 -36t-10 -39.5q0 -25 20 -25q10 0 54 43l159 160q88 86 216 200.5 t243 189.5t178 75q53 0 82 -36t29 -90t-47 -137t-118 -181.5t-87 -128.5l4 -5l604 478q96 76 129 75q10 0 21.5 -16t23 -36.5t13.5 -22.5q49 -78 49 -111q0 -45 -84 -137q-152 -164 -191 -226.5t-41 -115.5q-4 -25 17.5 -49.5t46.5 -18.5q41 8 63.5 17.5t111.5 64.5l249 160 l16 -127q-4 -2 -51 -39l-70 -55l-76 -60l-89 -65q-34 -25 -86 -59.5t-90 -56.5l-80 -44q-42 -23 -74.5 -33t-57.5 -10q-59 0 -99 47t-40 111q0 33 11.5 73.5t24.5 74.5t41 83l42 74q14 25 46 75l38 60l-6 6l-432 -397l-41 -40q-37 -36 -52 -48l-47 -39q-33 -27 -60.5 -36 t-53.5 -9q-49 0 -83 32.5t-38 82.5q-2 102 239 473q16 16 16.5 35.5t-18.5 19.5q-23 0 -106 -84q-283 -301 -422 -471q-66 -78 -117 -78q-59 0 -100 60.5t-55.5 126t-14.5 124.5z" />
<glyph unicode="n" horiz-adv-x="1251" d="M-39 272v11q0 130 96 301q100 178 226 284q39 33 106 33q74 -2 111 -15.5t38 -20.5t1 -23q0 -57 -171 -238.5t-171 -208.5q0 -31 28 -30q25 0 56 38q150 190 438.5 401.5t359.5 211.5q20 0 43 -51q31 -76 41 -148q0 -41 -83 -128t-168 -189.5t-85 -184.5 q0 -18 15.5 -33.5t34.5 -15.5q72 0 235 137l162 136l22 -119q-2 -4 -160.5 -160t-266 -229.5t-195.5 -73.5q-74 0 -114 51t-40 127q0 47 12.5 95.5t48.5 110.5l50 88q14 26 68.5 99.5t54.5 75.5l-4 6q-227 -170 -420 -417q-147 -184 -215 -185q-80 0 -115 84t-39 180z" />
<glyph unicode="o" horiz-adv-x="1077" d="M-33 373v16q0 252 248 442q231 186 510 201h8q49 0 93 -23q48 -26 48 -75q0 -37 -63 -74q57 -16 77.5 -54t20.5 -106q0 -25 -2 -49t-9 -50t-12 -42t-20 -48l-19 -43q-5 -11 -23 -46l-21 -43q16 -3 31 -3q26 0 53 8q43 13 68.5 32.5t67.5 56.5t60 49l29 -112 q-94 -119 -194.5 -170.5t-247.5 -51.5q-199 -205 -420 -204q-111 0 -193 104.5t-90 284.5zM168 287q0 -104 121 -105q41 0 82 17.5t63.5 36t63.5 55.5q-33 74 -33 125q0 63 32.5 142t60.5 127t26 50q-248 -143 -303 -198q-47 -47 -80 -118t-33 -132z" />
<glyph unicode="p" horiz-adv-x="1329" d="M-275 -438q0 181 168 422q150 213 439 700l-4 4l-432 -409l-11 126l723 777q8 8 35 40.5t40 44.5l38 31q25 20 49.5 26.5t54.5 6.5q41 0 83 -14t42 -51q0 -16 -13 -42t-39 -55.5t-48 -51.5l-51 -50q-29 -29 -33 -37q-166 -178 -231 -321l4 -7q369 264 540 265 q53 0 84 -37t31 -90q0 -219 -442 -609q31 -2 60 -1q127 0 201 36q91 45 318 244l21 -125q-186 -180 -364.5 -286.5t-377.5 -106.5q-84 0 -194 55q-80 -16 -125 -16q-37 0 -109 16l-256 -502q-59 -115 -123 -114q-78 0 -78 131zM369 307q23 2 45 2q96 0 182 -28l195 229 q68 86 67 133q0 37 -31 37q-51 0 -209 -109q-116 -84 -249 -264z" />
<glyph unicode="q" horiz-adv-x="1230" d="M-43 319q0 117 50 201t153 180q147 135 380.5 232.5t434.5 97.5q72 0 96 -24q29 -31 29 -68q0 -25 -43 -70q66 -20 65 -98q0 -53 -65.5 -150.5t-153.5 -203t-110 -142.5q22 -9 47 -8q46 0 99 29q83 45 280 201l30 -103l-317 -280q2 -17 2 -35q0 -206 -266 -484 q-113 -117 -267.5 -222t-207.5 -105q-49 0 -80 64.5t-31 117.5q0 25 9 53.5t21 46.5l29 49l27 42q80 127 180 265l233 309l197 259l-4 6q-6 -6 -158.5 -148.5t-267.5 -224t-182 -81.5q-66 0 -137.5 86.5t-71.5 207.5zM156 264h10q121 0 317 130q205 136 439 413l-4 2 q-354 -96 -590 -256q-96 -66 -130 -123t-42 -166zM328 -465q127 51 266 190.5t139 243.5q0 20 -6 58q-47 0 -100 6l-174 -242q-92 -129 -125 -256z" />
<glyph unicode="r" horiz-adv-x="946" d="M-147 373q92 74 180 198q-43 4 -58.5 22.5t-15.5 63.5q0 129 137 260.5t207 131.5q18 0 33.5 -13.5t15.5 -34.5q0 -33 -20 -75l138 20l120 18q37 5 82 9q23 2 39 2t26 -2q20 -4 29 -12q57 -72 65 -144q0 -41 -18 -74.5t-37 -50.5l-59 -51q-213 -184 -213 -311 q0 -33 25.5 -54.5t58.5 -21.5q53 0 119.5 39t158.5 120t101 85l18 -101q-113 -131 -292 -275.5t-279 -144.5q-82 0 -133.5 64.5t-51.5 146.5q0 37 6.5 74t25 77t31.5 65.5t45 67.5l44 58q12 16 51 63.5t47 55.5l-6 4l-283 -61q-43 -70 -95 -123t-123.5 -116.5t-106.5 -98.5z " />
<glyph unicode="s" horiz-adv-x="976" d="M-246 289q0 31 66 96l592 541q4 74 45 126t110 52q59 0 80 -20.5t27 -82.5q2 -35 26.5 -141t24.5 -174q0 -281 -354 -496q32 -6 63 -5q49 0 96 14q78 23 122 51.5t132 93.5l164 125l27 -104q-164 -164 -349 -288q-174 -116 -313 -116h-18q-147 6 -273 88t-161 223 q-35 -35 -60 -34q-18 0 -32.5 16.5t-14.5 34.5zM23 412q45 -2 89 -31t65.5 -55.5t55.5 -75.5q129 80 170 135t46 170q-16 121 -35 223z" />
<glyph unicode="t" horiz-adv-x="794" d="M-150 371q289 221 414 436q-41 0 -76.5 1t-46.5 1h-29q-19 0 -41 -4t-65 -10l29 49q117 195 185.5 240.5t275.5 54.5q10 16 38 55l40 57q13 18 41 48t50.5 43.5t57.5 24.5t72 11q88 0 88 -51q0 -16 -13.5 -44t-28.5 -48l-37 -50q-22 -30 -28 -36l170 -12 q-102 -205 -135 -246q-76 -98 -248 -98q-33 0 -67 2q-248 -322 -248 -506q0 -96 82 -96q14 0 28.5 3t34 11t33.5 15t41 24l47 29l57 39l64 45l76 55l88 63l12 -121q-8 -8 -57 -53l-69 -62l-71 -63q-51 -45 -80 -66l-79 -59q-49 -37 -86 -56.5t-82 -39.5t-84 -29.5t-78 -9.5 q-78 0 -125 50t-47 132q0 115 72 273l-7 6l-139 -113z" />
<glyph unicode="u" horiz-adv-x="1300" d="M-43 281q0 184 116.5 369.5t262.5 281.5q45 29 119 29q6 0 32.5 2t46 2t44 -4.5t36 -19.5t7.5 -36q-2 -31 -40 -76t-69 -69q-115 -131 -207 -197q-74 -51 -111.5 -102t-37.5 -131q0 -41 20 -41q41 0 139.5 56t188.5 136l270 244q2 2 54 50l92 83l92 80q53 45 94 70.5 t59 25.5q26 0 45 -41t19 -112q0 -61 -113 -162q-90 -82 -185 -208t-95 -208q0 -61 69 -61q96 0 418 256l16 -117l-77 -77l-104 -99l-106 -94q-71 -61 -121 -93t-110.5 -58t-109.5 -26q-74 0 -117 53.5t-43 127.5q0 78 57 229l-6 4q-23 -18 -118 -118.5t-174 -160t-146 -59.5 q-92 0 -149.5 86.5t-57.5 184.5z" />
<glyph unicode="v" horiz-adv-x="1157" d="M-25 387q0 172 90.5 326.5t188.5 232.5t152 78q164 0 163 -63q0 -80 -128 -239t-226 -241q-41 -129 -41 -159q0 -106 66 -107q84 0 352 254q-1 10 -1 21q0 128 136 301q172 225 266 225q82 0 82 -90q0 -70 -76.5 -214.5t-148.5 -246.5q39 -35 92 -35q72 0 232 109 l20 -115q-170 -193 -350 -193q-18 0 -40 8.5t-32 13.5t-36.5 25.5t-33.5 24.5q-76 -88 -231.5 -208t-224.5 -120q-117 0 -194 125t-77 287z" />
<glyph unicode="w" horiz-adv-x="1728" d="M-27 362q2 141 56.5 240.5t169.5 214.5q113 113 180 168t96 67q21 8 44 8q8 0 18 -1q160 -8 159 -86q0 -90 -155.5 -247t-307.5 -273q-20 -43 -20 -156q0 -59 28.5 -59t125 77.5t143.5 122.5l387 398q119 150 154 149q31 0 81 -17.5t50 -37.5q0 -39 -62 -137 q-72 -109 -158.5 -277t-86.5 -233q0 -53 51 -54q35 0 83 35t110.5 97.5t70.5 68.5q-4 30 -4 57q0 51 13 91q19 59 116 188q145 190 231 190q45 0 66.5 -45t21.5 -92q0 -160 -184 -383q61 -39 94 -39q59 0 215 123l6 -119q-158 -164 -299 -163q-72 0 -163 53 q-31 -20 -134.5 -117.5t-190.5 -159t-155 -61.5q-53 0 -98 53q-41 51 -49 109q-4 35 -4 87t4 122q-18 -16 -112.5 -117t-169.5 -157q-70 -53 -128 -52h-8q-119 4 -204 105q-81 97 -81 245v14z" />
<glyph unicode="x" horiz-adv-x="946" d="M-92 51q0 45 94 162q57 68 145 92l144 127l-2 328q-39 -18 -77 -39l-60 -33l-46 -23l-32 -17q-10 -5 -21.5 -9t-15.5 -5t-10 -1q-29 4 -29 35q0 43 209 221t270 178q54 0 54 -110q0 -15 -1 -31l-8 -248l244 221q98 92 156 92q27 0 34 -43q1 -5 1 -11q0 -51 -77 -150 q-76 -95 -146 -95q-11 0 -21 2l-187 -188l-4 -113q-4 -129 99 -129q31 0 67.5 15.5t78.5 46.5l72 54l73 61q44 38 55 46l16 -108q-18 -16 -150.5 -148.5t-233.5 -203t-185 -70.5q-43 0 -72 20.5t-40 67.5t-15 75q-2 16 -3 44q0 21 2 50q3 67 3 69l-158 -152 q-125 -117 -180 -117q-43 0 -43 37z" />
<glyph unicode="y" horiz-adv-x="1202" d="M-18 365q0 7 -1 14q0 141 114 299q120 166 245 263t172 99q31 0 74 -47t43 -78q0 -68 -145.5 -220t-252.5 -238q-47 -68 -51 -158q150 16 389 240l155 144l133 127l97 93q47 45 78 66.5t43 23.5q3 1 7 1q27 0 45 -46q22 -51 22 -90q0 -74 -111 -240l-403 -600l6 -4 l604 537l21 -102l-820 -902q-6 -4 -28 -31l-39 -48q-16 -20 -40 -38t-40 -18q-37 0 -59.5 65.5t-22.5 112.5q0 45 74 164l366 617l-6 6q-397 -334 -453 -334h-1q-68 6 -139.5 94.5t-75.5 227.5z" />
<glyph unicode="z" horiz-adv-x="1001" d="M-188 -528q0 68 42 140.5t86 114.5t117 99l355 283q-18 80 -51 106.5t-123 50.5q-4 0 -26 6.5t-30 8.5t-23.5 10t-19.5 19.5t0 25.5q4 41 56.5 83t187.5 137t252 189l-6 7l-332 -58l-311 -338l-29 90l190 232q-74 14 -73 74q0 74 114.5 182t182 108t67.5 -94 q92 12 173 32.5t124 33t66 12.5q33 0 60.5 -87t27.5 -128q0 -51 -82 -106l-350 -252q111 -82 143 -215l430 331l8 -116l-436 -379q-23 -154 -105.5 -294t-186 -231.5t-204 -145.5t-172.5 -62q-7 -1 -13 -1q-43 0 -74 34q-35 41 -35 98zM-51 -522q143 37 289.5 180t171.5 285 l-314 -246q-135 -106 -147 -219z" />
<glyph unicode="{" horiz-adv-x="952" d="M156 -197q8 90 49 191l139 495q26 94 26 156q0 22 -3 40q-12 69 -80 97h2v4q90 31 136 93.5t85 199.5l119 439q16 57 26.5 87.5l27.5 78t31.5 71t42 56t57.5 49t73 33t94 22.5t118 7h15q60 0 131 -7v-6q-88 -27 -139 -94.5t-88 -198.5l-127 -463q-49 -178 -105.5 -257 t-152.5 -112h-4v-6q96 -27 104 -110q1 -8 1 -19q0 -62 -42 -205l-145 -501q-28 -98 -28 -161q0 -21 3 -37q12 -67 80 -101l-2 -6q-70 -4 -128 -4q-220 0 -271 55q-45 46 -45 114z" />
<glyph unicode="|" horiz-adv-x="1101" d="M621 -680v2728h215v-2728h-215z" />
<glyph unicode="}" horiz-adv-x="952" d="M-88 -348q88 27 140 95.5t87 197.5l127 465q49 176 105.5 254.5t154.5 111.5h2v6q-96 27 -104 111q-1 8 -1 19q0 62 42 204l145 502q30 100 30 162q0 20 -3 36q-12 67 -82 101l4 6q69 4 127 4q218 0 270 -55q45 -47 45 -115q-8 -90 -47 -190l-139 -496q-28 -94 -28 -156 q0 -21 4 -38q12 -70 81 -99h-4v-4q-90 -31 -136 -93.5t-83 -199.5l-121 -438l-25 -88q-9 -31 -27.5 -77t-33 -70.5t-42 -57.5t-57.5 -49t-72 -32.5t-94 -22.5t-119 -7q-7 0 -15 -1q-60 0 -131 8v6z" />
<glyph unicode="~" horiz-adv-x="1630" d="M238 610q61 115 163.5 184.5t219.5 69.5q45 0 93 -12t70.5 -22.5l75.5 -37t55 -30.5q141 -82 205 -88q18 -4 41 -4q78 0 136.5 46t121.5 144l99 -94q-145 -254 -357 -254q-55 0 -108.5 15.5t-87.5 32.5l-117 61q-154 88 -244 88q-82 0 -141.5 -49.5t-124.5 -141.5z" />
<glyph unicode="&#xa1;" horiz-adv-x="1067" d="M-25 -645q0 37 80 196l488 951q-14 27 -15 45q0 41 26 81t64 40q49 0 106.5 -50.5t57.5 -97.5t-82 -237l-385 -877l-12 -33q-14 -33 -19 -41t-20.5 -29.5t-32 -28.5t-34.5 -7q-14 0 -36 4t-46.5 11t-32.5 9q-2 0 -20.5 4.5t-31 8.5t-25.5 11t-21.5 16.5t-8.5 23.5z M612 889q0 92 48.5 190.5t132.5 98.5q55 0 101 -40t46 -91q0 -92 -46 -213t-112 -121q-72 0 -121 52t-49 124z" />
<glyph unicode="&#xa2;" d="M289 760q0 256 229 471q59 57 157.5 101t147.5 58l185 48q16 29 39.5 76t33.5 64l29 50q18 33 26.5 45.5t25 32.5t26.5 27l27 16q17 10 36 13t39.5 5t46.5 2q51 0 52 -30q0 -53 -86 -148q-53 -53 -80 -121q129 0 163 -28q66 -53 66 -176q0 -29 -5 -48.5t-23.5 -33 t-29 -18.5t-46.5 -21q-109 -55 -125 -55q-27 0 -27 24q0 27 27 55l-152 -12l-149 -346q25 6 92 19.5t117.5 27.5t87.5 33q59 31 71 31q39 0 39 -136q0 -57 -28.5 -104t-63.5 -75.5t-103.5 -56.5t-108.5 -40t-119 -29.5t-97 -23.5q-27 -125 -27 -316q-16 2 -52 10.5t-50 12.5 t-38 15t-33 24.5t-17 37t-8 56.5q0 49 28 164q-166 12 -244.5 76.5t-78.5 222.5zM528 864q-2 -9 -1 -17q0 -22 12 -38q16 -23 47.5 -31t59.5 -9t59 -1l145 338q-295 -64 -322 -242z" />
<glyph unicode="&#xa3;" horiz-adv-x="1634" d="M-346 43q0 33 31.5 89t65.5 101l81 107l59 76l383 57l199 246q-54 12 -123 11q-90 0 -207 -19q66 104 111 134q35 23 113 23q22 0 47 -2l170 -10l125 166l571 721q147 186 271 265q112 71 182 71h14q68 -8 114 -62.5t46 -118.5q0 -92 -58.5 -219t-160 -290.5 t-121.5 -206.5q45 -12 49 -29q2 -6 2 -14q0 -23 -21.5 -51.5t-61.5 -61.5l-71 -56l-73 -56q-43 -32 -48 -33q-94 -70 -124 -70q-66 0 -66 103.5t88 271.5t178 274q124 153 124 193q0 14 -15 14q-14 0 -66 -43q-106 -115 -218 -250l-241 -297l-208 -254q45 -6 91 -18t92 -42 t46 -69q0 -57 -66 -57q-18 0 -60 11t-50 11l-164 33l-182 -211q225 -12 625.5 -119.5t500.5 -128.5q-27 -25 -106.5 -121t-148 -145t-150.5 -49q-59 0 -164 23l-354 82q-111 25 -313 50q-187 24 -341 23h-24l-62 -30l-82 -41q-33 -16 -74.5 -29.5t-70.5 -13.5 q-33 0 -58.5 16t-25.5 45z" />
<glyph unicode="&#xa4;" horiz-adv-x="1890" d="M512 344l180 184q-123 150 -123 357q0 219 123 354l-180 180l117 111l166 -195q119 106 295 107q184 0 299 -107l170 195l110 -111l-178 -180q125 -133 125 -354q0 -92 -37 -191.5t-94 -163.5l184 -186l-115 -113l-170 205q-123 -104 -294 -104q-182 0 -295 98l-168 -199 zM754 885q0 -174 97 -281.5t241.5 -107.5t241 108.5t96.5 280.5t-98.5 282.5t-239.5 110.5h-5q-139 0 -236 -110.5t-97 -282.5z" />
<glyph unicode="&#xa5;" horiz-adv-x="2205" d="M115 1245q-5 8 -5 18q0 21 21 52l41 102q18 45 62.5 74t136.5 68q291 117 673.5 239.5t597.5 140.5q31 3 60 3q60 0 109 -12q73 -17 77 -64q0 -16 -14 -41t-39 -51l-52 -55q-28 -28 -65 -59.5t-64 -51.5l-60 -45q-32 -25 -40 -33l-226 -178l-178 -139l-118 -90 q-55 -42 -74.5 -66.5t-19.5 -40.5q0 -10 19 -18q9 -3 24 -3q16 0 40 4q44 8 93 35l1147 635q143 86 184 88q10 1 19 1q50 0 93 -27q55 -36 55 -72q0 -12 -12 -29q-15 -20 -60 -61l-101 -91l-161 -152l-216 -212q-139 -139 -180 -196l148 14q95 8 166 7q200 0 225 -58 q8 -29 -10.5 -46.5t-58.5 -25.5t-73.5 -12t-73.5 -4h-42l-398 -33q-14 -18 -38.5 -59.5t-36.5 -59.5l133 12q107 12 185 12q181 0 206 -63q8 -27 -10.5 -45t-58.5 -26.5t-73.5 -12.5t-73.5 -4h-42l-354 -33l-3 -2l-213 -375q-10 -78 -93 -141q-80 -62 -171 -61h-6 q-53 0 -92 29.5t-39 66.5q0 117 229 432q-184 -29 -337 -82q55 115 113.5 156t234.5 74l98 18l82 113q-125 -20 -324 -80q41 82 71 118.5t94.5 65.5t187.5 47l94 17q188 238 467 458l-13 2l-862 -477q-317 -174 -446 -184q-23 -2 -47 -3q-35 0 -71 6q-60 9 -98 34 q-31 20 -31 44q0 5 1 11q0 2 2 16.5t5 22.5t18.5 30.5t37 46t63.5 64.5t98 88l144 116l193 146l115 86l135 99l90 70q49 40 65.5 61.5t16.5 36.5q0 8 -16.5 13t-30.5 1q-752 -256 -1085 -401q-49 -23 -105 -27q-49 -4 -59 8z" />
<glyph unicode="&#xa6;" horiz-adv-x="1101" d="M621 -473v950h213v-950h-213zM621 889v954h213v-954h-213z" />
<glyph unicode="&#xa7;" horiz-adv-x="1497" d="M133 -57l107 178q141 -104 368 -105q127 0 237.5 52.5t135.5 152.5q6 22 6 43q0 57 -51 96q-70 53 -260 111q-236 72 -333 164q-68 65 -68 166q0 43 12 92q20 90 98 175t201 134q-65 66 -65 158q0 35 9 74q47 190 228.5 291.5t423.5 101.5q236 0 389 -86l-94 -180 q-125 80 -330 79q-137 0 -237.5 -51t-118.5 -135q-5 -17 -5 -33q0 -56 56 -94q72 -49 270 -113q215 -74 303 -168q62 -67 62 -166q0 -41 -11 -87q-47 -180 -276 -320q43 -37 58 -105q7 -33 8 -65q0 -33 -9 -63q-35 -141 -153.5 -238.5t-249.5 -133.5t-269 -36 q-295 0 -442 111zM528 932q-4 -20 -4 -38q0 -57 43 -97q57 -53 217 -105q199 -63 287 -117q123 66 152 179q7 26 6 49q0 55 -37 95q-53 56 -186 99q-199 66 -301 111q-150 -70 -177 -174v-2z" />
<glyph unicode="&#xa8;" horiz-adv-x="1218" d="M425 1461q46 69 118 69q13 0 26 -2q43 -6 66.5 -11.5t49.5 -27t24 -55.5q-8 -72 -54.5 -146t-115.5 -74q-59 0 -117 28q-54 26 -54 72q0 63 57 147zM943 1461q46 69 118 69q13 0 26 -2q43 -6 67 -11.5t49 -26.5q22 -19 22 -47v-9q-6 -72 -53.5 -146t-114.5 -74 q-59 0 -117 28q-55 27 -55 75q0 57 58 144z" />
<glyph unicode="&#xa9;" horiz-adv-x="2369" d="M168 961.5q0 422.5 297 719.5t720 297t720 -297t297 -719.5t-297 -719.5t-720 -297t-720 297t-297 719.5zM424 961.5q0 -308.5 226.5 -534.5t534.5 -226t534.5 226t226.5 534.5t-226.5 534.5t-534.5 226t-534.5 -226t-226.5 -534.5zM657 974.5q0 272.5 151 433.5 q138 148 348 148q19 0 38 -2q215 -16 333 -107t154 -298h-268q0 16 -4 29l-6 18q-2 6 -17 24l-22 27q-74 68 -174 68q-258 0 -258 -340t258 -340q90 0 156.5 49t66.5 117h268q-37 -213 -159 -305q-113 -86 -328 -101q-22 -2 -43 -1q-207 0 -343 147q-151 161 -151 433.5z " />
<glyph unicode="&#xaa;" horiz-adv-x="1044" d="M239 1451q0 138 238 270q244 136 422 143h7q47 0 76 -28q32 -30 32 -52q0 -18 -64 -41q51 -20 51 -66q0 -25 -76.5 -113.5t-76.5 -129.5q0 -39 53 -39q29 0 63.5 15t60.5 29.5t65 40.5l51 33l12 -61q-55 -59 -190.5 -150.5t-194.5 -91.5q-84 0 -84 86q0 66 66 183l-5 -2 l-4 6l-157 -121q-156 -121 -189 -121q-39 0 -96 72q-60 74 -60 138zM240 1010v90h913v-90h-913zM377 1403q0 -25 26 -25q92 0 439 320l-6 4q-281 -82 -370 -152.5t-89 -146.5z" />
<glyph unicode="&#xab;" horiz-adv-x="1040" d="M104 674q0 61 76 160l71 111l83 131q37 60 63 122q6 -16 32 -65.5t41 -87t15 -70.5t-61 -107q-29 -33 -75 -106.5t-46 -99.5q0 -10 13.5 -31t50 -46.5t88.5 -39.5q115 -31 114 -131q0 -45 -27.5 -76t-72.5 -31q-84 0 -232 140q-134 126 -134 209q-1 9 1 18zM563 674 q0 61 78 160l71 111l83 131q37 60 63 122q6 -16 31.5 -65.5t41 -87t15.5 -70.5t-61 -107q-29 -33 -76 -106.5t-47 -99.5q0 -10 14.5 -31t51 -46.5t87.5 -39.5q115 -31 115 -131q0 -45 -27.5 -76t-72.5 -31q-86 0 -235 140q-134 126 -133 209q-1 9 1 18z" />
<glyph unicode="&#xac;" horiz-adv-x="1673" d="M303 874v164h1241v-751h-168v587h-1073z" />
<glyph unicode="&#xad;" horiz-adv-x="870" d="M0 633v239h817v-239h-817z" />
<glyph unicode="&#xae;" horiz-adv-x="2369" d="M168 961.5q0 422.5 297 719.5t720 297t720 -297t297 -719.5t-297 -719.5t-720 -297t-720 297t-297 719.5zM424 961q0 -303 228.5 -531.5t533.5 -228.5t532.5 228t227.5 532q0 309 -226.5 535t-534.5 226t-534.5 -226t-226.5 -535zM766 489v1002h487q205 0 273 -45 q119 -74 119 -260q0 -252 -250 -273l221 -424h-277l-202 424h-131v-424h-240zM1006 1087h239q78 0 119 26t41 97q0 47 -38 74t-71.5 29t-91.5 2h-198v-228z" />
<glyph unicode="&#xaf;" horiz-adv-x="925" d="M184 1090q0 6 4.5 38.5t7.5 47t10 44t13 45t18.5 35t28.5 25.5q12 5 28 5q5 0 11 -1q117 -10 244 -13q54 -1 118 -1q85 0 188 2q179 4 261 4v-6q-8 0 -41 -114q-32 -112 -66 -112q-1 0 -1 1q-240 12 -446 12t-378 -12z" />
<glyph unicode="&#xb0;" horiz-adv-x="1308" d="M453 1395q0 172 107.5 279.5t258.5 107.5h4q160 0 263.5 -111.5t103.5 -275.5q0 -174 -106.5 -277.5t-264.5 -103.5q-152 0 -259 103.5t-107 277.5zM596 1397q0 -117 64.5 -195t165 -78t161 74t60.5 193.5t-58.5 197.5t-169.5 78h-2q-98 0 -159.5 -73.5t-61.5 -196.5z " />
<glyph unicode="&#xb1;" horiz-adv-x="1792" d="M416 823v162h538v518h168v-518h535v-162h-535v-544h-168v544h-538zM420 -8v158h1239v-158h-1239z" />
<glyph unicode="&#xb2;" horiz-adv-x="1019" d="M229 1001q0 25 16.5 52.5t49.5 57.5t69.5 58.5t88.5 61.5l93 57q42 25 98 54l89 47l80 39q47 24 55 30q6 2 30 14.5t36 17.5t35.5 18.5t39 24.5t37 24.5t34 27.5l26.5 28.5t19 30t5 29.5q0 8 -5 13.5t-15 6.5t-19.5 1t-21.5 -1t-18 -1q-174 0 -480 -131v-7l107 -8 q2 0 17.5 -2t23.5 -5t16 -10t8 -18q0 -25 -43 -28l-190 -33q-41 -8 -61 -8q-39 0 -39 61q0 43 30.5 112.5t65.5 106.5q72 72 241.5 120t301.5 48q104 0 146 -52t42 -218q0 -70 -25.5 -110t-95.5 -93q-57 -45 -356 -201.5t-379 -218.5l6 -6l684 113q-55 -139 -78 -170 q-72 -92 -325 -117q-92 -10 -228 -14q-117 0 -137 20q-74 65 -74 178z" />
<glyph unicode="&#xb3;" horiz-adv-x="1107" d="M168 942q0 31 60.5 94.5t93.5 63.5q27 0 26 -19q0 -14 -41 -49q74 -27 172 -26q188 0 354 66.5t166 117.5q0 31 -38.5 52.5t-100 30.5t-104.5 12t-80 3q-88 0 -156 -16q-8 0 -27.5 -3t-23.5 -3q-29 0 -29 37q0 61 56 122q49 51 139 62q586 66 586 178q0 70 -181 70 q-172 0 -378 -70v-6l34 -6q14 0 40 -6.5t26 -20.5q0 -18 -29 -18q-55 -12 -166 -13q-90 0 -90 88q0 84 168 144q125 45 348 45q74 0 126 -6t113.5 -23.5t92.5 -60.5t31 -109q0 -45 -33 -94t-76 -74q-2 -2 -14 -8t-15.5 -8t-13.5 -6t-21.5 -6t-28.5 -8.5t-41 -11.5l-55 -12 l-75 -17l-93 -20q-50 -11 -122 -24v-6q215 -31 287 -71q82 -51 82 -144q0 -121 -177.5 -238.5t-472.5 -117.5q-152 0 -235.5 43t-83.5 92z" />
<glyph unicode="&#xb4;" horiz-adv-x="952" d="M307 1133q0 61 78 112q53 35 328 117l161 49q55 16 84 16q18 0 30.5 -5t19 -20.5t8.5 -24.5t4 -33.5t2 -32.5q5 -32 5 -54q0 -16 -3 -27q-6 -26 -23 -31q-9 -3 -31 -3q-18 0 -44 2q-29 2 -60 2q-81 0 -172 -12q-174 -25 -258 -58q-55 -23 -90 -22q-39 0 -39 25z" />
<glyph unicode="&#xb5;" horiz-adv-x="1300" d="M-424 -397q-75 40 -75 95q0 82 161 198q195 139 469 665q119 229 334 371q47 29 121 29q6 0 32.5 2t46 2t44 -4.5t35 -19.5t8.5 -36q-2 -31 -40 -76t-69 -69q-115 -131 -207 -197q-59 -41 -104 -104.5t-45 -128.5q0 -39 20 -43q41 2 139.5 58t188.5 136l270 244 q2 2 53 50l92 83l93 80q53 45 94 70.5t59 25.5q24 0 44 -41.5t20 -111.5q0 -61 -113 -162q-90 -82 -185 -208t-95 -208q0 -61 67 -61q98 0 420 256l16 -117l-78 -77l-104 -99q-35 -33 -105.5 -94.5t-121.5 -93t-110.5 -57.5t-108.5 -26q-74 0 -118 53.5t-44 127.5 q0 78 57 229l-4 4q-23 -18 -118 -118.5t-174 -160t-146 -59.5q-88 0 -180 119q-150 -303 -294 -442q-103 -100 -184 -100q-32 0 -61 16z" />
<glyph unicode="&#xb6;" horiz-adv-x="1787" d="M649.5 1649.5q186.5 158.5 595.5 158.5q215 0 338 -24v-1915h-186v1765h-195v-1765h-184v827h-33q-211 0 -368 132q-155 130 -154 380q0 283 186.5 441.5z" />
<glyph unicode="&#xb7;" horiz-adv-x="819" d="M338 518q0 90 84 202q70 93 155 93q17 0 35 -4q6 0 30 -4t37 -8t30.5 -12.5t26.5 -25t9 -38.5q0 -16 -21.5 -88t-79.5 -155q-53 -75 -121 -75h-13q-49 6 -79 12.5t-61.5 32t-31.5 70.5z" />
<glyph unicode="&#xb8;" horiz-adv-x="925" d="M2 -360q0 31 25 30q16 0 78.5 -29.5t109.5 -29.5q51 0 95 25.5t44 72.5q0 90 -155 90l104 201h111l-76 -150q18 2 36 2q77 0 141 -29q79 -36 79 -126q0 -100 -86 -147q-73 -39 -162 -39q-16 0 -33 2q-80 2 -195.5 38t-115.5 89z" />
<glyph unicode="&#xb9;" horiz-adv-x="966" d="M446 918q0 115 123 337l224 312l100 119l-4 6l-168 -58l-47 -16q-14 0 -15 39q6 45 82 82q10 4 89 45t137.5 68.5t81.5 27.5q27 0 51 -37q31 -51 30 -76q0 -43 -133 -256l-145 -223q-207 -315 -207 -436q0 -8 3 -26.5t3 -30.5q0 -20 -24 -21q-16 0 -39 12q-12 8 -47 23.5 t-49.5 25t-30 32t-15.5 51.5z" />
<glyph unicode="&#xba;" horiz-adv-x="911" d="M240 1010v90h778v-90h-778zM278 1476q0 151 158 267q150 113 332 121h8q30 0 59 -14q32 -15 31 -48q0 -18 -41 -43q63 -16 64 -94q0 -63 -70 -195q29 -4 55.5 4.5t43 18.5t45.5 34l38 32l17 -68q-111 -135 -285 -135q-137 -131 -272 -131q-72 0 -126 67q-57 70 -57 184z M414 1417q0 -33 16 -44t55 -11q70 0 136 57q-20 39 -21 76q0 25 10.5 56.5t22.5 54.5l27 49q15 27 16 28l-6 3q-10 -8 -56.5 -33t-78 -45.5t-56.5 -40.5q-65 -62 -65 -150z" />
<glyph unicode="&#xbb;" horiz-adv-x="1040" d="M176 1092q0 47 27.5 76.5t75.5 29.5q84 0 232 -140q134 -126 134 -207q0 -9 -2 -17q0 -63 -76 -160l-71 -113l-83 -131q-36 -59 -65 -123q-4 16 -30.5 65.5t-41 87.5t-14.5 70q0 31 60 107q31 33 76.5 106.5t45.5 100.5q0 12 -14 32.5t-50 46t-89 38.5q-115 31 -115 131z M637 1092q0 47 27.5 76.5t72.5 29.5q86 0 235 -140q134 -126 134 -207q0 -9 -2 -17q0 -63 -78 -160l-71 -113l-83 -131q-37 -59 -63 -123q-6 16 -31.5 65.5t-41 87.5t-15.5 70q0 31 61 107q29 33 76 106.5t47 100.5q0 12 -14 32.5t-51 46t-88 38.5q-115 31 -115 131z" />
<glyph unicode="&#xbc;" horiz-adv-x="2158" d="M256 -27l1475 1792h174l-1473 -1792h-176zM422 1636l299 119h197l-259 -1044h-223l215 858h-6l-215 -82zM1063 254l29 119l708 678h221l-163 -650h174l-35 -147h-174l-64 -254h-209l62 254h-549zM1288 403l2 -2h361l71 287q20 90 47 162l-6 2q-66 -74 -123 -131z" />
<glyph unicode="&#xbd;" horiz-adv-x="2271" d="M256 -27l1475 1792h174l-1473 -1792h-176zM422 1636l299 119h197l-259 -1044h-223l215 858h-6l-215 -82zM1210 0l31 129l238 162q238 162 338 253t122 173q5 20 6 39q0 42 -26 77q-37 50 -150 50q-141 0 -278 -82l-29 145q203 111 410 111q176 0 257 -87q58 -62 57 -148 q0 -35 -9 -72q-20 -74 -59 -135.5t-122 -131t-140.5 -110.5t-190.5 -127l-115 -72l-4 -6h504l-43 -168h-797z" />
<glyph unicode="&#xbe;" horiz-adv-x="2365" d="M193 768l88 154q98 -66 264 -66q125 0 211 46t104 120q4 16 4 31q0 57 -61 94q-78 47 -225 47h-89l33 137h90q121 0 215.5 43t110.5 109q2 10 2 20q0 40 -34 71q-42 38 -148 38q-133 0 -269 -70l-12 144q164 82 375 81q186 0 265 -71q59 -54 59 -130q0 -26 -7 -55 q-20 -84 -99 -146t-189 -95l-4 -6q121 -16 179 -87q41 -50 41 -113q0 -26 -7 -54q-33 -133 -182.5 -223.5t-370.5 -90.5q-231 0 -344 72zM465 -27l1474 1792h175l-1471 -1792h-178zM1272 254l31 119l704 678h221l-162 -650h172l-34 -147h-174l-64 -254h-207l66 254h-553z M1499 403l2 -2h359l73 287q20 78 47 162l-6 2l-125 -133z" />
<glyph unicode="&#xbf;" horiz-adv-x="1271" d="M-18 -444q0 248 190 475l354 418q8 12 25.5 29.5t25 26.5t13.5 28.5t6 37.5q0 12 -8 37t-8 37q0 63 61 63.5t107.5 -65t46.5 -131.5q0 -152 -195 -338l-313 -289q-4 -2 -41 -34.5t-49.5 -45t-37 -41t-33.5 -54t-9 -50.5q0 -41 16.5 -66.5t49 -36t58 -12.5t66.5 -2 q74 0 153 16.5t122 31t143 53.5l-29 10q-80 31 -80 65q0 49 58 50q6 0 47 -9l106 -16h28q22 0 32 -1t26.5 -5t24.5 -11.5t14 -20.5t6 -34q0 -37 -24.5 -109.5t-44.5 -109.5q-53 -86 -244.5 -136t-331.5 -50q-164 0 -247.5 65.5t-83.5 223.5zM684 877q0 92 47 190t133 98 q53 0 99.5 -39t46.5 -92q0 -92 -46 -212t-112 -120q-70 0 -119 52.5t-49 122.5z" />
<glyph unicode="&#xc0;" horiz-adv-x="2121" d="M-199 -96q0 80 144.5 229.5t320.5 212.5l213 234q-69 -5 -120 -6q-46 0 -77 5q-67 9 -67 55t123 171t221 156q86 31 165 38q19 2 33 2q48 0 54 -20q0 -25 -99.5 -37t-99.5 -36.5t39 -24.5q131 8 166 8l610 506q567 469 717 469q41 0 67.5 -38t26.5 -79q0 -47 -84 -199 l-337 -592q51 0 85.5 3.5t40 5.5t21.5 1t31.5 -4t70.5 -16q-94 -113 -202 -311l-219 -10l-170 -336q0 -43 47 -43q8 0 18 1t18.5 4t20.5 11t21.5 13.5t28.5 20.5l34 27q14 11 45 32l55 40l47 -69q-350 -352 -555 -353q-68 0 -103.5 46.5t-35.5 117.5q0 2 -1 7.5t-1 11.5 t3 20.5t9.5 33.5t21.5 53l36 78q20 44 54 111l77 146l-594 -20l-557 -555q-4 -2 -27 -26l-29 -31l-30 -28q-23 -22 -35 -30t-34.5 -24.5t-39 -22.5l-35 -12.5t-38.5 -6.5q-95 1 -95 60zM1096 924l4 -6l418 30l370 621l-6 6zM1526 2185q0 8 1 33t4 34l8 24q5 15 17.5 20.5 t30.5 5.5q31 0 86 -16l160 -50q274 -82 330 -116q76 -53 75 -113q0 -25 -36.5 -25t-90.5 23q-84 33 -260 57q-91 12 -172 12q-30 0 -59 -1q-23 -2 -41 -2q-44 0 -50 11q-6 9 -6 44q1 24 3 59z" />
<glyph unicode="&#xc1;" horiz-adv-x="2121" d="M-199 -96q0 80 144.5 229.5t320.5 212.5l213 234q-69 -5 -120 -6q-46 0 -77 5q-67 9 -67 55t123 171t221 156q86 31 165 38q19 2 33 2q48 0 54 -20q0 -25 -99.5 -37t-99.5 -36.5t39 -24.5q131 8 166 8l610 506q567 469 717 469q41 0 67.5 -38t26.5 -79q0 -47 -84 -199 l-337 -592q51 0 85.5 3.5t40 5.5t21.5 1t31.5 -4t70.5 -16q-94 -113 -202 -311l-219 -10l-170 -336q0 -43 47 -43q8 0 18 1t18.5 4t20.5 11t21.5 13.5t28.5 20.5l34 27q14 11 45 32l55 40l47 -69q-350 -352 -555 -353q-68 0 -103.5 46.5t-35.5 117.5q0 2 -1 7.5t-1 11.5 t3 20.5t9.5 33.5t21.5 53l36 78q20 44 54 111l77 146l-594 -20l-557 -555q-4 -2 -27 -26l-29 -31l-30 -28q-23 -22 -35 -30t-34.5 -24.5t-39 -22.5l-35 -12.5t-38.5 -6.5q-95 1 -95 60zM1096 924l4 -6l418 30l370 621l-6 6zM1710 1956q0 59 76 110q55 37 330 119l161 49 q53 16 84 17q18 0 30.5 -6.5t19 -20.5t8.5 -24.5t4 -35t2 -32.5q5 -30 5 -52q0 -16 -3 -27q-6 -26 -23 -32q-8 -3 -27 -3t-48 3q-29 2 -60 2q-81 0 -172 -12q-174 -25 -258 -57q-55 -23 -90 -23q-39 0 -39 25z" />
<glyph unicode="&#xc2;" horiz-adv-x="2121" d="M-199 -96q0 80 144.5 229.5t320.5 212.5l213 234q-69 -5 -120 -6q-46 0 -77 5q-67 9 -67 55t123 171t221 156q86 31 165 38q19 2 33 2q48 0 54 -20q0 -25 -99.5 -37t-99.5 -36.5t39 -24.5q131 8 166 8l610 506q567 469 717 469q41 0 67.5 -38t26.5 -79q0 -47 -84 -199 l-337 -592q51 0 85.5 3.5t40 5.5t21.5 1t31.5 -4t70.5 -16q-94 -113 -202 -311l-219 -10l-170 -336q0 -43 47 -43q8 0 18 1t18.5 4t20.5 11t21.5 13.5t28.5 20.5l34 27q14 11 45 32l55 40l47 -69q-350 -352 -555 -353q-68 0 -103.5 46.5t-35.5 117.5q0 2 -1 7.5t-1 11.5 t3 20.5t9.5 33.5t21.5 53l36 78q20 44 54 111l77 146l-594 -20l-557 -555q-4 -2 -27 -26l-29 -31l-30 -28q-23 -22 -35 -30t-34.5 -24.5t-39 -22.5l-35 -12.5t-38.5 -6.5q-95 1 -95 60zM1096 924l4 -6l418 30l370 621l-6 6zM1675 1954q0 90 172 157l219 86q162 63 226 64 q51 0 153 -113q4 -2 25 -21l33 -32q12 -12 24.5 -30.5t12.5 -32.5q0 -35 -58 -76q-45 -27 -55 -41q-23 10 -118 96t-140 86q-23 0 -137 -47l-240 -100q-82 -35 -92 -35q-25 0 -25 39z" />
<glyph unicode="&#xc3;" horiz-adv-x="2121" d="M-199 -96q0 80 144.5 229.5t320.5 212.5l213 234q-69 -5 -120 -6q-46 0 -77 5q-67 9 -67 55t123 171t221 156q86 31 165 38q19 2 33 2q48 0 54 -20q0 -25 -99.5 -37t-99.5 -36.5t39 -24.5q131 8 166 8l610 506q567 469 717 469q41 0 67.5 -38t26.5 -79q0 -47 -84 -199 l-337 -592q51 0 85.5 3.5t40 5.5t21.5 1t31.5 -4t70.5 -16q-94 -113 -202 -311l-219 -10l-170 -336q0 -43 47 -43q8 0 18 1t18.5 4t20.5 11t21.5 13.5t28.5 20.5l34 27q14 11 45 32l55 40l47 -69q-350 -352 -555 -353q-68 0 -103.5 46.5t-35.5 117.5q0 2 -1 7.5t-1 11.5 t3 20.5t9.5 33.5t21.5 53l36 78q20 44 54 111l77 146l-594 -20l-557 -555q-4 -2 -27 -26l-29 -31l-30 -28q-23 -22 -35 -30t-34.5 -24.5t-39 -22.5l-35 -12.5t-38.5 -6.5q-95 1 -95 60zM1096 924l4 -6l418 30l370 621l-6 6zM1724 2079q0 66 21.5 96.5t81.5 30.5l354 -35l6 6 q-96 66 -96 94q0 14 11.5 26.5t25.5 12.5q45 0 126 -79t81 -150q0 -115 -117 -115q-55 0 -168 21q-102 19 -159 18h-11q10 -8 21.5 -19.5t16.5 -15.5t10 -9l8 -8q3 -3 6.5 -7.5t3.5 -8.5v-8q0 -29 -29 -28q-18 0 -74 38l-25 19q-17 12 -28.5 18t-25 18.5t-21.5 24t-13.5 28 t-5.5 32.5z" />
<glyph unicode="&#xc4;" horiz-adv-x="2121" d="M-199 -96q0 80 144.5 229.5t320.5 212.5l213 234q-69 -5 -120 -6q-46 0 -77 5q-67 9 -67 55t123 171t221 156q86 31 165 38q19 2 33 2q48 0 54 -20q0 -25 -99.5 -37t-99.5 -36.5t39 -24.5q131 8 166 8l610 506q567 469 717 469q41 0 67.5 -38t26.5 -79q0 -47 -84 -199 l-337 -592q51 0 85.5 3.5t40 5.5t21.5 1t31.5 -4t70.5 -16q-94 -113 -202 -311l-219 -10l-170 -336q0 -43 47 -43q8 0 18 1t18.5 4t20.5 11t21.5 13.5t28.5 20.5l34 27q14 11 45 32l55 40l47 -69q-350 -352 -555 -353q-68 0 -103.5 46.5t-35.5 117.5q0 2 -1 7.5t-1 11.5 t3 20.5t9.5 33.5t21.5 53l36 78q20 44 54 111l77 146l-594 -20l-557 -555q-4 -2 -27 -26l-29 -31l-30 -28q-23 -22 -35 -30t-34.5 -24.5t-39 -22.5l-35 -12.5t-38.5 -6.5q-95 1 -95 60zM1096 924l4 -6l418 30l370 621l-6 6zM1695 2257q46 68 118 68q13 0 26 -3 q43 -4 66.5 -9t49.5 -27q24 -21 24 -53q0 -3 -1 -5q-8 -72 -55 -144.5t-115 -72.5q-59 0 -116 27q-55 26 -56 74q1 59 59 145zM2212 2257q47 68 117 68q13 0 26 -3q45 -4 67.5 -9t49.5 -27q23 -20 23 -49q0 -4 -1 -9q-8 -72 -54 -144.5t-113 -72.5q-59 0 -117 27 q-55 26 -56 74q1 62 58 145z" />
<glyph unicode="&#xc5;" horiz-adv-x="2121" d="M-199 -96q0 80 144.5 229.5t320.5 212.5l213 234q-69 -5 -120 -6q-46 0 -77 5q-67 9 -67 55t123 171t221 156q86 31 165 38q19 2 33 2q48 0 54 -20q0 -25 -99.5 -37t-99.5 -36.5t39 -24.5q131 8 166 8l610 506q567 469 717 469q41 0 67.5 -38t26.5 -79q0 -47 -84 -199 l-337 -592q51 0 85.5 3.5t40 5.5t21.5 1t31.5 -4t70.5 -16q-94 -113 -202 -311l-219 -10l-170 -336q0 -43 47 -43q8 0 18 1t18.5 4t20.5 11t21.5 13.5t28.5 20.5l34 27q14 11 45 32l55 40l47 -69q-350 -352 -555 -353q-68 0 -103.5 46.5t-35.5 117.5q0 2 -1 7.5t-1 11.5 t3 20.5t9.5 33.5t21.5 53l36 78q20 44 54 111l77 146l-594 -20l-557 -555q-4 -2 -27 -26l-29 -31l-30 -28q-23 -22 -35 -30t-34.5 -24.5t-39 -22.5l-35 -12.5t-38.5 -6.5q-95 1 -95 60zM1096 924l4 -6l418 30l370 621l-6 6zM2066 2120q0 94 92.5 188t141.5 94q12 0 80 -39 l98 -53q29 -27 29 -84q0 -121 -60.5 -212t-175.5 -91q-78 0 -141.5 58.5t-63.5 138.5zM2204 2040q0 -2 7 -13.5t7 -13.5q90 78 104 119q14 31 15 65q0 37 -8 70q-125 -94 -125 -227z" />
<glyph unicode="&#xc6;" horiz-adv-x="3487" d="M-199 -96q0 80 144.5 229.5t320.5 212.5l213 234q-69 -5 -120 -6q-46 0 -77 5q-67 9 -67 55t123 171t221 156q86 31 165 38q19 2 33 2q48 0 54 -20q0 -25 -99.5 -37t-99.5 -36.5t39 -24.5q131 8 166 8l610 506q567 469 717 469q45 0 76 -46q15 -23 15 -55.5t-15 -74.5 l6 -7q383 254 1000 254h45h63q23 0 66 -2t70.5 -7t58 -13t51 -21.5t29.5 -33.5l6 -113q1 -27 1 -50q0 -76 -16 -100q-20 -31 -135 -67q-74 -25 -163 -71l-144 -76q-55 -30 -74 -29q-31 0 -30 26q0 20 43 65.5t91 85.5t48 44v-6h6v6h-25q-169 0 -326 -26q-169 -28 -287 -69.5 t-205 -92t-126 -94.5q-35 -40 -35 -67q0 -43 48 -63q114 -52 587 -52q107 0 232 3q182 0 182 -57q0 -35 -35 -93.5t-65 -82.5q-43 -39 -258 -72q-246 -41 -445.5 -114.5t-312.5 -152.5t-171.5 -145.5t-58.5 -107.5q0 -80 230 -88q36 -2 73 -2q255 0 570 98q86 27 175 72 t208 118.5t164 98.5q4 -49 3 -91q0 -98 -20 -162q-29 -91 -141 -184q-184 -156 -463 -235q-259 -74 -505 -74h-38q-166 2 -372 60q-82 20 -136 114q-47 82 -48 142q0 9 1 18q-84 -66 -121.5 -91.5t-121.5 -66.5t-144 -41q-68 0 -103.5 46.5t-35.5 117.5q0 2 -1 7.5t-1 11.5 t3 20.5t9.5 33.5t21.5 53l36 78q20 44 54 111l77 146l-594 -20l-557 -555q-4 -2 -27 -26l-29 -31l-30 -28q-23 -22 -35 -30t-34.5 -24.5t-39 -22.5l-35 -12.5t-38.5 -6.5q-95 1 -95 60zM1098 924l6 -7l414 31l366 619l-4 4zM1495 254q8 -4 23 -4q59 0 147 80l20 18 q70 156 238 279t355.5 190.5t402.5 108.5v6l-430 59q-119 27 -190.5 68t-121.5 123l-124 -222q61 7 88 7h12q25 -2 55 -27q-111 -131 -186 -303l-142 -8l-92 -176q-68 -128 -67 -174q0 -20 12 -25z" />
<glyph unicode="&#xc7;" horiz-adv-x="1945" d="M-25 143q0 272 182.5 565t434.5 531q227 219 568 438t558 219q125 0 199 -66.5t80 -193.5q1 -9 0 -18q0 -126 -104 -303q-112 -190 -272.5 -356t-342.5 -293t-309 -146q-11 -1 -21 -1q-47 0 -85 31q-46 38 -46 101q0 100 131 213l201 176q106 106 139 106.5t33 -30.5 q0 -13 -6 -33l6 -4q188 162 312 327t124 237q0 59 -47 58q-12 0 -27 -3q-2 0 -25 -6l-47 -13q-24 -6 -65 -20t-87 -40l-105.5 -62.5t-129 -92t-147.5 -125t-172 -168t-192 -213.5q-143 -168 -235.5 -372.5t-92.5 -360.5q0 -307 289 -307q227 0 581.5 221t618.5 455v-15 q0 -58 -14 -100q-16 -47 -39 -73.5t-86 -86.5q-539 -520 -1026 -643l-50 -98q18 2 36 2q77 0 142 -30q79 -36 78 -125q0 -100 -86 -147q-73 -39 -162 -39q-16 0 -32 1q-80 2 -195.5 38t-115.5 89q0 31 24 31q16 0 78.5 -29.5t110.5 -29.5q51 0 95 25.5t44 72.5q0 90 -156 90 l64 125q-45 -8 -88 -8q-231 0 -376 134t-145 365z" />
<glyph unicode="&#xc8;" horiz-adv-x="1910" d="M57 139q0 76 53.5 165t165 192.5t326.5 203t498 168.5v9q-223 8 -376 35.5t-230.5 72.5t-108.5 94t-31 111q0 84 46 174t151.5 181t252 165t366 119t479.5 45q346 0 383 -82l6 -115q1 -27 1 -49q0 -75 -16 -98q-20 -31 -135 -68q-78 -25 -163 -67.5t-142 -74.5t-78 -34 q-6 -4 -17 6.5t-11 20.5q0 47 188 192q-24 1 -47 1q-157 0 -304 -24q-169 -28 -287 -70t-205 -92t-126 -94q-35 -40 -35 -67q0 -43 50 -63q115 -50 580 -50q109 0 237 3q182 0 182 -60q0 -35 -35 -94t-65 -84q-43 -37 -258 -70q-246 -41 -446.5 -114.5t-312.5 -152.5 t-170 -145.5t-58 -107.5q0 -80 229 -88q36 -2 73 -2q255 0 570 98q86 27 175 72t208 119t164 98q3 -44 3 -82q0 -104 -21 -171q-28 -91 -140 -183q-47 -41 -121.5 -86t-200.5 -102.5t-307 -91.5q-170 -32 -354 -31h-22q-166 4 -373 61q-82 20 -136.5 118.5t-54.5 188.5z M983 2157q0 8 1 32.5t4 34.5t8 24.5t17.5 20.5t33.5 6q29 0 83 -16l160 -49q276 -82 330 -119q78 -51 78 -111q0 -25 -39 -24q-35 0 -90 22q-84 33 -258 58q-97 11 -183 11q-25 0 -49 -1q-23 -2 -41 -2q-44 0 -51 11q-6 10 -6 47q0 23 2 55z" />
<glyph unicode="&#xc9;" horiz-adv-x="1910" d="M57 139q0 76 53.5 165t165 192.5t326.5 203t498 168.5v9q-223 8 -376 35.5t-230.5 72.5t-108.5 94t-31 111q0 84 46 174t151.5 181t252 165t366 119t479.5 45q346 0 383 -82l6 -115q1 -27 1 -49q0 -75 -16 -98q-20 -31 -135 -68q-78 -25 -163 -67.5t-142 -74.5t-78 -34 q-6 -4 -17 6.5t-11 20.5q0 47 188 192q-24 1 -47 1q-157 0 -304 -24q-169 -28 -287 -70t-205 -92t-126 -94q-35 -40 -35 -67q0 -43 50 -63q115 -50 580 -50q109 0 237 3q182 0 182 -60q0 -35 -35 -94t-65 -84q-43 -37 -258 -70q-246 -41 -446.5 -114.5t-312.5 -152.5 t-170 -145.5t-58 -107.5q0 -80 229 -88q36 -2 73 -2q255 0 570 98q86 27 175 72t208 119t164 98q3 -44 3 -82q0 -104 -21 -171q-28 -91 -140 -183q-47 -41 -121.5 -86t-200.5 -102.5t-307 -91.5q-170 -32 -354 -31h-22q-166 4 -373 61q-82 20 -136.5 118.5t-54.5 188.5z M1032 1956q0 59 76 110q55 37 330 119l161 49q53 16 84 17q18 0 30.5 -6.5t19 -20.5t8.5 -24.5t4 -35t2 -32.5q5 -30 5 -52q0 -16 -3 -27q-6 -26 -23 -32q-8 -3 -27 -3t-48 3q-29 2 -60 2q-81 0 -172 -12q-174 -25 -258 -57q-55 -23 -90 -23q-39 0 -39 25z" />
<glyph unicode="&#xca;" horiz-adv-x="1910" d="M57 139q0 76 53.5 165t165 192.5t326.5 203t498 168.5v9q-223 8 -376 35.5t-230.5 72.5t-108.5 94t-31 111q0 84 46 174t151.5 181t252 165t366 119t479.5 45q346 0 383 -82l6 -115q1 -27 1 -49q0 -75 -16 -98q-20 -31 -135 -68q-78 -25 -163 -67.5t-142 -74.5t-78 -34 q-6 -4 -17 6.5t-11 20.5q0 47 188 192q-24 1 -47 1q-157 0 -304 -24q-169 -28 -287 -70t-205 -92t-126 -94q-35 -40 -35 -67q0 -43 50 -63q115 -50 580 -50q109 0 237 3q182 0 182 -60q0 -35 -35 -94t-65 -84q-43 -37 -258 -70q-246 -41 -446.5 -114.5t-312.5 -152.5 t-170 -145.5t-58 -107.5q0 -80 229 -88q36 -2 73 -2q255 0 570 98q86 27 175 72t208 119t164 98q3 -44 3 -82q0 -104 -21 -171q-28 -91 -140 -183q-47 -41 -121.5 -86t-200.5 -102.5t-307 -91.5q-170 -32 -354 -31h-22q-166 4 -373 61q-82 20 -136.5 118.5t-54.5 188.5z M997 1954q0 90 172 157l220 87q162 63 223 63q53 0 155 -113l23 -21l33 -32q12 -12 24.5 -30.5t12.5 -32.5q0 -35 -58 -76q-43 -27 -53 -41q-23 10 -118 96t-140 86q-20 0 -137 -47l-240 -100q-82 -35 -92 -35q-25 0 -25 39z" />
<glyph unicode="&#xcb;" horiz-adv-x="1910" d="M57 139q0 76 53.5 165t165 192.5t326.5 203t498 168.5v9q-223 8 -376 35.5t-230.5 72.5t-108.5 94t-31 111q0 84 46 174t151.5 181t252 165t366 119t479.5 45q346 0 383 -82l6 -115q1 -27 1 -49q0 -75 -16 -98q-20 -31 -135 -68q-78 -25 -163 -67.5t-142 -74.5t-78 -34 q-6 -4 -17 6.5t-11 20.5q0 47 188 192q-24 1 -47 1q-157 0 -304 -24q-169 -28 -287 -70t-205 -92t-126 -94q-35 -40 -35 -67q0 -43 50 -63q115 -50 580 -50q109 0 237 3q182 0 182 -60q0 -35 -35 -94t-65 -84q-43 -37 -258 -70q-246 -41 -446.5 -114.5t-312.5 -152.5 t-170 -145.5t-58 -107.5q0 -80 229 -88q36 -2 73 -2q255 0 570 98q86 27 175 72t208 119t164 98q3 -44 3 -82q0 -104 -21 -171q-28 -91 -140 -183q-47 -41 -121.5 -86t-200.5 -102.5t-307 -91.5q-170 -32 -354 -31h-22q-166 4 -373 61q-82 20 -136.5 118.5t-54.5 188.5z M1152 2257q46 68 118 68q13 0 26 -3q43 -4 67 -9t49 -27q24 -21 24 -53v-5q-8 -72 -54.5 -144.5t-115.5 -72.5q-59 0 -117 27q-54 25 -54 71q0 65 57 148zM1670 2257q46 68 118 68q13 0 27 -3q43 -4 66.5 -9t48.5 -27q24 -21 24 -53v-5q-8 -72 -55.5 -144.5t-114.5 -72.5 q-59 0 -117 27q-55 26 -55 74q0 59 58 145z" />
<glyph unicode="&#xcc;" horiz-adv-x="1341" d="M351 1397q191 215 447.5 353t463.5 138q131 0 199.5 -86t68.5 -219q0 -162 -130 -447.5t-260 -495.5t-268 -411q9 -24 10 -49q0 -65 -58 -146q-81 -114 -148 -118q-6 -1 -13 -1q-43 0 -90 37q-53 42 -53 91q0 45 47 107q334 483 528.5 844.5t194.5 473.5q0 41 -17.5 76 t-53.5 35q-127 -16 -372 -195.5t-345 -369.5l67 12q90 16 105 16q23 0 22 -26q0 -10 -5 -22.5t-15 -22.5t-19 -17l-22 -17q-14 -11 -19.5 -13t-33.5 -25l-51 -39l-52 -36.5t-54 -31t-38 -10.5q-47 0 -149 75q-97 71 -97 120q0 184 210 420zM651 2185q0 8 1 33t4 34l9 24 q5 15 17 20.5t31 5.5q31 0 86 -16l159 -50q274 -82 330 -116q76 -53 76 -113q0 -25 -37 -25t-90 23q-84 33 -260 57q-91 12 -172 12q-30 0 -60 -1q-23 -2 -39 -2q-43 0 -51 11q-6 10 -6 47q0 23 2 56z" />
<glyph unicode="&#xcd;" horiz-adv-x="1341" d="M351 1397q191 215 447.5 353t463.5 138q131 0 199.5 -86t68.5 -219q0 -162 -130 -447.5t-260 -495.5t-268 -411q9 -24 10 -49q0 -65 -58 -146q-81 -114 -148 -118q-6 -1 -13 -1q-43 0 -90 37q-53 42 -53 91q0 45 47 107q334 483 528.5 844.5t194.5 473.5q0 41 -17.5 76 t-53.5 35q-127 -16 -372 -195.5t-345 -369.5l67 12q90 16 105 16q23 0 22 -26q0 -10 -5 -22.5t-15 -22.5t-19 -17l-22 -17q-14 -11 -19.5 -13t-33.5 -25l-51 -39l-52 -36.5t-54 -31t-38 -10.5q-47 0 -149 75q-97 71 -97 120q0 184 210 420zM750 1956q0 59 75 110 q55 37 330 119l160 49q55 16 86 17q18 0 30.5 -6.5t17.5 -20.5t8 -24.5t4 -35t1 -32.5q5 -33 5 -55q0 -14 -2 -24q-5 -26 -21 -32q-8 -3 -27 -3t-49 3q-29 2 -59 2q-81 0 -172 -12q-176 -25 -260 -57q-53 -23 -90 -23t-37 25z" />
<glyph unicode="&#xce;" horiz-adv-x="1341" d="M351 1397q191 215 447.5 353t463.5 138q131 0 199.5 -86t68.5 -219q0 -162 -130 -447.5t-260 -495.5t-268 -411q9 -24 10 -49q0 -65 -58 -146q-81 -114 -148 -118q-6 -1 -13 -1q-43 0 -90 37q-53 42 -53 91q0 45 47 107q334 483 528.5 844.5t194.5 473.5q0 41 -17.5 76 t-53.5 35q-127 -16 -372 -195.5t-345 -369.5l67 12q90 16 105 16q23 0 22 -26q0 -10 -5 -22.5t-15 -22.5t-19 -17l-22 -17q-14 -11 -19.5 -13t-33.5 -25l-51 -39l-52 -36.5t-54 -31t-38 -10.5q-47 0 -149 75q-97 71 -97 120q0 184 210 420zM713 1954q0 90 172 157l221 87 q160 63 223 63q51 0 156 -113l22 -21l33 -32q12 -12 24.5 -30.5t12.5 -32.5q0 -35 -57 -76q-43 -27 -54 -41q-23 10 -118 96t-142 86q-18 0 -135 -47l-240 -100q-82 -35 -94 -35q-24 0 -24 39z" />
<glyph unicode="&#xcf;" horiz-adv-x="1341" d="M351 1397q191 215 447.5 353t463.5 138q131 0 199.5 -86t68.5 -219q0 -162 -130 -447.5t-260 -495.5t-268 -411q9 -24 10 -49q0 -65 -58 -146q-81 -114 -148 -118q-6 -1 -13 -1q-43 0 -90 37q-53 42 -53 91q0 45 47 107q334 483 528.5 844.5t194.5 473.5q0 41 -17.5 76 t-53.5 35q-127 -16 -372 -195.5t-345 -369.5l67 12q90 16 105 16q23 0 22 -26q0 -10 -5 -22.5t-15 -22.5t-19 -17l-22 -17q-14 -11 -19.5 -13t-33.5 -25l-51 -39l-52 -36.5t-54 -31t-38 -10.5q-47 0 -149 75q-97 71 -97 120q0 184 210 420zM820 2257q46 68 118 68 q13 0 27 -3q43 -4 66.5 -9t48.5 -27q24 -21 24 -53v-5q-8 -72 -55.5 -144.5t-114.5 -72.5q-59 0 -117 27q-55 26 -55 74q0 59 58 145zM1337 2257q47 68 119 68q13 0 27 -3q43 -4 65.5 -9t48.5 -27q23 -20 24 -49q0 -4 -1 -9q-8 -72 -54 -144.5t-114 -72.5q-59 0 -117 27 q-55 26 -55 74q0 62 57 145z" />
<glyph unicode="&#xd0;" horiz-adv-x="2189" d="M147 1264q0 27 37 188q23 100 84.5 156.5t175.5 107.5q190 84 450.5 137.5t475.5 53.5q424 0 651 -144q141 -94 214 -257t73 -345q0 -272 -185.5 -501.5t-461.5 -385.5q-223 -125 -549 -215t-575 -90q-180 0 -234 31q-63 33 -63 143q0 219 262 533l78 94l-5 6 q-57 0 -172 -24l-112 -23q-16 0 -17 25q0 31 29 89t76 66q174 31 340 39l434 539q-336 -33 -586 -127v-6h74q145 0 145 -31q0 -41 -84 -49q-49 -8 -213.5 -56.5t-238.5 -48.5q-103 1 -103 95zM547 362q0 -84 164 -83q299 0 626 116q401 143 585.5 337t184.5 392 q0 117 -72.5 195t-217 112.5t-230.5 45t-239 18.5q-29 4 -43 4q-33 -127 -91 -203l-266 -348q27 0 60.5 1t53 3t34.5 2q215 0 217 -86q0 -68 -92 -67q-279 0 -396 -8l-213 -281q-65 -89 -65 -150z" />
<glyph unicode="&#xd1;" horiz-adv-x="2275" d="M131 1128q0 113 75 242t171 221t185 153.5t122 61.5q29 0 29 -22q0 -33 -146 -174l4 -6l244 133q86 45 248 104.5t266 59.5q76 0 128 -41q47 -37 47 -97q0 -7 -1 -14q-10 -154 -93 -325t-380 -691l4 -6q655 786 824 901q16 12 78 55l105 72q42 29 93 56.5t72 27.5 q47 0 135 -86t88 -174q0 -74 -92 -216l-252 -378q-160 -236 -266 -446q-84 -168 -84 -224q0 -111 70.5 -110.5t263 177.5t282.5 288q2 -25 5 -53.5t4 -43t1 -26.5q0 -25 -30 -62q-264 -344 -475 -498.5t-320 -154.5q-94 0 -139 68.5t-45 167.5q0 180 147 452l463 852l-6 6 q-426 -403 -649 -657q-51 -59 -512 -674q-53 -78 -86 -78q-49 0 -132 64.5t-83 107.5q0 14 26 60q129 201 382 668.5t253 566.5q0 57 -43 57q-170 0 -850 -451q-47 -35 -82 -34q-49 -1 -49 120zM1520 2079q0 66 21.5 96.5t82.5 30.5l354 -35l4 6q-94 66 -94 94 q0 14 10.5 26.5t24.5 12.5q47 0 127 -79t80 -150q0 -115 -117 -115q-55 0 -168 21q-102 19 -159 18h-11q10 -8 21.5 -19.5t16.5 -15.5l11 -9q6 -5 8.5 -8t5.5 -7t3 -9v-8q0 -29 -27 -28q-20 0 -74 38q-8 6 -26.5 18.5t-28.5 18.5t-24.5 18.5t-22.5 24t-13 28t-5 32.5z" />
<glyph unicode="&#xd2;" horiz-adv-x="1738" d="M96 543q-1 16 -1 33q0 194 132 410q143 234 359.5 415.5t464 311.5t444.5 159q10 1 20 1q75 0 154 -81q90 -92 90 -139q0 -51 -133 -94q-43 -16 -121 -60l4 -4q61 17 112 17q80 0 134 -42q78 -66 84 -215v-11q0 -261 -176 -553q-180 -298 -481 -503q-298 -203 -596 -202 h-6q-86 0 -164 28.5t-148.5 90t-117 173t-54.5 265.5zM371 362q0 -80 34.5 -129t108.5 -49q111 0 261.5 67.5t242.5 145.5q264 227 420 457q162 239 162 392q0 47 -27 85q-29 41 -80 41q-172 0 -384 -133t-314 -285q-53 -74 -84 -73.5t-37 75.5q-303 -303 -303 -594z M967 2185q0 8 1 33t4 34l8 24q5 15 17.5 20.5t32.5 5.5q29 0 84 -16l160 -50q276 -82 330 -116q78 -53 77 -113q-1 -25 -39 -25q-35 0 -90 23q-84 33 -258 57q-91 12 -172 12q-30 0 -59 -1q-23 -2 -41 -2q-44 0 -51 11q-6 10 -7 47q1 23 3 56z" />
<glyph unicode="&#xd3;" horiz-adv-x="1738" d="M96 543q-1 16 -1 33q0 194 132 410q143 234 359.5 415.5t464 311.5t444.5 159q10 1 20 1q75 0 154 -81q90 -92 90 -139q0 -51 -133 -94q-43 -16 -121 -60l4 -4q61 17 112 17q80 0 134 -42q78 -66 84 -215v-11q0 -261 -176 -553q-180 -298 -481 -503q-298 -203 -596 -202 h-6q-86 0 -164 28.5t-148.5 90t-117 173t-54.5 265.5zM371 362q0 -80 34.5 -129t108.5 -49q111 0 261.5 67.5t242.5 145.5q264 227 420 457q162 239 162 392q0 47 -27 85q-29 41 -80 41q-172 0 -384 -133t-314 -285q-53 -74 -84 -73.5t-37 75.5q-303 -303 -303 -594z M1112 1956q0 59 76 110q53 37 330 119l159 49q55 16 86 17q18 0 30.5 -6.5t18 -20.5t8.5 -24.5t4 -35t1 -32.5q5 -33 5 -55q0 -14 -2 -24q-5 -26 -22 -32q-8 -3 -27 -3t-48 3q-29 2 -60 2q-81 0 -172 -12q-176 -25 -260 -57q-53 -23 -90 -23t-37 25z" />
<glyph unicode="&#xd4;" horiz-adv-x="1738" d="M96 543q-1 16 -1 33q0 194 132 410q143 234 359.5 415.5t464 311.5t444.5 159q10 1 20 1q75 0 154 -81q90 -92 90 -139q0 -51 -133 -94q-43 -16 -121 -60l4 -4q61 17 112 17q80 0 134 -42q78 -66 84 -215v-11q0 -261 -176 -553q-180 -298 -481 -503q-298 -203 -596 -202 h-6q-86 0 -164 28.5t-148.5 90t-117 173t-54.5 265.5zM371 362q0 -80 34.5 -129t108.5 -49q111 0 261.5 67.5t242.5 145.5q264 227 420 457q162 239 162 392q0 47 -27 85q-29 41 -80 41q-172 0 -384 -133t-314 -285q-53 -74 -84 -73.5t-37 75.5q-303 -303 -303 -594z M1022 1954q0 90 172 157l219 87q162 63 223 63q53 0 156 -113l23 -21l32 -32q12 -12 24.5 -30.5t12.5 -32.5q0 -35 -57 -76q-43 -27 -53 -41q-23 10 -118 96t-143 86q-20 0 -135 -47l-239 -100q-82 -35 -92 -35q-25 0 -25 39z" />
<glyph unicode="&#xd5;" horiz-adv-x="1738" d="M96 543q-1 16 -1 33q0 194 132 410q143 234 359.5 415.5t464 311.5t444.5 159q10 1 20 1q75 0 154 -81q90 -92 90 -139q0 -51 -133 -94q-43 -16 -121 -60l4 -4q61 17 112 17q80 0 134 -42q78 -66 84 -215v-11q0 -261 -176 -553q-180 -298 -481 -503q-298 -203 -596 -202 h-6q-86 0 -164 28.5t-148.5 90t-117 173t-54.5 265.5zM371 362q0 -80 34.5 -129t108.5 -49q111 0 261.5 67.5t242.5 145.5q264 227 420 457q162 239 162 392q0 47 -27 85q-29 41 -80 41q-172 0 -384 -133t-314 -285q-53 -74 -84 -73.5t-37 75.5q-303 -303 -303 -594z M1081 2105q0 66 21.5 97.5t83.5 31.5l352 -36l6 6q-94 66 -94 96q0 12 10 24.5t25 12.5q45 0 126 -79t81 -151q0 -113 -117 -112q-55 0 -168 20q-94 17 -149 17h-21q10 -8 21.5 -18.5t16.5 -14.5t10 -10.5t8 -8.5t6.5 -6t3.5 -8v-10q0 -27 -29 -27q-18 0 -72 37l-26 19 l-29 19q-10 7 -24.5 19.5t-22.5 22.5t-13.5 26.5t-5.5 32.5z" />
<glyph unicode="&#xd6;" horiz-adv-x="1738" d="M96 543q-1 16 -1 33q0 194 132 410q143 234 359.5 415.5t464 311.5t444.5 159q10 1 20 1q75 0 154 -81q90 -92 90 -139q0 -51 -133 -94q-43 -16 -121 -60l4 -4q61 17 112 17q80 0 134 -42q78 -66 84 -215v-11q0 -261 -176 -553q-180 -298 -481 -503q-298 -203 -596 -202 h-6q-86 0 -164 28.5t-148.5 90t-117 173t-54.5 265.5zM371 362q0 -80 34.5 -129t108.5 -49q111 0 261.5 67.5t242.5 145.5q264 227 420 457q162 239 162 392q0 47 -27 85q-29 41 -80 41q-172 0 -384 -133t-314 -285q-53 -74 -84 -73.5t-37 75.5q-303 -303 -303 -594z M1136 2257q46 68 117 68q13 0 27 -3q43 -4 66.5 -9t49.5 -27q24 -21 23 -53v-5q-8 -72 -54 -144.5t-116 -72.5q-59 0 -116 27q-54 25 -54 71q0 65 57 148zM1654 2257q46 68 118 68q13 0 26 -3q43 -4 66.5 -9t49.5 -27q24 -21 24 -53q0 -3 -1 -5q-8 -72 -55 -144.5 t-115 -72.5q-59 0 -116 27q-55 26 -56 74q1 59 59 145z" />
<glyph unicode="&#xd7;" horiz-adv-x="1744" d="M379 158l502 526l-500 526l121 113l495 -520l494 524l117 -113l-504 -528l504 -528l-123 -117l-496 526l-493 -524z" />
<glyph unicode="&#xd8;" horiz-adv-x="1738" d="M-57 -135q0 68 112 166l138 159q-84 150 -97 353q-1 20 -1 40q0 150 80 314q91 186 247 346t344 296t380.5 223t352.5 110q10 1 20 1q75 0 154 -81q90 -92 90 -139q0 -51 -135 -94q-43 -16 -119 -60l2 -4q61 17 112 17q80 0 134 -42q18 12 97 70.5t150 102t110 43.5 q16 0 31.5 -6.5t32.5 -21.5l27 -24q9 -8 28.5 -29.5t21.5 -25.5l-428 -250q12 -31 12 -125q-4 -197 -130 -432t-290 -395q-166 -162 -374.5 -269.5t-409.5 -117.5q-16 -1 -32 -1q-142 0 -257 66q-8 -8 -48 -45l-56.5 -53t-39 -45t-34.5 -55q-2 -6 -13.5 -31t-16.5 -33 l-15 -23q-10 -15 -25.5 -20.5t-34.5 -5.5q-49 0 -84.5 36t-35.5 85zM371 348l1190 998q-10 14 -22.5 19t-26 6t-17.5 1q-174 -2 -386 -134t-314 -284q-53 -74 -84 -73q-16 0 -23.5 12t-10.5 34.5t-7 28.5q-299 -307 -299 -596v-12zM469 190q8 -2 100 -2q82 0 260.5 91.5 t257.5 177.5q190 168 398 458q51 100 98 234l-6 6z" />
<glyph unicode="&#xd9;" horiz-adv-x="2379" d="M131 1092q16 94 69.5 197.5t144.5 206.5t233.5 182t312.5 106q43 6 269 59t317 53q111 0 147 -106q20 -56 20 -113q0 -51 -16 -102q-12 -47 -38.5 -92t-45 -71t-63.5 -83l-68 -84q-125 -133 -376 -441t-251 -368q0 -49 56 -49q74 0 334 216t391 347l235 233l189 189 l141 141l113 108q39 36 76.5 66.5t59 42t38.5 11.5q55 0 83.5 -58.5t28.5 -115.5q2 -6 2 -13q0 -33 -40 -95q-48 -75 -255 -367l-225 -316q-246 -344 -246 -481q0 -47 30 -79t75 -32q41 0 96 24.5t129 77t116 85.5l123 99q81 67 83 67q14 -76 14 -91q0 -41 -142.5 -161.5 t-332 -230t-297.5 -109.5q-94 0 -154.5 60.5t-60.5 154.5q0 168 141 403l223 379l-4 6q-985 -959 -1146 -959q-5 0 -9 1q-256 43 -256 280q0 59 33 135t103 173l101 134q30 38 105 124l191 219l147 165l95 105q42 47 58.5 71.5t16.5 37.5q0 27 -26 26q-4 0 -80 -31 q-246 -102 -660 -307q-174 -88 -278 -88q-41 0 -59 13q-13 9 -13 29q0 7 2 16zM1384 2185q0 8 1 33t5 34l8 24q5 15 17 20.5t31 5.5q31 0 84 -16l162 -50q274 -82 329 -116q76 -53 76 -113q0 -25 -39 -25q-35 0 -88 23q-86 33 -260 57q-91 12 -172 12q-30 0 -59 -1 q-23 -2 -41 -2q-44 0 -50 11q-6 9 -6 44q0 24 2 59z" />
<glyph unicode="&#xda;" horiz-adv-x="2379" d="M131 1092q16 94 69.5 197.5t144.5 206.5t233.5 182t312.5 106q43 6 269 59t317 53q111 0 147 -106q20 -56 20 -113q0 -51 -16 -102q-12 -47 -38.5 -92t-45 -71t-63.5 -83l-68 -84q-125 -133 -376 -441t-251 -368q0 -49 56 -49q74 0 334 216t391 347l235 233l189 189 l141 141l113 108q39 36 76.5 66.5t59 42t38.5 11.5q55 0 83.5 -58.5t28.5 -115.5q2 -6 2 -13q0 -33 -40 -95q-48 -75 -255 -367l-225 -316q-246 -344 -246 -481q0 -47 30 -79t75 -32q41 0 96 24.5t129 77t116 85.5l123 99q81 67 83 67q14 -76 14 -91q0 -41 -142.5 -161.5 t-332 -230t-297.5 -109.5q-94 0 -154.5 60.5t-60.5 154.5q0 168 141 403l223 379l-4 6q-985 -959 -1146 -959q-5 0 -9 1q-256 43 -256 280q0 59 33 135t103 173l101 134q30 38 105 124l191 219l147 165l95 105q42 47 58.5 71.5t16.5 37.5q0 27 -26 26q-4 0 -80 -31 q-246 -102 -660 -307q-174 -88 -278 -88q-41 0 -59 13q-13 9 -13 29q0 7 2 16zM1567 1956q-1 59 75 110q55 37 330 119l160 49q55 16 86 17q18 0 30.5 -6.5t17.5 -20.5t8 -24.5t4 -35t1 -32.5q5 -33 5 -55q0 -14 -2 -24q-5 -26 -21 -32q-8 -3 -27 -3t-49 3q-29 2 -59 2 q-81 0 -172 -12q-176 -25 -260 -57q-53 -23 -90 -23t-37 25z" />
<glyph unicode="&#xdb;" horiz-adv-x="2379" d="M131 1092q16 94 69.5 197.5t144.5 206.5t233.5 182t312.5 106q43 6 269 59t317 53q111 0 147 -106q20 -56 20 -113q0 -51 -16 -102q-12 -47 -38.5 -92t-45 -71t-63.5 -83l-68 -84q-125 -133 -376 -441t-251 -368q0 -49 56 -49q74 0 334 216t391 347l235 233l189 189 l141 141l113 108q39 36 76.5 66.5t59 42t38.5 11.5q55 0 83.5 -58.5t28.5 -115.5q2 -6 2 -13q0 -33 -40 -95q-48 -75 -255 -367l-225 -316q-246 -344 -246 -481q0 -47 30 -79t75 -32q41 0 96 24.5t129 77t116 85.5l123 99q81 67 83 67q14 -76 14 -91q0 -41 -142.5 -161.5 t-332 -230t-297.5 -109.5q-94 0 -154.5 60.5t-60.5 154.5q0 168 141 403l223 379l-4 6q-985 -959 -1146 -959q-5 0 -9 1q-256 43 -256 280q0 59 33 135t103 173l101 134q30 38 105 124l191 219l147 165l95 105q42 47 58.5 71.5t16.5 37.5q0 27 -26 26q-4 0 -80 -31 q-246 -102 -660 -307q-174 -88 -278 -88q-41 0 -59 13q-13 9 -13 29q0 7 2 16zM1395 1954q0 90 172 157l219 86q162 63 225 64q51 0 154 -113q4 -2 24 -21l33 -32q12 -12 24.5 -30.5t12.5 -32.5q0 -35 -57 -76q-45 -27 -56 -41q-23 10 -118 96t-140 86q-20 0 -137 -47 l-240 -100q-82 -35 -92 -35q-24 0 -24 39z" />
<glyph unicode="&#xdc;" horiz-adv-x="2379" d="M131 1092q16 94 69.5 197.5t144.5 206.5t233.5 182t312.5 106q43 6 269 59t317 53q111 0 147 -106q20 -56 20 -113q0 -51 -16 -102q-12 -47 -38.5 -92t-45 -71t-63.5 -83l-68 -84q-125 -133 -376 -441t-251 -368q0 -49 56 -49q74 0 334 216t391 347l235 233l189 189 l141 141l113 108q39 36 76.5 66.5t59 42t38.5 11.5q55 0 83.5 -58.5t28.5 -115.5q2 -6 2 -13q0 -33 -40 -95q-48 -75 -255 -367l-225 -316q-246 -344 -246 -481q0 -47 30 -79t75 -32q41 0 96 24.5t129 77t116 85.5l123 99q81 67 83 67q14 -76 14 -91q0 -41 -142.5 -161.5 t-332 -230t-297.5 -109.5q-94 0 -154.5 60.5t-60.5 154.5q0 168 141 403l223 379l-4 6q-985 -959 -1146 -959q-5 0 -9 1q-256 43 -256 280q0 59 33 135t103 173l101 134q30 38 105 124l191 219l147 165l95 105q42 47 58.5 71.5t16.5 37.5q0 27 -26 26q-4 0 -80 -31 q-246 -102 -660 -307q-174 -88 -278 -88q-41 0 -59 13q-13 9 -13 29q0 7 2 16zM1637 2257q46 68 118 68q13 0 27 -3q43 -4 66.5 -9t48.5 -27q24 -21 24 -53v-5q-8 -72 -55 -144.5t-115 -72.5q-59 0 -117 27q-55 26 -55 74q0 59 58 145zM2154 2257q47 68 119 68q13 0 27 -3 q43 -4 65.5 -9t49.5 -27q23 -20 23 -49q0 -4 -1 -9q-8 -72 -54 -144.5t-114 -72.5q-59 0 -117 27q-55 26 -55 74q0 62 57 145z" />
<glyph unicode="&#xdd;" horiz-adv-x="2019" d="M131 1018q-2 7 -2 18q0 31 18 92l41 146q20 72 56.5 111.5t111.5 89.5q219 133 543 273t498 140q80 0 135 -36.5t55 -112.5q0 -25 -10 -57.5t-34 -73.5l-41 -73q-17 -32 -55 -81t-52.5 -69.5t-55.5 -69.5l-36 -49l-164 -207l-130 -161l-95 -118l-68 -89 q-23 -30 -42.5 -58.5t-26.5 -46t-7 -35.5q-2 -20 15.5 -32.5t53.5 -5.5t76 42l212 171q97 75 224 186l523 474q121 109 154 109q45 0 85.5 -57.5t40.5 -106.5q0 -20 -13 -49t-55 -87l-91 -126l-149 -204l-204 -281q-289 -412 -323 -492q-15 -32 -15 -48q0 -18 17 -19 q16 0 36 11l107 63q88 52 222 122q53 27 97 43.5t74.5 21.5t51 3t30 -10.5t9.5 -22.5q0 -31 -64.5 -89t-101.5 -79q-453 -342 -641 -561q-45 -55 -72 -83t-79 -64.5t-97 -36.5q-53 0 -86 38.5t-33 96.5q0 176 310.5 650t549.5 771l-6 6l-721 -624q-264 -229 -370 -230 q-72 0 -136 59q-55 50 -54 105q0 9 1 18q0 4 3 26t6 33t16.5 46t32 66.5t55.5 89.5t85 124l122 160l166 203q297 354 335 424q25 41 25 65q2 14 -9.5 21.5t-27.5 9.5l-570 -298q-321 -173 -323 -177q-47 -33 -88 -33q-37 0 -45 25zM1442 1956q0 59 76 110q53 37 329 119 l160 49q55 16 84 17q20 0 32.5 -6.5t17.5 -20.5t8 -24.5t4 -35t1 -32.5q5 -33 6 -55q0 -14 -2 -24q-5 -26 -22 -32q-8 -3 -27.5 -3t-50.5 3q-28 2 -58 2q-80 0 -173 -12q-174 -25 -258 -57q-55 -23 -90 -23q-37 0 -37 25z" />
<glyph unicode="&#xde;" horiz-adv-x="1665" d="M100 1163q0 31 97.5 177.5t121.5 168.5q41 33 324 71t395 38q125 0 207 -6l133 188q88 123 176 123q20 0 35 -13.5t15 -33.5q0 -51 -60 -129l-117 -156q223 -31 412 -178t189 -350q0 -115 -89.5 -239t-246 -233.5t-407.5 -180t-542 -70.5q-106 0 -237 16l-117 -196 q49 0 49 -45q0 -55 -83 -150.5t-154 -95.5q-33 0 -54.5 28.5t-21.5 69.5q0 84 96 250l103 178q-74 14 -117 54t-43 88q0 100 132 179t304 79l375 479q-221 -10 -420 -48t-306.5 -70t-115.5 -32q-33 0 -33 39zM713 653q72 -20 229 -20q213 0 423 80t326.5 175t116.5 152 q0 117 -160.5 165t-453.5 65z" />
<glyph unicode="&#xdf;" horiz-adv-x="1513" d="M-59 -109q0 45 28.5 138.5t82.5 218.5l96 218l103 221l68 144q-88 10 -88 76q0 78 189 107q172 283 268 387l72 69q121 106 270.5 187.5t276.5 81.5q115 0 183.5 -61.5t68.5 -176.5q0 -92 -94.5 -181t-195 -136t-256 -111.5t-190.5 -81.5l4 -6q57 3 108 3q160 0 255 -30 q106 -35 164.5 -113.5t58.5 -187.5q0 -178 -140 -342.5t-334 -259t-364 -94.5q-96 0 -143 32t-47 122q0 127 92 182q18 10 78.5 25.5t85.5 15.5q27 0 27 -27.5t-19 -38.5l4 -6q453 82 453 369q0 117 -95 170q-83 46 -186 46q-16 0 -32 -1l-232 -14l-340 -838 q-4 -6 -17.5 -42t-21.5 -53.5t-25.5 -48t-32.5 -49t-36.5 -32t-46.5 -13.5q-100 0 -100 131zM674 1063l397 151q211 82 211 213q0 49 -34 80t-85 31q-72 0 -154.5 -58.5t-144.5 -127.5q-88 -96 -190 -289z" />
<glyph unicode="&#xe0;" horiz-adv-x="1325" d="M-84 334q0 153 183 315q189 168 428 267.5t403 105.5h6q75 0 122 -47q48 -49 48 -84t-96 -68q80 -33 80 -112q0 -37 -119 -187.5t-119 -218.5q0 -66 86 -65q39 0 94 24.5t96 52t104.5 75.5t90.5 65l23 -101q-104 -117 -313.5 -270.5t-303.5 -153.5q-63 0 -96 41t-33 103 q0 96 100 305l-6 6l-250 -203q-231 -182 -288 -182q-59 0 -149 111q-91 114 -91 221zM115 256q2 -14 6 -23.5t16 -21.5q11 -11 26 -11q3 0 5 1q82 16 188 96q172 131 492 453l-6 4q-231 -70 -385 -139.5t-223.5 -135t-94 -116t-24.5 -107.5zM311 1307q0 8 1 32.5t4 34.5 t8.5 24.5t17.5 20.5t31 6q31 0 84 -16l161 -49q274 -82 330 -119q76 -51 76 -111q0 -25 -39 -24q-35 0 -88 22q-86 33 -260 58q-91 12 -172 12q-29 0 -59 -2q-23 -2 -41 -2q-44 0 -51 11q-6 9 -5 44q0 24 2 58z" />
<glyph unicode="&#xe1;" horiz-adv-x="1325" d="M-84 334q0 153 183 315q189 168 428 267.5t403 105.5h6q75 0 122 -47q48 -49 48 -84t-96 -68q80 -33 80 -112q0 -37 -119 -187.5t-119 -218.5q0 -66 86 -65q39 0 94 24.5t96 52t104.5 75.5t90.5 65l23 -101q-104 -117 -313.5 -270.5t-303.5 -153.5q-63 0 -96 41t-33 103 q0 96 100 305l-6 6l-250 -203q-231 -182 -288 -182q-59 0 -149 111q-91 114 -91 221zM115 256q2 -14 6 -23.5t16 -21.5q11 -11 26 -11q3 0 5 1q82 16 188 96q172 131 492 453l-6 4q-231 -70 -385 -139.5t-223.5 -135t-94 -116t-24.5 -107.5zM496 1133q0 61 75 112 q55 35 330 117l162 49q53 16 84 16q18 0 30.5 -5t18.5 -20.5t8 -24.5t4 -33.5t2 -32.5q5 -32 5 -54q0 -16 -3 -27q-6 -26 -22 -31q-9 -3 -32 -3q-18 0 -44 2q-29 2 -59 2q-81 0 -172 -12q-174 -25 -258 -58q-55 -23 -90 -22q-39 0 -39 25z" />
<glyph unicode="&#xe2;" horiz-adv-x="1325" d="M-84 334q0 153 183 315q189 168 428 267.5t403 105.5h6q75 0 122 -47q48 -49 48 -84t-96 -68q80 -33 80 -112q0 -37 -119 -187.5t-119 -218.5q0 -66 86 -65q39 0 94 24.5t96 52t104.5 75.5t90.5 65l23 -101q-104 -117 -313.5 -270.5t-303.5 -153.5q-63 0 -96 41t-33 103 q0 96 100 305l-6 6l-250 -203q-231 -182 -288 -182q-59 0 -149 111q-91 114 -91 221zM115 256q2 -14 6 -23.5t16 -21.5q11 -11 26 -11q3 0 5 1q82 16 188 96q172 131 492 453l-6 4q-231 -70 -385 -139.5t-223.5 -135t-94 -116t-24.5 -107.5zM324 1130q0 90 172 158l221 88 q160 61 223 62q51 0 156 -111q2 -4 22.5 -22.5t32.5 -30.5t24.5 -31.5t12.5 -32.5q0 -37 -58 -77q-43 -27 -55 -41q-20 12 -115.5 97t-142.5 85q-23 0 -137 -45l-240 -101q-80 -37 -92 -36q-24 -1 -24 38z" />
<glyph unicode="&#xe3;" horiz-adv-x="1325" d="M-84 334q0 153 183 315q189 168 428 267.5t403 105.5h6q75 0 122 -47q48 -49 48 -84t-96 -68q80 -33 80 -112q0 -37 -119 -187.5t-119 -218.5q0 -66 86 -65q39 0 94 24.5t96 52t104.5 75.5t90.5 65l23 -101q-104 -117 -313.5 -270.5t-303.5 -153.5q-63 0 -96 41t-33 103 q0 96 100 305l-6 6l-250 -203q-231 -182 -288 -182q-59 0 -149 111q-91 114 -91 221zM115 256q2 -14 6 -23.5t16 -21.5q11 -11 26 -11q3 0 5 1q82 16 188 96q172 131 492 453l-6 4q-231 -70 -385 -139.5t-223.5 -135t-94 -116t-24.5 -107.5zM510 1229q0 66 21.5 96.5 t80.5 30.5l355 -35l6 6q-96 66 -96 94q0 14 11 26.5t25 12.5q45 0 126 -78.5t81 -150.5q0 -115 -119 -115q-53 0 -166 21q-103 19 -159 18h-10q10 -8 20 -19.5t16.5 -15.5t11.5 -9l8 -8q3 -3 5 -7t2 -9v-8q0 -29 -27 -28q-18 0 -73 39l-26 18q-17 12 -28.5 18.5t-24.5 18.5 t-21.5 23.5t-13.5 28t-5 32.5z" />
<glyph unicode="&#xe4;" horiz-adv-x="1325" d="M-84 334q0 153 183 315q189 168 428 267.5t403 105.5h6q75 0 122 -47q48 -49 48 -84t-96 -68q80 -33 80 -112q0 -37 -119 -187.5t-119 -218.5q0 -66 86 -65q39 0 94 24.5t96 52t104.5 75.5t90.5 65l23 -101q-104 -117 -313.5 -270.5t-303.5 -153.5q-63 0 -96 41t-33 103 q0 96 100 305l-6 6l-250 -203q-231 -182 -288 -182q-59 0 -149 111q-91 114 -91 221zM115 256q2 -14 6 -23.5t16 -21.5q11 -11 26 -11q3 0 5 1q82 16 188 96q172 131 492 453l-6 4q-231 -70 -385 -139.5t-223.5 -135t-94 -116t-24.5 -107.5zM479 1461q47 69 119 69 q13 0 27 -2q43 -6 65.5 -11.5t49 -27t22.5 -55.5q-8 -72 -54 -146t-114 -74q-59 0 -117 28q-55 27 -55 75q0 60 57 144zM996 1461q46 69 118 69q13 0 27 -2q45 -6 67.5 -11.5t47.5 -26.5q24 -20 24 -51v-5q-8 -72 -54 -146t-114 -74q-61 0 -118 28q-54 27 -54 75 q0 60 56 144z" />
<glyph unicode="&#xe5;" horiz-adv-x="1325" d="M-84 334q0 153 183 315q189 168 428 267.5t403 105.5h6q75 0 122 -47q48 -49 48 -84t-96 -68q80 -33 80 -112q0 -37 -119 -187.5t-119 -218.5q0 -66 86 -65q39 0 94 24.5t96 52t104.5 75.5t90.5 65l23 -101q-104 -117 -313.5 -270.5t-303.5 -153.5q-63 0 -96 41t-33 103 q0 96 100 305l-6 6l-250 -203q-231 -182 -288 -182q-59 0 -149 111q-91 114 -91 221zM115 256q2 -14 6 -23.5t16 -21.5q11 -11 26 -11q3 0 5 1q82 16 188 96q172 131 492 453l-6 4q-231 -70 -385 -139.5t-223.5 -135t-94 -116t-24.5 -107.5zM852 1296q0 96 91 189.5 t140 93.5q14 0 82 -37l99 -55q27 -27 26 -84q0 -121 -59.5 -212t-173.5 -91q-80 0 -142.5 59t-62.5 137zM989 1219q0 -4 6 -14.5t6 -14.5q90 80 107 121q14 29 14 65q0 35 -8 68q-125 -92 -125 -225z" />
<glyph unicode="&#xe6;" horiz-adv-x="1710" d="M-59 315q0 154 116.5 282t278.5 218q133 74 318.5 145.5t293.5 71.5q94 0 166 -94q174 94 340 94q190 0 191 -131q0 -123 -146.5 -256t-505.5 -250l-4 -59q0 -139 168 -139q37 0 76 9t72.5 21.5t80.5 39.5l73 42q26 14 75 51l67 51l67 53q50 40 56 46l25 -104 q-154 -176 -353.5 -312.5t-381.5 -136.5q-59 0 -140 41t-112 90q-27 43 -39 97q-11 50 -11 95q0 17 0.5 54.5t0.5 58.5q-25 -16 -151 -120.5t-237.5 -185.5t-148.5 -81q-55 0 -145 107.5t-90 201.5zM139 270q0 -49 58 -49q41 0 122 60l111 75q229 158 436 402l-6 4 q-317 -86 -495 -195q-76 -47 -116 -78.5t-75 -90t-35 -128.5zM1010 528q162 55 280 163q115 104 115 150q0 19 -6 27q-5 7 -15 7q-3 -1 -6 -1q-106 -27 -209.5 -121t-158.5 -225z" />
<glyph unicode="&#xe7;" horiz-adv-x="976" d="M-8 362q0 160 56 249t202 198q113 84 273.5 162t262.5 78q123 0 123 -125q0 -104 -112.5 -232.5t-175.5 -128.5q-43 0 -67 37t-26 84l-229 -172q-109 -80 -109 -160q0 -55 54.5 -101t152.5 -46q96 0 222 61.5t191 108.5l189 143l33 -106q-315 -340 -596 -422l-71 -140 q18 2 35 2q77 0 142 -29q79 -36 79 -126q0 -100 -86 -147q-73 -39 -163 -39q-16 0 -32 2q-78 2 -193.5 37.5t-115.5 89.5q0 31 24 30q16 0 79 -29.5t108 -29.5q53 0 96 25.5t43 72.5q0 90 -156 90l88 168q-2 -2 -10 -2q-152 0 -231.5 116.5t-79.5 280.5z" />
<glyph unicode="&#xe8;" horiz-adv-x="970" d="M-23 313v18q0 254 231 475q236 226 504 226h5q197 0 196 -131q0 -119 -150.5 -254t-506.5 -252l-6 -59v-11q0 -64 46 -95q50 -34 124 -33q35 0 75 9t73.5 21.5t79.5 39.5l72 42q26 14 75 51l67 51q18 13 68.5 53t54.5 46l25 -104q-152 -176 -352.5 -312.5t-383.5 -136.5 q-139 0 -215 104.5t-82 251.5zM133 1307q0 8 1 32.5t4 34.5t8.5 24.5t17.5 20.5t33 6q29 0 84 -16l159 -49q276 -82 330 -119q78 -51 78 -111q0 -25 -39 -24q-35 0 -90 22q-84 33 -258 58q-91 12 -172 12q-30 0 -60 -2q-23 -2 -41 -2q-44 0 -50 11t-6 55q0 21 1 47zM272 528 q160 55 282 164q120 107 120 150q0 34 -23 34q-5 0 -10 -2q-106 -27 -210 -121t-159 -225z" />
<glyph unicode="&#xe9;" horiz-adv-x="970" d="M-23 313v18q0 254 231 475q236 226 504 226h5q197 0 196 -131q0 -119 -150.5 -254t-506.5 -252l-6 -59v-11q0 -64 46 -95q50 -34 124 -33q35 0 75 9t73.5 21.5t79.5 39.5l72 42q26 14 75 51l67 51q18 13 68.5 53t54.5 46l25 -104q-152 -176 -352.5 -312.5t-383.5 -136.5 q-139 0 -215 104.5t-82 251.5zM272 528q160 55 282 164q120 107 120 150q0 40 -33 32q-106 -27 -210 -121t-159 -225zM319 1133q0 61 76 112q53 35 330 117l160 49q55 16 84 16q20 0 32.5 -5t17.5 -20l8 -25q3 -9 4 -33.5t1 -32.5q5 -34 5 -57q0 -14 -2 -24q-5 -26 -21 -31 q-9 -3 -32 -3q-18 0 -44 2q-29 2 -60 2q-82 0 -173 -12q-174 -26 -259 -58q-53 -23 -90 -22.5t-37 25.5z" />
<glyph unicode="&#xea;" horiz-adv-x="970" d="M-23 313v18q0 254 231 475q236 226 504 226h5q197 0 196 -131q0 -119 -150.5 -254t-506.5 -252l-6 -59v-11q0 -64 46 -95q50 -34 124 -33q35 0 75 9t73.5 21.5t79.5 39.5l72 42q26 14 75 51l67 51q18 13 68.5 53t54.5 46l25 -104q-152 -176 -352.5 -312.5t-383.5 -136.5 q-139 0 -215 104.5t-82 251.5zM147 1131q0 90 172 157l220 88q162 61 223 62q53 0 156 -111l23 -22l32 -31q12 -12 24.5 -31.5t12.5 -32.5q0 -37 -56 -77q-45 -27 -55 -41q-23 12 -118 97t-140 85q-20 0 -137 -45l-240 -101q-82 -37 -92 -36q-25 0 -25 39zM272 528 q160 55 282 164q120 107 120 150q0 34 -23 34q-5 0 -10 -2q-106 -27 -210 -121t-159 -225z" />
<glyph unicode="&#xeb;" horiz-adv-x="970" d="M-23 313v18q0 254 231 475q236 226 504 226h5q197 0 196 -131q0 -119 -150.5 -254t-506.5 -252l-6 -59v-11q0 -64 46 -95q50 -34 124 -33q35 0 75 9t73.5 21.5t79.5 39.5l72 42q26 14 75 51l67 51q18 13 68.5 53t54.5 46l25 -104q-152 -176 -352.5 -312.5t-383.5 -136.5 q-139 0 -215 104.5t-82 251.5zM302 1461q46 69 118 69q13 0 26 -2q43 -6 67 -11.5t49.5 -27t23.5 -55.5q-8 -72 -54.5 -146t-115.5 -74q-59 0 -117 28q-54 26 -54 72q0 63 57 147zM272 528q160 55 282 164q120 107 120 150q0 40 -33 32q-106 -27 -210 -121t-159 -225z M820 1461q46 69 118 69q13 0 27 -2q43 -6 66.5 -11.5t48.5 -26.5q24 -20 24 -51v-5q-8 -72 -55.5 -146t-114.5 -74q-59 0 -117 28q-55 27 -55 75q0 57 58 144z" />
<glyph unicode="&#xec;" horiz-adv-x="755" d="M-35 283q0 156 92.5 313.5t210 250.5t201.5 93q119 0 119 -76q0 -90 -133 -234.5t-250 -223.5q-5 -27 -5 -50q0 -122 148 -123q53 0 111.5 27t97.5 53.5t101.5 76.5l84.5 67l25 -103q-125 -154 -277.5 -274.5t-291.5 -120.5q-111 0 -172.5 102.5t-61.5 221.5zM25 1307 q0 8 1 32.5t4 34.5t8 24.5t17.5 20.5t32.5 6q29 0 84 -16l160 -49q276 -82 330 -119q76 -51 75 -111q0 -25 -37 -24q-35 0 -90 22q-84 33 -258 58q-92 12 -173 12q-30 0 -58 -2q-23 -2 -41 -2q-44 0 -51 11q-6 10 -7 47q1 23 3 55z" />
<glyph unicode="&#xed;" horiz-adv-x="755" d="M-35 283q0 156 92.5 313.5t210 250.5t201.5 93q119 0 119 -76q0 -90 -133 -234.5t-250 -223.5q-5 -27 -5 -50q0 -122 148 -123q53 0 111.5 27t97.5 53.5t101.5 76.5l84.5 67l25 -103q-125 -154 -277.5 -274.5t-291.5 -120.5q-111 0 -172.5 102.5t-61.5 221.5zM209 1133 q0 61 78 112q53 35 329 117l160 49q55 16 84 16q20 0 32.5 -5t17.5 -20l9 -25q3 -9 4 -33.5t1 -32.5q5 -34 5 -57q0 -14 -2 -24q-5 -26 -22 -31q-9 -3 -32 -3q-18 0 -46 2q-29 2 -59 2q-81 0 -172 -12q-174 -25 -258 -58q-55 -23 -90 -22q-39 0 -39 25z" />
<glyph unicode="&#xee;" horiz-adv-x="755" d="M-35 283q0 156 92.5 313.5t210 250.5t201.5 93q119 0 119 -76q0 -90 -133 -234.5t-250 -223.5q-5 -27 -5 -50q0 -122 148 -123q53 0 111.5 27t97.5 53.5t101.5 76.5l84.5 67l25 -103q-125 -154 -277.5 -274.5t-291.5 -120.5q-111 0 -172.5 102.5t-61.5 221.5zM39 1130 q0 90 170 158l221 88q162 61 223 62q51 0 156 -111q2 -4 22.5 -22.5l33 -30.5t24.5 -31.5t12 -32.5q0 -37 -57 -77q-43 -27 -53 -41q-23 12 -118 97t-143 85q-18 0 -135 -45l-239 -101q-82 -37 -93 -36q-24 -1 -24 38z" />
<glyph unicode="&#xef;" horiz-adv-x="755" d="M-35 283q0 156 92.5 313.5t210 250.5t201.5 93q119 0 119 -76q0 -90 -133 -234.5t-250 -223.5q-5 -27 -5 -50q0 -122 148 -123q53 0 111.5 27t97.5 53.5t101.5 76.5l84.5 67l25 -103q-125 -154 -277.5 -274.5t-291.5 -120.5q-111 0 -172.5 102.5t-61.5 221.5zM194 1461 q46 69 118 69q13 0 26 -2q43 -6 66.5 -11.5t49 -27t23.5 -55.5q-8 -72 -54 -146t-116 -74q-59 0 -117 28q-55 27 -55 75q1 57 59 144zM712 1461q46 69 118 69q13 0 26 -2q43 -6 66.5 -11.5t49.5 -26.5q22 -19 22 -47q0 -5 -1 -9q-8 -72 -54 -146t-114 -74q-59 0 -116 28 q-55 27 -56 75q1 57 59 144z" />
<glyph unicode="&#xf0;" horiz-adv-x="1363" d="M-31 373q0 268 246 461q106 88 254.5 143t255.5 55q61 0 90 -49h4q33 113 33 238q0 70 -10 135l-221 -78q-57 -23 -74 -23q-12 0 -35 38t-23 55q0 25 37 38l275 101q-33 63 -80 113.5t-76 75t-29 30.5q0 20 29 53t55 33q37 0 135.5 -78t149.5 -160l201 72q78 31 100 31 q16 0 32.5 -41t16.5 -60.5t-57 -42.5l-238 -83q47 -156 47 -314q0 -348 -284 -737q16 -2 45 -2q43 0 93 29.5t68 46.5l74 69l29 -112q-94 -119 -194.5 -170.5t-247.5 -51.5q-199 -205 -420 -204q-111 0 -196 106.5t-85 282.5zM168 287q0 -104 121 -105q84 0 205 109 q147 164 260 500q-227 -25 -406.5 -172.5t-179.5 -331.5z" />
<glyph unicode="&#xf1;" horiz-adv-x="1251" d="M-39 272v11q0 130 96 301q100 178 226 284q39 33 106 33q74 -2 111 -15.5t38 -20.5t1 -23q0 -57 -171 -238.5t-171 -208.5q0 -31 28 -30q25 0 56 38q150 190 438.5 401.5t359.5 211.5q20 0 43 -51q31 -76 41 -148q0 -41 -83 -128t-168 -189.5t-85 -184.5 q0 -18 15.5 -33.5t34.5 -15.5q72 0 235 137l162 136l22 -119q-2 -4 -160.5 -160t-266 -229.5t-195.5 -73.5q-74 0 -114 51t-40 127q0 47 12.5 95.5t48.5 110.5l50 88q14 26 68.5 99.5t54.5 75.5l-4 6q-227 -170 -420 -417q-147 -184 -215 -185q-80 0 -115 84t-39 180z M471 1229q0 66 21.5 96.5t82.5 30.5l355 -35l4 6q-94 66 -94 94q0 14 10 26.5t24 12.5q47 0 127 -78.5t80 -150.5q0 -115 -116 -115q-55 0 -168 21q-102 19 -159 18h-11q10 -8 21 -19.5t16.5 -15.5t10.5 -9l8 -8q3 -3 6 -7t3 -9v-8q0 -29 -26 -28q-20 0 -74 39 q-8 6 -26.5 18l-29 18.5t-24.5 18.5t-22.5 23.5t-13.5 28t-5 32.5z" />
<glyph unicode="&#xf2;" horiz-adv-x="1077" d="M-33 373v16q0 252 248 442q231 186 510 201h8q49 0 93 -23q48 -26 48 -75q0 -37 -63 -74q57 -16 77.5 -54t20.5 -106q0 -25 -2 -49t-9 -50t-12 -42t-20 -48l-19 -43q-5 -11 -23 -46l-21 -43q16 -3 31 -3q26 0 53 8q43 13 68.5 32.5t67.5 56.5t60 49l29 -112 q-94 -119 -194.5 -170.5t-247.5 -51.5q-199 -205 -420 -204q-111 0 -193 104.5t-90 284.5zM168 287q0 -104 121 -105q41 0 82 17.5t63.5 36t63.5 55.5q-33 74 -33 125q0 63 32.5 142t60.5 127t26 50q-248 -143 -303 -198q-47 -47 -80 -118t-33 -132zM184 1307q0 8 2 32.5 t4.5 34.5t8.5 24.5t18 20.5t31 6q31 0 84 -16l162 -49q274 -82 329 -119q76 -51 76 -111q0 -25 -39 -24q-35 0 -90 22q-84 33 -258 58q-91 12 -172 12q-30 0 -59 -2q-23 -2 -41 -2q-44 0 -50.5 11t-6.5 55q0 21 1 47z" />
<glyph unicode="&#xf3;" horiz-adv-x="1077" d="M-33 373v16q0 252 248 442q231 186 510 201h8q49 0 93 -23q48 -26 48 -75q0 -37 -63 -74q57 -16 77.5 -54t20.5 -106q0 -25 -2 -49t-9 -50t-12 -42t-20 -48l-19 -43q-5 -11 -23 -46l-21 -43q16 -3 31 -3q26 0 53 8q43 13 68.5 32.5t67.5 56.5t60 49l29 -112 q-94 -119 -194.5 -170.5t-247.5 -51.5q-199 -205 -420 -204q-111 0 -193 104.5t-90 284.5zM168 287q0 -104 121 -105q41 0 82 17.5t63.5 36t63.5 55.5q-33 74 -33 125q0 63 32.5 142t60.5 127t26 50q-248 -143 -303 -198q-47 -47 -80 -118t-33 -132zM371 1133q0 61 75 112 q55 35 330 117l162 49q53 16 84 16q18 0 30.5 -5t17.5 -20l8 -25q3 -9 4 -33.5t1 -32.5q5 -34 5 -57q0 -14 -2 -24q-5 -26 -21 -31q-9 -3 -32 -3q-18 0 -44 2q-29 2 -59 2q-81 0 -172 -12q-174 -25 -260 -58q-53 -23 -88 -22q-39 0 -39 25z" />
<glyph unicode="&#xf4;" horiz-adv-x="1077" d="M-33 373v16q0 252 248 442q231 186 510 201h8q49 0 93 -23q48 -26 48 -75q0 -37 -63 -74q57 -16 77.5 -54t20.5 -106q0 -25 -2 -49t-9 -50t-12 -42t-20 -48l-19 -43q-5 -11 -23 -46l-21 -43q16 -3 31 -3q26 0 53 8q43 13 68.5 32.5t67.5 56.5t60 49l29 -112 q-94 -119 -194.5 -170.5t-247.5 -51.5q-199 -205 -420 -204q-111 0 -193 104.5t-90 284.5zM168 287q0 -104 121 -105q41 0 82 17.5t63.5 36t63.5 55.5q-33 74 -33 125q0 63 32.5 142t60.5 127t26 50q-248 -143 -303 -198q-47 -47 -80 -118t-33 -132zM199 1130q0 90 172 158 l221 88q160 61 223 62q51 0 154 -111q4 -4 24.5 -22.5t32.5 -30.5t24.5 -31.5t12.5 -32.5q0 -37 -57 -77q-45 -27 -56 -41q-20 12 -116.5 97t-141.5 85q-23 0 -137 -45l-240 -101q-82 -37 -92 -36q-24 -1 -24 38z" />
<glyph unicode="&#xf5;" horiz-adv-x="1077" d="M-33 373v16q0 252 248 442q231 186 510 201h8q49 0 93 -23q48 -26 48 -75q0 -37 -63 -74q57 -16 77.5 -54t20.5 -106q0 -25 -2 -49t-9 -50t-12 -42t-20 -48l-19 -43q-5 -11 -23 -46l-21 -43q16 -3 31 -3q26 0 53 8q43 13 68.5 32.5t67.5 56.5t60 49l29 -112 q-94 -119 -194.5 -170.5t-247.5 -51.5q-199 -205 -420 -204q-111 0 -193 104.5t-90 284.5zM168 287q0 -104 121 -105q41 0 82 17.5t63.5 36t63.5 55.5q-33 74 -33 125q0 63 32.5 142t60.5 127t26 50q-248 -143 -303 -198q-47 -47 -80 -118t-33 -132zM385 1229 q0 66 21.5 96.5t80.5 30.5l355 -35l6 6q-96 66 -96 94q0 14 11 26.5t23 12.5q47 0 127 -78.5t80 -150.5q0 -115 -116 -115q-53 0 -167 21q-103 19 -160 18h-11q12 -8 22 -19.5t16.5 -15.5t11.5 -9l8 -8q3 -3 5 -7t2 -9v-8q0 -29 -26 -28q-18 0 -74 39l-26 18 q-17 12 -28.5 18.5t-24.5 18.5t-21.5 23.5t-13.5 28t-5 32.5z" />
<glyph unicode="&#xf6;" horiz-adv-x="1077" d="M-33 373v16q0 252 248 442q231 186 510 201h8q49 0 93 -23q48 -26 48 -75q0 -37 -63 -74q57 -16 77.5 -54t20.5 -106q0 -25 -2 -49t-9 -50t-12 -42t-20 -48l-19 -43q-5 -11 -23 -46l-21 -43q16 -3 31 -3q26 0 53 8q43 13 68.5 32.5t67.5 56.5t60 49l29 -112 q-94 -119 -194.5 -170.5t-247.5 -51.5q-199 -205 -420 -204q-111 0 -193 104.5t-90 284.5zM168 287q0 -104 121 -105q41 0 82 17.5t63.5 36t63.5 55.5q-33 74 -33 125q0 63 32.5 142t60.5 127t26 50q-248 -143 -303 -198q-47 -47 -80 -118t-33 -132zM354 1461q47 69 118 69 q13 0 26 -2q45 -6 67.5 -11.5t49 -27t22.5 -55.5q-8 -72 -54 -146t-114 -74q-59 0 -117 28q-55 27 -55 75q0 60 57 144zM871 1461q46 69 119 69q13 0 26 -2q43 -6 66.5 -11.5t49.5 -26.5q24 -20 23 -51v-5q-8 -72 -54 -146t-116 -74q-59 0 -117 28q-54 26 -53 72 q-1 63 56 147z" />
<glyph unicode="&#xf7;" horiz-adv-x="1738" d="M369 627v164h1241v-164h-1241zM860 254q0 57 39 96t94 39h4q45 0 84 -41t39 -95t-40 -97t-87 -43q-55 0 -94 42t-39 99zM866 1163q0 55 40 95t87 40q53 0 92 -39.5t39 -95.5q0 -57 -37.5 -97t-93.5 -40h-2q-49 0 -87 40t-38 97z" />
<glyph unicode="&#xf8;" horiz-adv-x="1077" d="M-33 373v16q0 252 248 442q231 186 510 201q20 0 33 -2l82 98q33 51 55 63q7 4 19 3q26 0 77 -16l99 -13l-271 -307q90 -27 90 -158q0 -25 -2 -49t-9 -50t-12 -42t-20 -48l-19 -43q-5 -11 -23 -46l-21 -43q16 -3 31 -3q26 0 53 8q43 13 68.5 32.5t67.5 56.5t60 49 l29 -112q-94 -119 -194.5 -170.5t-247.5 -51.5q-197 -203 -414 -204l-76 -158q-8 -84 -71 -98q-79 30 -80 109q0 68 59 173l16 31q-127 101 -137 332zM168 287q0 -104 121 -105q41 0 82 17.5t63.5 36t63.5 55.5q-33 74 -33 125q0 63 32.5 142t60.5 127t26 50 q-248 -143 -303 -198q-47 -47 -80 -118t-33 -132z" />
<glyph unicode="&#xf9;" horiz-adv-x="1300" d="M-43 281q0 184 116.5 369.5t262.5 281.5q45 29 119 29q6 0 32.5 2t46 2t44 -4.5t36 -19.5t7.5 -36q-2 -31 -40 -76t-69 -69q-115 -131 -207 -197q-74 -51 -111.5 -102t-37.5 -131q0 -41 20 -41q41 0 139.5 56t188.5 136l270 244q2 2 54 50l92 83l92 80q53 45 94 70.5 t59 25.5q26 0 45 -41t19 -112q0 -61 -113 -162q-90 -82 -185 -208t-95 -208q0 -61 69 -61q96 0 418 256l16 -117l-77 -77l-104 -99l-106 -94q-71 -61 -121 -93t-110.5 -58t-109.5 -26q-74 0 -117 53.5t-43 127.5q0 78 57 229l-6 4q-23 -18 -118 -118.5t-174 -160t-146 -59.5 q-92 0 -149.5 86.5t-57.5 184.5zM297 1307q0 8 1 32.5t4 34.5t8 24.5t17.5 20.5t32.5 6q29 0 84 -16l160 -49q276 -82 330 -119q76 -51 76 -111q0 -25 -37 -24q-35 0 -90 22q-84 33 -258 58q-92 12 -173 12q-30 0 -59 -2q-23 -2 -41 -2q-44 0 -51 11q-6 10 -6 47q0 23 2 55z " />
<glyph unicode="&#xfa;" horiz-adv-x="1300" d="M-43 281q0 184 116.5 369.5t262.5 281.5q45 29 119 29q6 0 32.5 2t46 2t44 -4.5t36 -19.5t7.5 -36q-2 -31 -40 -76t-69 -69q-115 -131 -207 -197q-74 -51 -111.5 -102t-37.5 -131q0 -41 20 -41q41 0 139.5 56t188.5 136l270 244q2 2 54 50l92 83l92 80q53 45 94 70.5 t59 25.5q26 0 45 -41t19 -112q0 -61 -113 -162q-90 -82 -185 -208t-95 -208q0 -61 69 -61q96 0 418 256l16 -117l-77 -77l-104 -99l-106 -94q-71 -61 -121 -93t-110.5 -58t-109.5 -26q-74 0 -117 53.5t-43 127.5q0 78 57 229l-6 4q-23 -18 -118 -118.5t-174 -160t-146 -59.5 q-92 0 -149.5 86.5t-57.5 184.5zM481 1133q0 61 78 112q53 35 330 117l160 49q55 16 84 16q20 0 32.5 -5t17.5 -20l8 -25q3 -9 4 -33.5t1 -32.5q5 -34 5 -57q0 -14 -2 -24q-5 -26 -21 -31q-9 -3 -33 -3q-18 0 -45 2q-29 2 -60 2q-81 0 -172 -12q-174 -25 -258 -58 q-55 -23 -90 -22q-39 0 -39 25z" />
<glyph unicode="&#xfb;" horiz-adv-x="1300" d="M-43 281q0 184 116.5 369.5t262.5 281.5q45 29 119 29q6 0 32.5 2t46 2t44 -4.5t36 -19.5t7.5 -36q-2 -31 -40 -76t-69 -69q-115 -131 -207 -197q-74 -51 -111.5 -102t-37.5 -131q0 -41 20 -41q41 0 139.5 56t188.5 136l270 244q2 2 54 50l92 83l92 80q53 45 94 70.5 t59 25.5q26 0 45 -41t19 -112q0 -61 -113 -162q-90 -82 -185 -208t-95 -208q0 -61 69 -61q96 0 418 256l16 -117l-77 -77l-104 -99l-106 -94q-71 -61 -121 -93t-110.5 -58t-109.5 -26q-74 0 -117 53.5t-43 127.5q0 78 57 229l-6 4q-23 -18 -118 -118.5t-174 -160t-146 -59.5 q-92 0 -149.5 86.5t-57.5 184.5zM311 1130q0 90 170 158l221 88q162 61 224 62q51 0 155 -111q2 -4 22.5 -22.5l33 -30.5t25 -31.5t12.5 -32.5q0 -37 -58 -77q-43 -27 -53 -41q-23 12 -118 97t-142 85q-18 0 -135 -45l-240 -101q-82 -37 -92 -36q-25 -1 -25 38z" />
<glyph unicode="&#xfc;" horiz-adv-x="1300" d="M-43 281q0 184 116.5 369.5t262.5 281.5q45 29 119 29q6 0 32.5 2t46 2t44 -4.5t36 -19.5t7.5 -36q-2 -31 -40 -76t-69 -69q-115 -131 -207 -197q-74 -51 -111.5 -102t-37.5 -131q0 -41 20 -41q41 0 139.5 56t188.5 136l270 244q2 2 54 50l92 83l92 80q53 45 94 70.5 t59 25.5q26 0 45 -41t19 -112q0 -61 -113 -162q-90 -82 -185 -208t-95 -208q0 -61 69 -61q96 0 418 256l16 -117l-77 -77l-104 -99l-106 -94q-71 -61 -121 -93t-110.5 -58t-109.5 -26q-74 0 -117 53.5t-43 127.5q0 78 57 229l-6 4q-23 -18 -118 -118.5t-174 -160t-146 -59.5 q-92 0 -149.5 86.5t-57.5 184.5zM466 1461q46 69 118 69q13 0 26 -2q43 -6 66.5 -11.5t49.5 -27t24 -55.5q-8 -72 -54.5 -146t-115.5 -74q-59 0 -117 28q-54 26 -54 72q0 63 57 147zM984 1461q46 69 118 69q13 0 26 -2q43 -6 67 -11.5t49 -26.5q22 -19 22 -47v-9 q-8 -72 -54.5 -146t-113.5 -74q-59 0 -117 28q-55 27 -55 75q0 57 58 144z" />
<glyph unicode="&#xfd;" horiz-adv-x="1202" d="M-18 365q0 7 -1 14q0 141 114 299q120 166 245 263t172 99q31 0 74 -47t43 -78q0 -68 -145.5 -220t-252.5 -238q-47 -68 -51 -158q150 16 389 240l155 144l133 127l97 93q47 45 78 66.5t43 23.5q3 1 7 1q27 0 45 -46q22 -51 22 -90q0 -74 -111 -240l-403 -600l6 -4 l604 537l21 -102l-820 -902q-6 -4 -28 -31l-39 -48q-16 -20 -40 -38t-40 -18q-37 0 -59.5 65.5t-22.5 112.5q0 45 74 164l366 617l-6 6q-397 -334 -453 -334h-1q-68 6 -139.5 94.5t-75.5 227.5zM432 1133q0 61 78 112q53 35 330 117l159 49q55 16 84 16q20 0 32.5 -5 t18.5 -20l8 -25q3 -9 4 -33.5t1 -32.5q5 -34 5 -57q0 -14 -2 -24q-5 -26 -22 -31q-9 -3 -32 -3q-18 0 -45 2q-28 2 -59 2q-80 0 -173 -12q-174 -25 -258 -58q-55 -23 -90 -22q-39 0 -39 25z" />
<glyph unicode="&#xfe;" horiz-adv-x="1329" d="M-275 -438q0 181 169 422q150 213 438 700l-4 4l-432 -409l-11 127l539 579q127 135 582 657q70 84 157 84q35 0 83 -20t48 -53q0 -10 -133 -166l-393 -449q-180 -211 -233 -329l4 -7q369 264 540 265q53 0 84 -37t31 -90q0 -219 -442 -609q16 0 41.5 -1t37.5 -1 q119 0 213.5 55.5t286.5 225.5l21 -125q-186 -180 -364.5 -286.5t-377.5 -106.5q-84 0 -194 55q-80 -16 -125 -16q-37 0 -109 16l-256 -502q-59 -115 -123 -114q-78 0 -78 131zM369 307q23 2 45 2q96 0 182 -28l195 229q68 86 67 133q0 37 -31 37q-51 0 -209 -109 q-116 -84 -249 -264z" />
<glyph unicode="&#xff;" horiz-adv-x="1202" d="M-18 365q0 7 -1 14q0 141 114 299q120 166 245 263t172 99q31 0 74 -47t43 -78q0 -68 -145.5 -220t-252.5 -238q-47 -68 -51 -158q150 16 389 240l155 144l133 127l97 93q47 45 78 66.5t43 23.5q3 1 7 1q27 0 45 -46q22 -51 22 -90q0 -74 -111 -240l-403 -600l6 -4 l604 537l21 -102l-820 -902q-6 -4 -28 -31l-39 -48q-16 -20 -40 -38t-40 -18q-37 0 -59.5 65.5t-22.5 112.5q0 45 74 164l366 617l-6 6q-397 -334 -453 -334h-1q-68 6 -139.5 94.5t-75.5 227.5zM417 1461q46 69 118 69q13 0 26 -2q43 -6 66.5 -11.5t49 -27t23.5 -55.5 q-8 -72 -54 -146t-116 -74q-59 0 -116 28q-54 26 -54 72q0 63 57 147zM935 1461q46 69 118 69q13 0 26 -2q43 -6 66.5 -11.5t49.5 -26.5q24 -20 24 -51v-5q-8 -72 -55.5 -146t-114.5 -74q-59 0 -117 28q-55 27 -56 75q1 57 59 144z" />
<glyph unicode="&#x131;" horiz-adv-x="755" d="M-35 283q0 156 92.5 313.5t210 250.5t201.5 93q119 0 119 -76q0 -90 -133 -234.5t-250 -223.5q-5 -27 -5 -50q0 -122 148 -123q53 0 111.5 27t97.5 53.5t101.5 76.5l84.5 67l25 -103q-125 -154 -277.5 -274.5t-291.5 -120.5q-111 0 -172.5 102.5t-61.5 221.5z" />
<glyph unicode="&#x141;" horiz-adv-x="1906" d="M-152 43q0 20 11.5 47t35.5 61l43 60l46 61q27 35 32 41q49 68 84 76q63 14 183 28.5t170 22.5l143 168l-4 4q-80 -16 -219 -82q37 119 72.5 159t148.5 63l143 26l508 606q115 135 331 329t312 194q66 0 100.5 -54.5t34.5 -121.5q0 -61 -38.5 -157.5t-81.5 -171.5 l-108 -182q-65 -108 -81 -139q49 -6 49 -39q0 -49 -153 -157q-6 -4 -36 -27l-52 -39q-23 -16 -54.5 -34.5t-56.5 -30t-39 -11.5q-61 0 -61 82q0 238 364 650q33 37 15 47q-4 4 -9 4q-61 0 -456 -455l-226 -262q29 3 59 3q44 0 86 -7q71 -12 85 -62q2 -9 2 -16q0 -39 -51 -57 q-18 -4 -59.5 -4t-55.5 -4l-166 -11l-43 -6l-176 -199q664 -127 1096 -231l-144 -143q-57 -57 -73.5 -76t-66.5 -44.5t-72.5 -25.5t-106.5 7.5t-153 21.5l-226 47q-361 79 -659 79q-35 0 -68 -1l-60 -29q-18 -4 -63 -23.5t-82 -30.5t-70 -11q-84 0 -84 57z" />
<glyph unicode="&#x142;" horiz-adv-x="817" d="M-100 604q10 125 47 182.5t178 147.5l43 27q72 127 115 178q463 551 585 551q31 0 44 -33q12 -28 12 -60q0 -151 -72 -311q30 6 54 7q44 0 63 -23q13 -15 12 -31q0 -32 -55 -65q-20 -12 -77 -37l-71 -31l-33 -16q-150 -231 -503 -572q-26 -52 -27 -115q0 -35 8 -73 q47 -117 137 -117q166 0 467 272l39 -82q-92 -96 -137 -139t-144.5 -128t-188.5 -124t-171 -39q-242 0 -241 355q0 199 79 399l-6 6zM299 774l6 -6q139 131 256 302t156 294q-191 -92 -418 -590z" />
<glyph unicode="&#x152;" horiz-adv-x="3158" d="M129 588q-1 17 -1 33q0 196 132 411q143 233 359.5 414.5t464 312.5t444.5 158q11 2 23 2q73 0 151 -80q90 -92 90 -139q0 -51 -133 -96q-25 -8 -67 -30t-56 -28l6 -4l103 10q47 0 112 -22q168 211 518 321q240 80 654 86q36 1 68 1q278 0 315 -78l6 -113q1 -27 1 -50 q0 -76 -16 -100q-20 -31 -135 -67q-74 -25 -163 -71l-144 -76q-55 -30 -74 -29q-31 0 -30 26q0 20 44 65.5t91 85.5t47 44v-6h6v6h-25q-169 0 -326 -26q-169 -28 -287 -69.5t-205 -92t-126 -94.5q-35 -40 -35 -67q0 -43 48 -63q115 -49 602 -49q101 0 217 2q182 0 182 -59 q0 -35 -35 -93.5t-65 -82.5q-43 -39 -258 -72q-246 -41 -445.5 -114.5t-311.5 -152.5t-171 -145.5t-59 -107.5q0 -80 229 -88q36 -2 73 -2q255 0 570 98q86 27 175 72t208 118.5t164 98.5q4 -49 4 -91q0 -98 -21 -162q-29 -91 -141 -183q-184 -156 -463 -236 q-259 -74 -505 -74h-37q-166 2 -373 60q-82 20 -137 118q-53 95 -54 182q0 55 50 165l-7 6q-168 -156 -372 -248q-200 -90 -387 -90h-9q-188 6 -328.5 136t-154.5 419zM403 410q0 -80 35 -129.5t109 -49.5q111 0 261 67t243 146q265 225 421 456q163 240 162 393 q0 47 -27 84q-30 40 -81 40q-172 0 -384 -132t-315 -286q-53 -74 -83.5 -73.5t-38.5 75.5q-302 -300 -302 -591zM1595 604l7 -4q59 49 128.5 91t119 66.5t136.5 55.5l120 43q34 12 141.5 43t132.5 39v4l-201 16q-238 23 -356 76q-14 -74 -55.5 -158.5t-71 -132t-92.5 -133.5 z" />
<glyph unicode="&#x153;" horiz-adv-x="1540" d="M-31 416q0 244 238 411q104 74 245.5 126.5t256.5 52.5q70 0 105.5 -26t59.5 -91q193 143 412 143q190 0 191 -131q0 -123 -148.5 -256t-509.5 -250l-4 -59q0 -72 50 -105.5t124 -33.5q35 0 75 9t73.5 21.5t80.5 39.5l71 42q26 14 75 51l68 51q18 13 68 53t54 46l25 -104 q-152 -176 -352.5 -312.5t-382.5 -136.5q-100 0 -159.5 43t-109.5 135q-14 -14 -29 -34l-20 -24q-4 -5 -14 -15.5t-18 -15.5l-31 -19q-131 -78 -223 -78q-96 0 -161 88t-87.5 187.5t-22.5 191.5zM168 305q0 -51 27.5 -116.5t70.5 -65.5q57 0 178 74q37 18 95 114 q0 199 118 357q2 41 -16 75q-94 -33 -161.5 -63.5t-146.5 -83.5t-122 -127t-43 -164zM842 528q160 55 278 163q117 106 117 151q0 18 -7 26q-6 7 -15 7q-2 -1 -5 -1q-106 -27 -209.5 -121t-158.5 -225z" />
<glyph unicode="&#x160;" horiz-adv-x="1937" d="M16 117q0 41 50.5 124t89.5 119q25 18 112.5 48t120.5 30q23 0 23 -18q0 -25 -47 -51q-16 -12 -46 -41v-6q86 -3 167 -4q178 0 334 16q226 23 356.5 60.5t222.5 84.5t126 81t34 50q0 23 -25 45.5t-74 43t-102 38t-128 35.5l-133 32q-58 13 -137 26.5t-122 21.5l-102 18 q-58 10 -62 11q-61 8 -103.5 21t-86.5 38t-66.5 68t-22.5 100q0 72 27 190.5t59 171.5q78 125 423 261.5t753 136.5q166 0 342 -37q45 -12 58.5 -29.5t13.5 -60.5q0 -141 -49.5 -199.5t-180.5 -111.5q-84 -33 -124 -53.5t-122 -80.5q-49 -27 -67 -26q-43 0 -43 41 q0 4 17.5 27.5t66.5 69.5t114 93l-6 4q-199 -6 -373 -37.5t-285.5 -73.5t-193.5 -89.5t-118.5 -82t-36.5 -57.5q0 -16 2 -21t33.5 -24.5t104.5 -40l218 -58.5t367 -89q197 -47 300 -142.5t103 -201.5q0 -156 -103.5 -273.5t-254 -183t-346 -106.5t-348 -53.5t-291.5 -12.5 q-439 0 -439 158zM954 2152q0 35 56 76q45 27 55 41q23 -10 118 -96t140 -86q23 0 137 45l240 102q82 35 92 35q25 0 25 -39q0 -90 -172 -157l-220 -86q-162 -63 -223 -64q-53 0 -155 113q-4 2 -25 20.5t-33 30.5t-23.5 31.5t-11.5 33.5z" />
<glyph unicode="&#x161;" horiz-adv-x="976" d="M-246 289q0 31 66 96l592 541q4 74 45 126t110 52q59 0 80 -20.5t27 -82.5q2 -35 26.5 -141t24.5 -174q0 -281 -354 -496q32 -6 63 -5q49 0 96 14q78 23 122 51.5t132 93.5l164 125l27 -104q-164 -164 -349 -288q-174 -116 -313 -116h-18q-147 6 -273 88t-161 223 q-35 -35 -60 -34q-18 0 -32.5 16.5t-14.5 34.5zM23 412q45 -2 89 -31t65.5 -55.5t55.5 -75.5q129 80 170 135t46 170q-16 121 -35 223zM270 1356q0 37 58 78q43 27 53 41q23 -12 118 -98.5t142 -86.5q18 0 135 47l240 101q82 37 92 37q25 0 25 -39q0 -90 -172 -158l-220 -88 q-162 -61 -223 -62q-53 0 -156 111l-22 22l-33 31q-12 12 -24.5 32t-12.5 32z" />
<glyph unicode="&#x178;" horiz-adv-x="2019" d="M131 1018q-2 7 -2 18q0 31 18 92l41 146q20 72 56.5 111.5t111.5 89.5q219 133 543 273t498 140q80 0 135 -36.5t55 -112.5q0 -25 -10 -57.5t-34 -73.5l-41 -73q-17 -32 -55 -81t-52.5 -69.5t-55.5 -69.5l-36 -49l-164 -207l-130 -161l-95 -118l-68 -89 q-23 -30 -42.5 -58.5t-26.5 -46t-7 -35.5q-2 -20 15.5 -32.5t53.5 -5.5t76 42l212 171q97 75 224 186l523 474q121 109 154 109q45 0 85.5 -57.5t40.5 -106.5q0 -20 -13 -49t-55 -87l-91 -126l-149 -204l-204 -281q-289 -412 -323 -492q-15 -32 -15 -48q0 -18 17 -19 q16 0 36 11l107 63q88 52 222 122q53 27 97 43.5t74.5 21.5t51 3t30 -10.5t9.5 -22.5q0 -31 -64.5 -89t-101.5 -79q-453 -342 -641 -561q-45 -55 -72 -83t-79 -64.5t-97 -36.5q-53 0 -86 38.5t-33 96.5q0 176 310.5 650t549.5 771l-6 6l-721 -624q-264 -229 -370 -230 q-72 0 -136 59q-55 50 -54 105q0 9 1 18q0 4 3 26t6 33t16.5 46t32 66.5t55.5 89.5t85 124l122 160l166 203q297 354 335 424q25 41 25 65q2 14 -9.5 21.5t-27.5 9.5l-570 -298q-321 -173 -323 -177q-47 -33 -88 -33q-37 0 -45 25zM1424 2257q46 68 118 68q13 0 27 -3 q43 -4 66.5 -9t48.5 -27q24 -21 24 -53v-5q-8 -72 -54 -144.5t-116 -72.5q-59 0 -117 27q-54 25 -53 71q-1 65 56 148zM1943 2257q46 68 117 68q13 0 27 -3q43 -4 66.5 -9t49.5 -27q24 -21 23 -53v-5q-8 -72 -55 -144.5t-115 -72.5q-59 0 -117 27q-55 26 -55 74q1 59 59 145 z" />
<glyph unicode="&#x17d;" horiz-adv-x="1753" d="M147 -446q0 143 315.5 418.5t864.5 521.5q0 29 -10 56.5t-39 52t-71 35.5q-18 5 -43 5q-32 0 -73 -8q-75 -14 -169 -55l-285 -125q-82 -35 -140.5 -65t-72.5 -40t-28.5 -15t-32.5 -5q-43 0 -43.5 38t69.5 220q31 86 72 114q66 51 223.5 131t313 151t167.5 79 q279 152 354.5 208t75.5 122q0 33 -32.5 53t-63.5 20q-201 0 -483.5 -122.5t-851.5 -450.5q10 293 85 442.5t310 284.5q176 102 444.5 178t466.5 76q434 0 435 -328q0 -86 -35 -163.5t-83 -131t-126 -106.5t-142 -87l-155 -80l-139 -73q164 -31 245.5 -99.5t104.5 -219.5 q92 31 141 35t53.5 -4.5t4.5 -22.5v-2q0 -31 -33 -52.5t-166 -70.5q-70 -360 -447 -694q-131 -119 -385 -255t-366 -136q-53 0 -141.5 59.5t-88.5 110.5zM449 -348q0 -29 32 -29q139 0 438.5 249t368.5 456q-221 -111 -425 -263.5t-309 -264t-105 -148.5zM883 2152 q0 35 57 76q43 27 53 41q23 -10 118 -96t142 -86q20 0 136 45l239 102q82 35 94 35q25 0 25 -39q0 -90 -172 -157l-221 -86q-160 -63 -223 -64q-51 0 -156 113q-2 2 -22.5 20.5l-33 30.5t-24.5 31.5t-12 33.5z" />
<glyph unicode="&#x17e;" horiz-adv-x="1001" d="M-188 -528q0 68 42 140.5t86 114.5t117 99l355 283q-18 80 -51 106.5t-123 50.5q-4 0 -26 6.5t-30 8.5t-23.5 10t-19.5 19.5t0 25.5q4 41 56.5 83t187.5 137t252 189l-6 7l-332 -58l-311 -338l-29 90l190 232q-74 14 -73 74q0 74 114.5 182t182 108t67.5 -94 q92 12 173 32.5t124 33t66 12.5q33 0 60.5 -87t27.5 -128q0 -51 -82 -106l-350 -252q111 -82 143 -215l430 331l8 -116l-436 -379q-23 -154 -105.5 -294t-186 -231.5t-204 -145.5t-172.5 -62q-7 -1 -13 -1q-43 0 -74 34q-35 41 -35 98zM-51 -522q143 37 289.5 180t171.5 285 l-314 -246q-135 -106 -147 -219zM283 1356q0 37 57 78q45 27 55 41q20 -12 116.5 -98.5t141.5 -86.5q23 0 138 47l239 101q82 37 92 37q25 0 25 -39q0 -90 -172 -158l-221 -88q-160 -61 -224 -62q-51 0 -153 111q-4 2 -25 22l-33 31q-12 12 -24 32t-12 32z" />
<glyph unicode="&#x192;" horiz-adv-x="1769" d="M-55 -174q4 45 10 78t17.5 65.5t45 140l72.5 244.5q-51 6 -59 39l-2 10q0 47 112 148q2 2 38 34l58 50q22 18 53.5 37.5t49.5 19.5q63 0 84 -82q13 -49 13 -103q0 -98 -43 -214q-67 -180 -165 -332q-23 -51 9 -51q27 0 102.5 93t155.5 228l280 494l-133 4l-194 -18 q37 104 74 134q28 22 99 22q24 0 54 -3l168 -14l442 819q78 141 158 240q141 170 248 170q51 0 119.5 -71t68.5 -175q0 -98 -11 -181t-27 -134l-45 -153q-30 -101 -50 -183q2 0 10 -2t10 -2t9.5 -3.5t10.5 -4.5t8 -5t8 -7t4 -8t3 -11q6 -16 -1 -36t-23.5 -41.5l-33.5 -42 t-41.5 -45t-42.5 -38.5l-39 -33l-27 -22q-68 -70 -107 -70q-68 0 -92 104q-10 37 -10 84q0 78 28 181q45 164 107 280q77 138 77 182q0 6 -1 11q-4 14 -17 14q-25 0 -53 -43l-88 -131l-375 -670q78 -12 163 -42.5t97 -86.5q3 -11 3 -20q0 -37 -52 -37q-18 0 -64.5 11 t-52.5 11l-174 33l-180 -319l-176 -318q-74 -135 -242 -330.5t-262 -195.5q-72 0 -133 79q-54 70 -54 186q0 16 1 32z" />
<glyph unicode="&#x2c6;" horiz-adv-x="1089" d="M205 1130q0 90 172 158l219 88q162 61 223 62q53 0 156 -111q2 -4 22.5 -22.5t32.5 -30.5t24.5 -31.5t12.5 -32.5q0 -37 -57 -77q-43 -27 -54 -41q-23 12 -118 97t-142 85q-20 0 -135 -45l-239 -101q-82 -37 -93 -36q-24 -1 -24 38z" />
<glyph unicode="&#x2c7;" horiz-adv-x="927" d="M246 1356q0 37 57 78q43 27 53 41q23 -12 118 -98.5t142 -86.5q20 0 136 47l239 101q82 37 92 37q25 0 25 -39q0 -90 -170 -158l-221 -88q-162 -61 -223 -62q-53 0 -156 111l-23 22l-32 31q-12 12 -24.5 32t-12.5 32z" />
<glyph unicode="&#x2c9;" horiz-adv-x="925" d="M184 1090q0 6 4.5 38.5t7.5 47t10 44t13 45t18.5 35t28.5 25.5q12 5 28 5q5 0 11 -1q117 -10 244 -13q54 -1 118 -1q85 0 188 2q179 4 261 4v-6q-8 0 -41 -114q-32 -112 -66 -112q-1 0 -1 1q-240 12 -446 12t-378 -12z" />
<glyph unicode="&#x2d8;" horiz-adv-x="925" d="M274 1352q0 35 58 75q25 16 55 41q53 -31 106.5 -86t105.5 -86.5t136 -31.5q131 10 291 163q12 10 43 25.5t45 15.5q25 0 25 -38q0 -90 -164 -196t-332 -106q-98 0 -189.5 48.5t-135.5 99.5t-44 76z" />
<glyph unicode="&#x2d9;" horiz-adv-x="925" d="M543 1257q0 90 84 202q71 94 158 95q16 0 32 -4q6 0 28.5 -4t37 -8t32 -12t26.5 -24.5t9 -39.5q0 -16 -21.5 -87.5t-79.5 -154.5q-53 -75 -122 -76q-7 0 -14 1q-47 4 -78 11t-61.5 32.5t-30.5 68.5z" />
<glyph unicode="&#x2da;" horiz-adv-x="800" d="M588 1296q0 96 91 189.5t140 93.5q14 0 82 -37l98 -55q27 -27 27 -84q0 -121 -59.5 -212t-173.5 -91q-80 0 -142.5 59t-62.5 137zM725 1219q0 -4 6 -14.5t6 -14.5q90 80 107 121q14 29 14 65q0 35 -8 68q-125 -92 -125 -225z" />
<glyph unicode="&#x2db;" horiz-adv-x="925" d="M535 -190q0 51 40.5 89t71.5 49t103 34q10 2 16 4h149v-4l-47 -17q-141 -53 -141 -133q0 -98 129 -98q53 0 124 22.5t77 22.5q18 0 18 -21q0 -31 -74 -57q-121 -55 -243 -55q-88 0 -155.5 41t-67.5 123z" />
<glyph unicode="&#x2dc;" horiz-adv-x="925" d="M307 1229q0 66 22.5 96.5t82.5 30.5l354 -35l4 6q-94 66 -94 94q0 14 10 26.5t25 12.5q47 0 127 -78.5t80 -150.5q0 -115 -117 -115q-55 0 -168 21q-102 19 -159 18h-11q10 -8 21.5 -19.5t16.5 -15.5l11 -9q6 -5 8 -8t5 -7t3 -9v-8q0 -29 -26 -28q-20 0 -74 39l-26 18 q-17 12 -28.5 18.5t-24.5 18.5t-21.5 23.5t-14.5 28t-6 32.5z" />
<glyph unicode="&#x2dd;" horiz-adv-x="944" d="M104 1360q10 102 121 326l74 147q33 68 48 86t38 18q10 0 22.5 -6t20.5 -12t18.5 -16.5t16.5 -14.5q2 -1 6 -4q71 -52 70 -66q0 -22 -52 -75q-68 -74 -141 -182q-92 -152 -121 -238q-25 -61 -41 -82q-16 -18 -28 -18q-8 0 -15 6q-39 33 -39 97q0 16 2 34zM578 1360 q10 102 122 326l74 147q33 68 47.5 86t36.5 18q10 0 22.5 -6t20.5 -12t19.5 -16.5t17.5 -14.5q70 -53 76 -65q4 -20 -53 -80q-68 -74 -142 -182q-92 -152 -119 -238q-25 -61 -41 -82q-16 -18 -28 -18q-8 0 -15 6q-41 34 -40 101q0 14 2 30z" />
<glyph unicode="&#x3a9;" horiz-adv-x="1984" d="M33 0l51 213h397v4q-125 121 -180 308q-27 90 -27 192q0 109 31 231q90 350 385 584.5t661.5 234.5t532.5 -243q113 -166 113 -368q0 -95 -25 -198q-59 -242 -210.5 -432t-336.5 -309l-4 -4h404l-56 -213h-698l37 158q195 96 351.5 285.5t226.5 463.5q24 99 24 188 q0 143 -62 263q-101 195 -351 194.5t-453 -186.5t-275 -467q-32 -129 -31.5 -243t31.5 -213q63 -198 205 -285l-39 -158h-702z" />
<glyph unicode="&#x3bc;" horiz-adv-x="1300" d="M-424 -397q-75 40 -75 95q0 82 161 198q195 139 469 665q119 229 334 371q47 29 121 29q6 0 32.5 2t46 2t44 -4.5t35 -19.5t8.5 -36q-2 -31 -40 -76t-69 -69q-115 -131 -207 -197q-59 -41 -104 -104.5t-45 -128.5q0 -39 20 -43q41 2 139.5 58t188.5 136l270 244 q2 2 53 50l92 83l93 80q53 45 94 70.5t59 25.5q24 0 44 -41.5t20 -111.5q0 -61 -113 -162q-90 -82 -185 -208t-95 -208q0 -61 67 -61q98 0 420 256l16 -117l-78 -77l-104 -99q-35 -33 -105.5 -94.5t-121.5 -93t-110.5 -57.5t-108.5 -26q-74 0 -118 53.5t-44 127.5 q0 78 57 229l-4 4q-23 -18 -118 -118.5t-174 -160t-146 -59.5q-88 0 -180 119q-150 -303 -294 -442q-103 -100 -184 -100q-32 0 -61 16z" />
<glyph unicode="&#x3c0;" horiz-adv-x="1601" d="M72 0q117 197 250 519.5t198 559.5q-207 0 -297 -30l8 174q131 76 439 75h1122l-78 -219h-209l-170 -692q-62 -241 -61 -371v-16h-266q-6 19 -7 52q0 96 54 313l176 714h-438q-76 -254 -212.5 -586.5t-242.5 -492.5h-266z" />
<glyph unicode="&#x2000;" horiz-adv-x="1200" />
<glyph unicode="&#x2001;" horiz-adv-x="2400" />
<glyph unicode="&#x2002;" horiz-adv-x="1200" />
<glyph unicode="&#x2003;" horiz-adv-x="2400" />
<glyph unicode="&#x2004;" horiz-adv-x="798" />
<glyph unicode="&#x2005;" horiz-adv-x="600" />
<glyph unicode="&#x2006;" horiz-adv-x="399" />
<glyph unicode="&#x2007;" horiz-adv-x="399" />
<glyph unicode="&#x2008;" horiz-adv-x="299" />
<glyph unicode="&#x2009;" horiz-adv-x="479" />
<glyph unicode="&#x200a;" horiz-adv-x="133" />
<glyph unicode="&#x2010;" horiz-adv-x="870" d="M0 633v239h817v-239h-817z" />
<glyph unicode="&#x2011;" horiz-adv-x="870" d="M0 633v239h817v-239h-817z" />
<glyph unicode="&#x2012;" horiz-adv-x="870" d="M0 633v239h817v-239h-817z" />
<glyph unicode="&#x2013;" horiz-adv-x="1361" d="M0 633v239h1362v-239h-1362z" />
<glyph unicode="&#x2014;" horiz-adv-x="2723" d="M0 633v239h2724v-239h-2724z" />
<glyph unicode="&#x2018;" horiz-adv-x="819" d="M291 1395q0 51 45 154.5t84 148.5q29 37 56 65l47 48q19 19 42 32l34 19q11 6 30.5 10t24.5 4h24h22q-90 -119 -122 -184q35 -10 51 -17.5t33.5 -28t17.5 -51.5q0 -84 -81 -174t-169 -90q-139 1 -139 64z" />
<glyph unicode="&#x2019;" horiz-adv-x="819" d="M477 1321q90 121 123 184q-37 12 -53.5 18.5t-33.5 27t-17 51.5q0 84 81.5 174t167.5 90q139 0 140 -64q0 -51 -45 -154.5t-82 -146.5q-31 -39 -57.5 -67.5t-46 -47t-43 -31t-34 -19.5t-30 -11t-24.5 -4h-24h-22z" />
<glyph unicode="&#x201a;" horiz-adv-x="819" d="M133 -164q90 121 123 187q-35 10 -51.5 17t-34.5 27.5t-18 49.5q0 84 81.5 174t169.5 90q139 0 140 -62q0 -53 -45 -156.5t-84 -146.5q-29 -39 -56.5 -67.5t-47 -47t-42 -30.5t-34 -19.5t-31 -11.5t-24.5 -4h-24h-22z" />
<glyph unicode="&#x201c;" horiz-adv-x="1280" d="M424 1395q0 51 45 154.5t84 148.5q31 37 57 65l46 48q19 19 42 32l34 19q11 6 30.5 10t24.5 4h25h22q-90 -119 -123 -184q35 -10 51 -17.5t34.5 -28t18.5 -51.5q0 -84 -82 -174t-170 -90q-139 1 -139 64zM885 1395q0 51 45 154.5t84 148.5q29 37 56 65l47 48q19 19 42 32 l34 19q11 6 29.5 10t24.5 4h25h22q-90 -119 -123 -184q35 -10 51.5 -17.5t34 -28t17.5 -51.5q0 -84 -81 -174t-169 -90q-139 1 -139 64z" />
<glyph unicode="&#x201d;" horiz-adv-x="1280" d="M336 1321q88 121 121 184l-51 19q-16 6 -34 26.5t-18 51.5q0 84 82 174t168 90q139 0 139 -64q0 -51 -45 -154.5t-82 -146.5q-31 -39 -58 -67l-46 -48q-18 -18 -42 -30.5t-35 -19.5t-29.5 -11t-23.5 -4h-25h-21zM795 1321q90 121 123 184l-52 19q-16 6 -33.5 26.5 t-17.5 51.5q0 84 81 174t169 90q139 0 139 -64q0 -51 -45 -154.5t-84 -146.5q-29 -39 -56 -67l-46 -48q-18 -18 -42 -30.5t-35 -19.5t-29.5 -11t-24.5 -4h-25h-22z" />
<glyph unicode="&#x201e;" horiz-adv-x="1280" d="M133 -164q90 121 123 187q-35 10 -51.5 17t-34.5 27.5t-18 49.5q0 84 81.5 174t169.5 90q139 0 140 -62q0 -53 -45 -156.5t-84 -146.5q-29 -39 -56.5 -67.5t-47 -47t-42 -30.5t-34 -19.5t-31 -11.5t-24.5 -4h-24h-22zM594 -164q90 121 123 187q-37 10 -52.5 17t-34 27.5 t-18.5 49.5q0 84 82 174t170 90q137 0 137 -62q0 -53 -44 -156.5t-83 -146.5q-31 -39 -57 -67.5t-45.5 -47t-43 -30.5t-34 -19.5t-30 -11.5t-24.5 -4h-25h-21z" />
<glyph unicode="&#x2020;" horiz-adv-x="1425" d="M274 1026l62 240l491 -21l115 557h262l-166 -557l506 21l-59 -240l-496 23l-270 -1180h-258l317 1180z" />
<glyph unicode="&#x2021;" horiz-adv-x="1425" d="M113 371l55 233l491 -20l127 508l-499 -21l57 234l490 -23l112 520h250l-149 -520l507 23l-59 -234l-496 21l-127 -508l508 20l-59 -233l-496 22l-112 -524h-250l147 524z" />
<glyph unicode="&#x2022;" horiz-adv-x="1089" d="M143 803q0 45 20.5 121.5t69 175t116 179.5t175.5 130q84 38 178 38q27 0 56 -3q172 0 296 -70.5t124 -224.5q0 -119 -61.5 -270.5t-185.5 -274.5t-272 -123q-104 0 -215.5 31t-206 108t-94.5 183z" />
<glyph unicode="&#x2026;" horiz-adv-x="2723" d="M250 100q0 90 85 202q72 94 159 94q16 0 32 -3q4 0 28 -4t37 -8t31.5 -12.5t27.5 -24.5t9 -39q0 -16 -21.5 -89t-80.5 -156q-54 -75 -122 -75q-7 0 -13 1q-49 6 -79 13t-61.5 32.5t-31.5 68.5zM1157 100q0 90 85 202q72 94 159 94q16 0 33 -3q4 0 27.5 -4t36.5 -8 t30.5 -12.5t28 -24.5t10.5 -39q0 -16 -22.5 -89t-81.5 -156q-53 -75 -120 -75q-7 0 -14 1q-49 6 -78.5 13t-61.5 32.5t-32 68.5zM2064 100q0 90 85 202q72 94 158 94q16 0 32 -3q6 0 29.5 -4t37 -8t31 -12.5t27.5 -24.5t10 -39q0 -16 -22.5 -89t-80.5 -156q-53 -75 -121 -75 q-7 0 -14 1q-49 6 -78.5 13t-61.5 32.5t-32 68.5z" />
<glyph unicode="&#x202f;" horiz-adv-x="479" />
<glyph unicode="&#x2030;" horiz-adv-x="3289" d="M287 1221q61 246 230 396t366 150h2q186 0 275 -138q53 -83 54 -203q0 -80 -24 -177q-61 -256 -230 -405.5t-358 -149.5q-182 0 -279 144q-60 88 -60 212q0 78 24 171zM414 -27l1484 1792h166l-1486 -1792h-164zM500 954q39 -102 149 -102q104 0 192.5 101.5t131.5 279.5 q26 99 26 175q0 54 -13 97q-32 104 -150 105h-2q-113 0 -201 -106.5t-129 -272.5q-23 -91 -23 -163q1 -65 19 -114zM1321 504q59 246 228 396.5t366 150.5h2q186 0 276 -139q54 -82 54 -200q0 -80 -25 -177q-61 -256 -230 -404.5t-358 -148.5q-182 0 -277 141 q-59 87 -59 211q0 78 23 170zM1532 242q39 -102 145 -103q109 0 197 99.5t133 281.5q26 105 26 181q0 192 -167 192q-111 0 -199 -106.5t-131 -272.5q-23 -89 -23 -160q1 -63 19 -112zM2355 504q63 248 231.5 397.5t362.5 149.5h4q184 0 275 -139q54 -83 54 -203 q0 -79 -24 -174q-63 -256 -232 -404.5t-357 -148.5q-182 0 -278 141q-59 87 -59 211q0 78 23 170zM2567 240q40 -100 147 -101q109 0 195.5 99.5t133.5 281.5q26 105 26 180q0 193 -169 193h-2q-109 0 -196 -106.5t-130 -272.5q-24 -92 -24 -164q0 -63 19 -110z" />
<glyph unicode="&#x2039;" horiz-adv-x="579" d="M104 674q0 61 76 160l71 111l83 131q37 60 63 122q6 -16 32 -65.5t41 -87t15 -70.5t-61 -107q-29 -33 -75 -106.5t-46 -99.5q0 -10 13.5 -31t50 -46.5t88.5 -39.5q115 -31 114 -131q0 -45 -27.5 -76t-72.5 -31q-84 0 -232 140q-134 126 -134 209q-1 9 1 18z" />
<glyph unicode="&#x203a;" horiz-adv-x="579" d="M190 1092q0 47 28 76.5t73 29.5q86 0 234 -140q134 -126 134 -207q0 -9 -2 -17q0 -63 -77 -160l-71 -113l-83 -131q-37 -59 -64 -123q-6 16 -31.5 65.5t-41 87.5t-15.5 70q0 31 62 107q29 33 75 106.5t46 100.5q0 12 -13.5 32.5t-50.5 46t-88 38.5q-115 31 -115 131z" />
<glyph unicode="&#x2044;" horiz-adv-x="466" d="M-461 -27l1469 1794h178l-1473 -1794h-174z" />
<glyph unicode="&#x205f;" horiz-adv-x="600" />
<glyph unicode="&#x20ac;" d="M109 575l137 218h108q6 39 17 81q10 47 24 74h-194l137 217h131q125 279 340 440.5t522 161.5q279 0 416 -102l-72 -285q-113 129 -377 129q-385 0 -532 -344h760l-137 -217h-713q-16 -57 -19 -71q-14 -53 -20 -84h653l-135 -218h-539q-1 -20 -1 -38q0 -142 83 -224 q94 -92 285 -92q254 0 436 131l-73 -289q-158 -98 -465 -98q-289 0 -434 151q-126 132 -126 385q0 36 3 74h-215z" />
<glyph unicode="&#x2113;" horiz-adv-x="1366" d="M98 463q215 139 262 172l160 643q82 324 248 479.5t362 155.5q180 0 243 -123q36 -70 36 -160q0 -68 -20 -147q-53 -221 -250 -438.5t-531 -464.5l-20 -76q-13 -57 -13 -105q0 -78 35 -129q57 -82 172 -82q111 0 225.5 72t202.5 172l93 -110q-279 -346 -635 -347 q-213 0 -299 119q-67 92 -67 227q0 38 5 80q0 10 6 27q-25 -14 -83 -52t-91 -57zM668 823q465 387 536 660q15 62 15 108q0 134 -127 133q-82 0 -166 -98t-140 -315z" />
<glyph unicode="&#x2122;" horiz-adv-x="1992" d="M193 1665v199h747v-199h-256v-684h-240v684h-251zM1040 981v883h361l151 -437h7l149 437h356v-883h-239v623h-6l-209 -623h-111l-213 623h-6v-623h-240z" />
<glyph unicode="&#x2126;" horiz-adv-x="1984" d="M33 0l51 213h397v4q-125 121 -180 308q-27 90 -27 192q0 109 31 231q90 350 385 584.5t661.5 234.5t532.5 -243q113 -166 113 -368q0 -95 -25 -198q-59 -242 -210.5 -432t-336.5 -309l-4 -4h404l-56 -213h-698l37 158q195 96 351.5 285.5t226.5 463.5q24 99 24 188 q0 143 -62 263q-101 195 -351 194.5t-453 -186.5t-275 -467q-32 -129 -31.5 -243t31.5 -213q63 -198 205 -285l-39 -158h-702z" />
<glyph unicode="&#x212e;" horiz-adv-x="2527" d="M436 866.5q0 372.5 294 637.5t708 265q418 0 711.5 -265t293.5 -638v-24h-1624q-12 0 -12 -11v-491q0 -29 20 -57q260 -266 615 -267q190 0 357 80t290 219h145q-137 -164 -347 -257t-449 -93q-414 0 -708 264.5t-294 637zM807 907q0 -16 12 -16h1245q10 0 11 16v494 q0 35 -25 59q-260 256 -608 256q-352 0 -611 -264q-25 -25 -24 -63v-482z" />
<glyph unicode="&#x2202;" horiz-adv-x="1523" d="M137 359q-4 30 -3 59q0 73 22 143q70 283 281.5 462t459.5 179q160 0 255 -81t122 -163h4q20 72 27 101q33 130 32 240q0 138 -51 244q-92 191 -302 191.5t-396 -118.5l-37 186q231 147 516 148q305 0 452 -253q83 -143 82 -348q0 -158 -49 -352q-109 -446 -380 -735 t-617 -289q-133 0 -229.5 54.5t-136.5 141.5t-52 190zM422 561q-14 -62 -14 -116q0 -85 35 -150q58 -106 194 -107h4q162 0 314.5 163t234.5 384q-8 90 -84 174t-209 84q-154 0 -291 -126t-184 -306z" />
<glyph unicode="&#x2206;" horiz-adv-x="1785" d="M-10 0l37 160l1069 1624h321l248 -1620l-41 -164h-1634zM322 213h1054l-139 854q-6 39 -28.5 215t-26.5 238h-11l-119 -196l-134 -216z" />
<glyph unicode="&#x220f;" horiz-adv-x="2275" d="M410 1503v236h1802v-236h-297v-1743h-264v1743h-684v-1743h-265v1743h-292z" />
<glyph unicode="&#x2211;" horiz-adv-x="1859" d="M403 -76l695 821l-666 814v180h1333v-226h-958v-10l598 -721l-651 -776v-6h1054v-240h-1405v164z" />
<glyph unicode="&#x2212;" horiz-adv-x="1611" d="M240 627v164h1243v-164h-1243z" />
<glyph unicode="&#x2215;" horiz-adv-x="466" d="M-461 -27l1469 1794h178l-1473 -1794h-174z" />
<glyph unicode="&#x2219;" horiz-adv-x="819" d="M338 518q0 90 84 202q70 93 155 93q17 0 35 -4q6 0 30 -4t37 -8t30.5 -12.5t26.5 -25t9 -38.5q0 -16 -21.5 -88t-79.5 -155q-53 -75 -121 -75h-13q-49 6 -79 12.5t-61.5 32t-31.5 70.5z" />
<glyph unicode="&#x221a;" horiz-adv-x="1918" d="M438 827l410 164l323 -887q8 -33 28 -96t24 -90l2 -2l21 106q15 77 18 91l487 1960h197l-613 -2438h-223l-426 1123l-199 -78z" />
<glyph unicode="&#x221e;" horiz-adv-x="2240" d="M324 709q0 188 121.5 309t304.5 121q135 0 246.5 -78t234.5 -225q72 80 101.5 110.5t98 88t136 81t149.5 23.5q172 0 283.5 -116t111.5 -302v-2q0 -193 -122.5 -312.5t-290.5 -119.5q-121 0 -232.5 70.5t-244.5 234.5q-129 -152 -238 -228.5t-256 -76.5 q-164 0 -283.5 121t-119.5 301zM485 705q0 -111 74 -190t191 -79h2q25 0 50 4t52 17l45 21q18 9 44 33t40 33t43 38.5t37 40t37.5 42t36.5 37.5l-71 88q-17 22 -64.5 72.5t-80 71t-84 39t-102.5 18.5q-115 0 -182.5 -81.5t-67.5 -204.5zM1311 717q133 -156 216 -218.5 t179 -62.5q111 0 177.5 84t66.5 189q0 127 -70 204.5t-180 77.5h-2q-49 0 -94 -16.5t-95 -56.5l-70 -60q-22 -18 -74 -78.5t-54 -62.5z" />
<glyph unicode="&#x222b;" horiz-adv-x="1337" d="M387 -373l37 183q70 -31 123 -31q78 0 121 55q86 100 86 406q0 221 -20.5 633.5t-20.5 613.5q0 395 153 545q102 106 279 106q88 0 153 -35l-32 -174q-43 25 -101 25q-90 0 -135 -64q-82 -96 -82 -430q0 -197 18.5 -601t18.5 -619q0 -332 -104 -498q-94 -158 -301 -158 q-123 0 -193 43z" />
<glyph unicode="&#x2248;" horiz-adv-x="1693" d="M303 868q61 115 163.5 184.5t219.5 69.5q27 0 51.5 -3t50.5 -11l43 -13q16 -5 42 -18l37 -17q11 -5 37 -20.5t30 -17.5q8 -6 35 -20l35 -17q8 -4 28.5 -15.5t29.5 -15.5t26.5 -10t30 -8t30.5 -4t33 -2q137 0 258 190l96 -96q-143 -254 -354 -254q-78 0 -140.5 24.5 t-171.5 86.5q-160 86 -243 86q-57 0 -108.5 -30t-83.5 -65.5t-75 -95.5zM303 401q61 113 163.5 182.5t219.5 69.5q31 0 61.5 -5t54 -10t52.5 -19.5t44 -20.5t43 -21.5t36 -21.5l48 -27l49 -26q15 -8 44 -20.5t54.5 -16.5t52.5 -4q78 0 136 46t122 144l96 -96 q-143 -252 -356 -252q-76 0 -138.5 24.5t-171.5 84.5q-154 86 -243 86q-84 0 -141.5 -47.5t-125.5 -143.5z" />
<glyph unicode="&#x2260;" horiz-adv-x="1753" d="M381 365v157h455l165 369h-620v160h686l139 303l129 -58l-112 -245h401v-160h-467l-172 -369h639v-157h-702l-144 -310l-127 58l117 252h-387z" />
<glyph unicode="&#x2264;" horiz-adv-x="1808" d="M436 -23v162h1241v-162h-1241zM449 819v172l1220 580v-185l-1051 -477v-4l1051 -481v-184z" />
<glyph unicode="&#x2265;" horiz-adv-x="1808" d="M438 -23v162h1235v-162h-1235zM453 240v184l1050 481v2l-1050 479v185l1220 -582v-170z" />
<glyph unicode="&#x25ca;" horiz-adv-x="1921" d="M489 868l545 996h213l539 -996l-547 -993h-209zM727 874l360 -669q35 -76 50 -125h8q16 70 45 121l356 659l-356 666q-35 74 -49 127h-8q-16 -57 -52 -127z" />
<glyph unicode="&#xe000;" horiz-adv-x="1065" d="M0 1065h1065v-1065h-1065v1065z" />
<glyph unicode="&#xfb01;" horiz-adv-x="1572" d="M-233 -354q0 43 9 94t21.5 90t37.5 100l38 90q12 29 44 94.5t40 78.5q-80 86 -80 155q0 20 3 34.5t8 28.5l10 23q4 10 17 20.5t17.5 17.5t22.5 16.5t23.5 13.5t26.5 15l26 13q111 61 184.5 149.5t146.5 221.5l103 186l147 251q92 153 177 249t135 96q66 0 65 -120 q0 -76 -46 -195t-95 -186l-510 -711q23 -14 41 -31.5t33.5 -43t23.5 -41t24.5 -53.5t18.5 -46l338 209q59 186 211 330.5t258 144.5q119 0 119 -76q0 -90 -133 -234.5t-250 -223.5q-5 -27 -5 -50q0 -122 148 -123q53 0 111.5 27t97.5 53.5t101.5 76.5t85.5 67l24 -103 q-125 -154 -277.5 -274.5t-291.5 -120.5q-111 0 -172.5 102.5t-61.5 221.5q0 14 2 16l-6 6q-133 -123 -252 -180q5 -23 5 -69q0 -34 -3 -81q-16 -223 -223 -425.5t-379 -227.5q-6 -1 -12 -1q-49 0 -84 58q-39 66 -51 138t-12 129zM6 -213q-3 -19 -2 -39q0 -94 55 -203 q131 86 209 233q63 118 63 239q0 29 -3 57q-25 -2 -49 -2q-87 0 -148 24q-113 -188 -125 -309zM1323 1112q0 82 78 145.5t160 63.5q39 0 64.5 -24.5t25.5 -59.5q0 -84 -66.5 -164t-150.5 -80q-49 0 -80 35t-31 84z" />
<glyph unicode="&#xfb02;" horiz-adv-x="1601" d="M-233 -354q0 43 9 94t21.5 90t37.5 100l38 90q12 29 44 94.5t40 78.5q-80 86 -80 155q0 20 3 34.5t8 28.5l10 23q4 10 17 20.5t17.5 17.5t22.5 16.5t23.5 13.5t26.5 15l26 13q111 61 184.5 149.5t146.5 221.5l103 186l147 251q92 153 177 249t135 96q66 0 65 -120 q0 -76 -46 -195t-95 -186l-510 -711q23 -14 41 -31.5t33.5 -43t23.5 -41t24.5 -53.5t18.5 -46l266 168q23 188 104 377.5t198 337.5q184 231 353 391t232 160q29 0 43 -33q11 -25 11 -54v-16q-8 -111 -33 -200t-91.5 -214.5t-203.5 -286.5t-352 -368q-27 -53 -28 -119 q0 -33 7 -69q47 -117 137 -117q166 0 469 272l37 -82q-92 -96 -137 -139t-144.5 -128t-187.5 -124t-170 -39q-221 0 -244 301q-111 -98 -219 -149q5 -23 5 -69q0 -34 -3 -81q-16 -223 -223 -425.5t-379 -227.5q-6 -1 -12 -1q-49 0 -84 58q-39 66 -51 138t-12 129zM6 -213 q-3 -19 -2 -39q0 -94 55 -203q131 86 209 233q63 118 63 239q0 29 -3 57q-25 -2 -49 -2q-87 0 -148 24q-113 -188 -125 -309zM1063 774l4 -6q137 129 254 299t162 295l-4 -2l-4 4q-222 -178 -412 -590z" />
<glyph horiz-adv-x="1044" d="M239 1451q0 138 238 270q244 136 422 143h7q47 0 76 -28q32 -30 32 -52q0 -18 -64 -41q51 -20 51 -66q0 -25 -76.5 -113.5t-76.5 -129.5q0 -39 53 -39q29 0 63.5 15t60.5 29.5t65 40.5l51 33l12 -61q-55 -59 -190.5 -150.5t-194.5 -91.5q-84 0 -84 86q0 66 66 183l-5 -2 l-4 6l-157 -121q-156 -121 -189 -121q-39 0 -96 72q-60 74 -60 138zM240 1010v90h913v-90h-913zM377 1403q0 -25 26 -25q92 0 439 320l-6 4q-281 -82 -370 -152.5t-89 -146.5z" />
<glyph horiz-adv-x="911" d="M240 1010v90h778v-90h-778zM278 1476q0 151 158 267q150 113 332 121h8q30 0 59 -14q32 -15 31 -48q0 -18 -41 -43q63 -16 64 -94q0 -63 -70 -195q29 -4 55.5 4.5t43 18.5t45.5 34l38 32l17 -68q-111 -135 -285 -135q-137 -131 -272 -131q-72 0 -126 67q-57 70 -57 184z M414 1417q0 -33 16 -44t55 -11q70 0 136 57q-20 39 -21 76q0 25 10.5 56.5t22.5 54.5l27 49q15 27 16 28l-6 3q-10 -8 -56.5 -33t-78 -45.5t-56.5 -40.5q-65 -62 -65 -150z" />
<glyph horiz-adv-x="966" d="M446 918q0 115 123 337l224 312l100 119l-4 6l-168 -58l-47 -16q-14 0 -15 39q6 45 82 82q10 4 89 45t137.5 68.5t81.5 27.5q27 0 51 -37q31 -51 30 -76q0 -43 -133 -256l-145 -223q-207 -315 -207 -436q0 -8 3 -26.5t3 -30.5q0 -20 -24 -21q-16 0 -39 12q-12 8 -47 23.5 t-49.5 25t-30 32t-15.5 51.5z" />
<glyph horiz-adv-x="1019" d="M229 1001q0 25 16.5 52.5t49.5 57.5t69.5 58.5t88.5 61.5l93 57q42 25 98 54l89 47l80 39q47 24 55 30q6 2 30 14.5t36 17.5t35.5 18.5t39 24.5t37 24.5t34 27.5l26.5 28.5t19 30t5 29.5q0 8 -5 13.5t-15 6.5t-19.5 1t-21.5 -1t-18 -1q-174 0 -480 -131v-7l107 -8 q2 0 17.5 -2t23.5 -5t16 -10t8 -18q0 -25 -43 -28l-190 -33q-41 -8 -61 -8q-39 0 -39 61q0 43 30.5 112.5t65.5 106.5q72 72 241.5 120t301.5 48q104 0 146 -52t42 -218q0 -70 -25.5 -110t-95.5 -93q-57 -45 -356 -201.5t-379 -218.5l6 -6l684 113q-55 -139 -78 -170 q-72 -92 -325 -117q-92 -10 -228 -14q-117 0 -137 20q-74 65 -74 178z" />
<glyph horiz-adv-x="1107" d="M168 942q0 31 60.5 94.5t93.5 63.5q27 0 26 -19q0 -14 -41 -49q74 -27 172 -26q188 0 354 66.5t166 117.5q0 31 -38.5 52.5t-100 30.5t-104.5 12t-80 3q-88 0 -156 -16q-8 0 -27.5 -3t-23.5 -3q-29 0 -29 37q0 61 56 122q49 51 139 62q586 66 586 178q0 70 -181 70 q-172 0 -378 -70v-6l34 -6q14 0 40 -6.5t26 -20.5q0 -18 -29 -18q-55 -12 -166 -13q-90 0 -90 88q0 84 168 144q125 45 348 45q74 0 126 -6t113.5 -23.5t92.5 -60.5t31 -109q0 -45 -33 -94t-76 -74q-2 -2 -14 -8t-15.5 -8t-13.5 -6t-21.5 -6t-28.5 -8.5t-41 -11.5l-55 -12 l-75 -17l-93 -20q-50 -11 -122 -24v-6q215 -31 287 -71q82 -51 82 -144q0 -121 -177.5 -238.5t-472.5 -117.5q-152 0 -235.5 43t-83.5 92z" />
</font>
</defs>
</svg>
